<svg xmlns="http://www.w3.org/2000/svg" version="1.1" xmlns:xlink="http://www.w3.org/1999/xlink" xmlns:svgjs="http://svgjs.com/svgjs" width="294.5" height="294.4"><svg version="1.1" id="SvgjsSvg1000" xmlns="http://www.w3.org/2000/svg" xmlns:xlink="http://www.w3.org/1999/xlink" x="0px" y="0px" viewBox="0 0 294.5 294.4" style="enable-background:new 0 0 294.5 294.4;" xml:space="preserve">
<style type="text/css">
	.st0{fill:#540B0E;}
</style>
<g>
	<path class="st0" d="M167,0.8c-3.3-1-6.8-0.9-10,0.3c-4.2,1.5-7.6,4.5-9.7,8.5c-2-3.9-5.4-6.9-9.5-8.5c-3.3-1.2-6.9-1.3-10.3-0.2
		c-3.3,1.1-6.2,3.4-8.1,6.4c-1.5,2.8-2.2,5.9-1.9,9.1c0.3,4.1,2.1,8,5.1,10.9l24.7,25.4l25-25.3h0c2.9-2.9,4.7-6.8,5.1-10.9
		c0.2-3.2-0.4-6.3-1.9-9.1C173.4,4.2,170.5,1.9,167,0.8L167,0.8z"></path>
	<path class="st0" d="M177.3,115.2c-7.3,1.2-14.5,3.5-21.1,6.9c18.2,13.8,30.1,34.4,33,57c2.9,22.7-3.4,45.6-17.5,63.5
		c-14.1,18-34.9,29.5-57.6,32.1c-3.1,0.4-6.3,0.5-9.5,0.6c-30.5,0-58.6-16.2-73.8-42.6c-15.2-26.4-15.2-58.9,0-85.2
		s43.4-42.6,73.8-42.6c3.2,0,6.3,0.2,9.5,0.6c6.4-5.9,13.5-11.1,21.1-15.3c-29-9.1-60.6-5-86.4,11.2C23.1,117.3,5.7,143.9,1.2,174
		c-4.5,30.1,4.3,60.6,24.2,83.6c19.9,23,48.8,36.2,79.3,36c27.7-0.1,54.2-11.2,73.6-30.9c19.5-19.7,30.3-46.3,30.1-74
		C208.2,161.1,197,134.6,177.3,115.2L177.3,115.2z"></path>
	<path class="st0" d="M189.9,85.7c-16.8,0-33.3,4-48.2,11.8l-1.9,1c-6.9,3.8-13.4,8.4-19.3,13.7l-2.3,2h0
		c-20.6,19.5-32.3,46.6-32.5,74.9s11.2,55.6,31.5,75.3c7.3-1.3,14.5-3.6,21.1-6.9c-21.4-16.2-33.9-41.6-33.7-68.4
		c0.2-26.9,13.1-52,34.8-67.9c3-2.3,6.2-4.4,9.5-6.2l2.2-1.1l0.9-0.3h0.5c5.3-2.6,10.9-4.7,16.7-6.2h0.7c1.9-0.5,3.8-0.9,5.7-1.2
		l4.7-0.8c23.3-2.6,46.6,4.5,64.5,19.6c17.9,15.1,28.7,36.9,30,60.3c1.3,23.4-7.1,46.3-23.2,63.3c-16.1,17-38.5,26.7-61.9,26.7
		c-3.1-0.1-6.3-0.4-9.4-0.8c-6.5,5.7-13.5,10.7-21.1,14.9c29,9.1,60.6,5,86.3-11.1c25.8-16.1,43.2-42.7,47.7-72.8
		c4.5-30.1-4.3-60.6-24.2-83.6c-19.9-23-48.8-36.2-79.2-36.1L189.9,85.7z"></path>
</g>
</svg><style>@media (prefers-color-scheme: light) { :root { filter: none; } }
@media (prefers-color-scheme: dark) { :root { filter: none; } }
</style></svg>