<?xml version="1.0" standalone="no"?>
<!DOCTYPE svg PUBLIC "-//W3C//DTD SVG 20010904//EN"
 "http://www.w3.org/TR/2001/REC-SVG-20010904/DTD/svg10.dtd">
<svg version="1.0" xmlns="http://www.w3.org/2000/svg"
 width="512.000000pt" height="512.000000pt" viewBox="0 0 512.000000 512.000000"
 preserveAspectRatio="xMidYMid meet">
<metadata>
Created by potrace 1.14, written by Peter Selinger 2001-2017
</metadata>
<g transform="translate(0.000000,512.000000) scale(0.100000,-0.100000)"
fill="#000000" stroke="none">
<path d="M1399 4736 c-2 -2 -29 -6 -59 -9 -199 -20 -440 -108 -628 -230 -226
-146 -410 -351 -535 -594 -45 -88 -112 -256 -121 -305 -2 -13 -9 -41 -15 -63
-24 -90 -38 -233 -36 -364 2 -75 6 -147 9 -160 73 -306 186 -526 433 -844 92
-119 113 -143 193 -232 90 -99 346 -356 423 -424 40 -35 95 -84 122 -110 28
-25 79 -71 115 -101 36 -30 67 -57 70 -61 3 -3 75 -62 160 -131 415 -335 971
-728 1031 -728 56 0 582 371 999 704 69 55 127 102 130 105 3 3 32 28 65 56
33 27 100 85 150 130 49 44 110 98 135 120 58 52 394 387 446 445 170 192 330
407 425 575 78 136 157 318 174 402 47 226 41 438 -20 671 -95 370 -343 710
-669 917 -149 95 -379 186 -531 210 -22 3 -58 9 -80 12 -57 9 -330 9 -389 0
-309 -48 -587 -176 -795 -366 -19 -17 -37 -31 -40 -31 -4 0 -29 19 -56 43
-198 172 -483 309 -710 342 -22 4 -51 9 -65 12 -29 6 -326 14 -331 9z m391
-225 c251 -53 457 -165 664 -363 32 -31 71 -58 85 -61 38 -8 80 14 136 69 202
198 431 317 705 366 112 20 339 17 461 -5 134 -25 327 -102 439 -175 332 -215
546 -534 615 -914 32 -172 28 -346 -10 -473 -108 -366 -433 -806 -942 -1275
-128 -118 -150 -138 -199 -181 -292 -256 -788 -636 -1095 -839 l-91 -60 -111
77 c-379 260 -810 590 -1062 815 -16 14 -39 35 -51 45 -244 211 -587 567 -746
773 -182 238 -304 462 -358 660 -25 90 -35 288 -19 374 4 23 10 59 13 81 27
175 105 366 219 535 211 313 568 530 942 573 90 10 307 -2 405 -22z"/>
<path d="M3445 4176 c-59 -25 -73 -105 -26 -155 66 -71 187 -8 166 87 -13 62
-79 93 -140 68z"/>
<path d="M3833 4155 c-60 -25 -79 -110 -37 -156 9 -10 47 -30 85 -44 142 -54
277 -165 365 -298 44 -67 98 -187 108 -239 2 -15 7 -31 10 -36 5 -9 12 -59 21
-157 4 -50 10 -64 35 -87 68 -62 176 -4 165 87 -2 11 -6 52 -9 90 -28 332
-233 633 -533 785 -112 56 -171 71 -210 55z"/>
</g>
</svg>
