<?xml version="1.0" encoding="UTF-8"?>
<svg xmlns="http://www.w3.org/2000/svg" xmlns:xlink="http://www.w3.org/1999/xlink" viewBox="0 0 850 850" width="850" height="850">
  <style>
    .monogram-svg-outline {
      fill: none;
      stroke: url(#monogram-svg-radial-gradient);
      stroke-width: 16
    }
  </style>
  <defs>
    <radialGradient id="monogram-svg-radial-gradient" fy="100%" r="100%">
      <stop offset="0" stop-color="currentColor">
        <animate id="monogram-svg-radial-gradient-animate-currentColor" dur="2.1s" attributeName="offset" fill="freeze" from="0" to="1" begin="indefinite" calcMode="spline" keySplines="0 0 0 1" />
      </stop>
      <stop offset="0" stop-color="transparent">
        <animate id="monogram-svg-radial-gradient-animate-transparent" dur="2.1s" attributeName="offset" fill="freeze" from="0" to="1" begin="indefinite" calcMode="spline" keySplines="0 0 0 1" />
      </stop>
    </radialGradient>
  </defs>
  <path class="monogram-svg-outline" d="m624.9 786.9h-399.5l-199.8-345.3 199.8-345.3h399.5l199.7 345.3z" />
  <path class="monogram-svg-outline" d="m736.8 212.6l77 337.4-188.8 236.9h-400l-188.8-236.9 77-337.4 311.8-150.2z" />
  <path fill="currentColor"
    d="m325.3 367.9q-1.1 9.3-1.6 18.1-0.3 8.9-0.3 13.4 0 4.8 0.3 9.3 0.3 4.3 0.5 7.3h-6.1q-1.6-15.8-4.5-24.9-3-9.3-10.2-13.1-6.9-4-21.1-4h-22.1q-9.1 0-13.9 1.6-4.6 1.4-6.2 6.2-1.6 4.5-1.6 14.4v132.4q0 9.6 1.6 14.4 1.6 4.9 6.2 6.5 4.8 1.3 13.9 1.3h19.5q16.8 0 25.3-4.5 8.8-4.6 12.6-14.7 4-10.4 5.8-28.1h6.2q-0.8 7.2-0.8 19.3 0 5 0.3 14.6 0.5 9.4 1.6 19.5-13.7-0.5-30.7-0.5-17.1-0.3-30.5-0.3-5.9 0-15.2 0-9.1 0-19.8 0.3-10.6 0-21.6 0.3-10.9 0-20.8 0.2v-5.3q9.1-0.5 13.6-2.1 4.8-1.6 6.4-6.5 1.6-4.8 1.6-14.4v-132.4q0-9.9-1.6-14.4-1.6-4.8-6.4-6.4-4.5-1.9-13.6-2.2v-5.3q9.9 0.3 20.8 0.5 11 0 21.6 0.3 10.7 0 19.8 0 9.3 0 15.2 0 12.3 0 27.8 0 15.7-0.3 28-0.8zm-94.8 91.3h48.9q0 0 0 2.7 0 2.6 0 2.6h-48.9q0 0 0-2.6 0-2.7 0-2.7zm50.5-35.2h6.1q-1 15.2-1 23.2 0.2 8 0.2 14.7 0 6.7 0.3 14.7 0.3 8 1.3 23.2h-6.1q-1.1-8.6-2.7-16.6-1.3-8.2-6.4-13.3-4.8-5.4-16.5-5.4v-5.3q8.8 0 13.3-3.5 4.8-3.7 7-9.3 2.1-5.6 2.9-11.5 0.8-6.1 1.6-10.9zm129.9-9.9q5.1 0 8.4 1.2 3.3 1.1 5.5 2.8 1.7 1.3 2.8 2.9 1 1.6 1.6 3.2 0.5 1.6 0.5 3.1 0 3.3-2.4 5.2-2.3 1.9-5.1 1.9-2.6 0-4.8-1.8-2.1-1.7-2.1-4.9 0-2.9 2-4.9 2-2.2 5.1-2.4-0.6-1.8-3.4-3-2.6-1.3-6.8-1.3-6.8 0-11.2 4.1-4.3 4-4.3 11.8 0 3.7 1.4 7.6 1.4 3.9 5.5 7.6 2.2-0.4 4.6-0.5 2.4-0.3 3.6-0.3 2.4 0 3.9 0.8 1.5 0.8 1.5 2.3 0 1.2-1.1 1.8-0.9 0.7-2.7 0.7-2.5 0-5.3-1.1-2.8-1.2-4.4-1.8-7.8 2.2-12.6 7.4-4.8 5.1-4.8 14.5 0 9.2 4.8 15.6 4.8 6.4 12.9 9.9 8.1 3.3 18.1 3.3 7.1 0 13.4-1.6 6.4-1.7 11.2-4.9 4.9-3.3 7.7-7.7 2.8-4.5 2.8-10.2 0-2.6-1-6.4-1.1-4.1-4.5-7.8-3.3-3.9-10.2-6l1.6-1.3q9.7 2.9 13.9 9.4 4.1 6.5 4.1 14.5 0 8-4.8 15.3-4.8 7.4-13.9 12-9.1 4.6-22 4.6-8.7 0-16.6-2.3-7.7-2.3-13.7-6.5-6-4.4-9.5-10.6-3.5-6.1-3.5-13.9 0-7.2 2.8-12.3 2.8-5.2 7-8.5 4.1-3.3 8.2-5.1 4.2-1.8 6.7-2.5-4.4-2-7.5-4.7-2.9-2.8-4.5-6-1.5-3.3-1.5-6.5 0-3.2 1.5-6.2 1.5-3 4.3-5.4 2.8-2.4 6.9-3.8 4.3-1.3 9.9-1.3zm48.6-2.7q8.3 0 13.9 4.8 5.6 4.7 5.6 13.2 0 4.6-1.8 8.2-1.6 3.5-4.5 6.1-2.8 2.7-6.4 4.4-3.1 1.5-8.1 3.2-5 1.8-10.7 3.5-5.6 1.7-10.8 3.5-5.1 1.6-8.3 2.8-5 1.8-8.4 4.6-3.4 2.7-3.4 7 0 3.5 2 5.9 2 2.4 4.8 3.6 3 1.2 5.5 1.2 1.2 0 3-0.3 1.8-0.4 3.3-1.1 1.5-0.6 1.7-1.6-2.1-0.4-4.2-1.8-2-1.6-2-5 0-3.2 2.1-5 2.1-1.9 5.2-1.9 3.2 0 5.1 2 2 2 2 5.2 0 3.7-2.6 6.4-2.4 2.5-6.1 3.9-3.6 1.2-7.2 1.2-3.8 0-7.6-1.6-3.9-1.6-6.4-5-2.6-3.4-2.6-9 0-4.7 2-8.3 2.2-3.6 6.3-6.4 4.1-2.8 10.2-4.8 4-1.4 9.7-3 5.7-1.6 11.7-3.4 6.2-1.9 11.1-4.2 6.7-3.1 9.1-6.3 2.4-3.2 2.4-6.5 0-3.9-2.1-6.8-2.2-3.1-5.8-4.8-3.4-1.9-7.6-1.9-1.6 0-2.6 0.3-1.1 0.3-1.4 0.9 1.9 1 2.8 2.7 1 1.7 1 3.5 0 2.8-2.3 4.6-2.2 1.9-5.2 1.9-2.6 0-4.8-1.6-2.3-1.7-2.3-5.1 0-3.4 2.3-5.4 2.4-2.1 5.7-2.9 3.5-0.9 6.7-0.9zm127.9-43.5v5.3q-9.1 0.3-13.9 2.2-4.5 1.6-6.1 6.4-1.6 4.5-1.6 14.4v132.4q0 9.6 1.6 14.4 1.6 4.9 6.1 6.5 4.8 1.3 13.9 1.3h19.5q12.5 0 20.3-2.7 8-2.6 12.5-8.3 4.8-5.8 7.2-15.4 2.4-9.7 3.8-23.5h6.1q-0.8 8.2-0.8 21.9 0 5 0.3 14.6 0.5 9.4 1.6 19.5-13.6-0.5-30.7-0.5-17.1-0.3-30.5-0.3-5.8 0-15.2 0-9.1 0-19.7 0.3-10.7 0-21.7 0.3-10.9 0-20.8 0.2v-5.3q9.1-0.5 13.6-2.1 4.8-1.6 6.4-6.5 1.6-4.8 1.6-14.4v-132.4q0-9.9-1.6-14.4-1.6-4.8-6.4-6.4-4.5-1.9-13.6-2.2v-5.3q5.6 0.3 14.7 0.5 9.1 0.3 19.5 0.3 9.3 0 18.4-0.3 9.3-0.2 15.5-0.5z" />
</svg>
