<?xml version="1.0" encoding="UTF-8"?><svg xmlns="http://www.w3.org/2000/svg" viewBox="0 0 339.05 717.16">
  <g id="a">
    <rect x="-774.04" y="-325.64" width="3652.73" height="1266.84" fill="none" />
  </g>
  <g id="b">
    <g>
      <path
        d="M324.94,0c-5.29,3.48-8.89,9.37-11.48,15.04-5.17,11.29-16.36,18.45-24.81,26.86-.91,.91,.45,2.36,1.38,1.46,6.47-6.32,13.7-11.2,19.22-18.58,2.61-3.5,5.5-6.99,7.35-10.94,1.81-3.87,5.6-10.63,8.49-13.62l-.15-.21Z"
        fill="currentColor" />
      <path
        d="M314.69,34.2c-5.78,1.62-11.67,3.11-17.49,4.59-3,.77-6.39,1.4-8.91,3.3l-.38,1.26,.11,.66,1.13,.52c8.39-3.52,16.6-7.82,25.6-10.08l-.06-.25Z"
        fill="currentColor" />
      <path
        d="M324.54,11.68c-3.75,.68-6.76,3-9.59,5.43-1.73,1.48-3.4,3.09-4.92,4.78-1.26,1.4-2.17,3.5-3.94,4.36-.65,.31-.12,1.3,.52,.98,7.28-3.55,9.87-12.88,17.98-15.33l-.05-.22Z"
        fill="currentColor" />
      <path
        d="M315.87,27.1c-4.1,.57-7.98,1.88-11.8,3.46-3.03,1.25-5.22,3.08-7.83,4.99-.5,.37,.12,1.24,.64,.9,2.21-1.46,4.76-2.31,7.02-3.7,3.75-2.31,7.75-4.26,12.01-5.42l-.05-.22Z"
        fill="currentColor" />
      <path
        d="M324.91,.02c-14.4,11.07-30.04,24.37-37.39,41.5-.35,.81,1.02,1.43,1.41,.64,7.43-15.39,22.31-31.87,36.16-41.95l-.18-.19Z"
        fill="currentColor" />
      <path
        d="M324.91,.2c8.01,8.29,3.76,21.61,1.38,31.03-2.72,10.76-11.98,17.07-21.23,21.95-7.21,3.8-14.84,5.24-19.78,12.26-.5,.7,.64,1.4,1.14,.7,5.4-7.67,15.33-9.75,23.18-13.93,6.34-3.38,11.18-7.79,14.95-13.86,6.3-10.15,9.37-29.1,.55-38.33l-.19,.18Z"
        fill="currentColor" />
      <path
        d="M324.96,.24c16.06,4.34,6.36,27.14,2.79,36.91-3.51,9.59-4.75,19.18-7.44,28.91-.31,1.11,1.4,1.63,1.7,.52,1.99-7.38,2.84-14.83,5.22-22.16,2.53-7.8,5.57-15.61,7.41-23.59,1.88-8.15-1.89-17.22-9.58-20.82l-.11,.23Z"
        fill="currentColor" />
      <path
        d="M281.94,34.48c8.96,9.37-13.62,30.74-18.62,39.31-3.17,5.43-5.12,11.44-5.58,17.69-.81,10.85,7.06,19.67,13.77,27.17,.96,1.07,2.57-.46,1.62-1.53-12.05-13.48-17.16-24.98-8.34-42.42,4.43-8.77,30.09-29.36,17.32-40.37l-.16,.15Z"
        fill="currentColor" />
      <path
        d="M264.42,92.87c-.87,5.51-.21,10.27,1.57,15.57,.87,2.58,2.2,8.38,4.89,9.51l.86-.61c.36-2.38-2.92-6.16-3.96-8.28-2.27-4.65-4.72-10.94-3.11-16.15l-.25-.04Z"
        fill="currentColor" />
      <path
        d="M281.95,34.52c13.73,10.63,1.91,35.39-3.82,47.95-4.91,10.74-8.61,22.52-6.97,34.4,.14,1,1.65,.65,1.52-.34-2.33-17.29,7.47-32.94,12.95-48.71,4.22-12.13,7.94-24.82-3.53-33.52l-.14,.22Z"
        fill="currentColor" />
      <path
        d="M316.86,53.46c-7.2,5.38-16.6,6.11-23.55,11.9-4,3.33-6.99,6.72-9.86,10.98-8.03,11.92-12.49,25.98-12.42,40.32,0,1.15,1.78,1.22,1.78,.07-.02-15.09,5.13-28.85,13.54-41.24,7.54-11.12,20.74-13.75,30.7-21.85l-.18-.19Z"
        fill="currentColor" />
      <path
        d="M316.84,53.49c-8.33,11.83-5.02,26.98-12.15,39.41-5.16,9.01-20.28,28.2-32.18,24.36-.82-.27-1.2,1-.39,1.28,11.39,3.83,22.6-10.24,28.89-17.68,2.81-3.33,5.58-6.75,7.13-10.87,4.2-11.22,2.95-26.41,8.92-36.35l-.22-.14Z"
        fill="currentColor" />
      <path
        d="M296.66,92.06c3.54-6,7.74-11.3,10.89-17.64,3.07-6.17,3.57-14.37,8.62-19.24l-.46-.49c-5.01,3.91-5.8,8.85-7.31,14.58-2.15,8.13-7.28,15.87-11.96,22.65l.22,.14Z"
        fill="currentColor" />
      <path
        d="M293.49,100.58c-4,8.2-11.64,15.7-21.14,16.31-1.47,.09-1.23,2.25,.18,1.98,10.62-2.03,15.96-9.35,21.18-18.15l-.22-.14Z"
        fill="currentColor" />
      <path
        d="M293.49,100.58c-5.01,8.19-10.86,15.97-21.14,16.31-1.46,.05-1.25,2.21,.18,1.98,11.4-1.86,14.97-9.23,21.18-18.15l-.22-.14Z"
        fill="currentColor" />
      <path
        d="M277.67,97.93c-1.57,3.62-3.41,6.94-4.57,10.75-.91,3-1.28,6.09-1.79,9.18-.21,1.26,2.02,1.4,2,.08-.1-6.65,1.21-14.09,4.59-19.9l-.23-.11Z"
        fill="currentColor" />
      <path
        d="M300.9,109.76c-6.66,8.36-17.93,11.14-27.87,7.6-1.23-.44-1.84,1.63-.59,1.92,11.44,2.6,20.87-.72,28.65-9.36l-.2-.16Z"
        fill="currentColor" />
      <path
        d="M272.89,119.03c11.7,2.9,27.65,3.9,36.03-6.9,8.81-11.34,10.52-49.19,29.79-42.94l.2-.64c-11.27-3.56-20.27,4.79-21.87,16.27-1.15,8.28-3.64,15.76-7.58,23.1-6.95,12.95-24.22,11.55-36.53,10.85l-.04,.25Z"
        fill="currentColor" />
      <path
        d="M298.05,104.19c6.1-5.22,10.17-11.39,13.66-18.59,.99-2.05,1.88-4.16,2.68-6.29,2.99-7.98,12.21-25.74,24.18-10.2l.48-.46c-6.62-9.17-17.45-5.35-23.12,2.71-2.1,2.98-2.45,6.67-3.84,9.98-3.25,7.72-7.78,17.22-14.22,22.67l.18,.19Z"
        fill="currentColor" />
      <path
        d="M334.63,15.13c.97,9-.16,16.4-2.56,24.95-2.25,8-4.52,18.5-10.85,24.32-1.16,1.07,.54,2.87,1.68,1.78,6.2-5.93,8.5-15.98,10.38-24.01,.84-3.59,1.51-7.21,2.15-10.84,1-5.7-.27-10.61-.54-16.22l-.26,.02Z"
        fill="currentColor" />
      <path
        d="M336.56,56.83c-4.82-1.98-11.56,2.16-12.53,7.13-.11,.58,.61,1.23,1.1,.68,1.36-1.54,2.16-3.42,3.47-5.04,1.6-1.97,5.53-3.03,7.83-2.35l.13-.43Z"
        fill="currentColor" />
      <path
        d="M336.74,57.01c-1.65-.77-2.85-4.12-5.22-3.6-2.14,.47-4.69,2.41-5.19,4.61-.18,.81,.98,1.47,1.41,.64,.7-1.36,1.58-2.55,2.72-3.58,1.29-1.18,5.86-.02,6.09,2.07l.19-.14Z"
        fill="currentColor" />
      <path
        d="M219.95,161.6c8.8,13.82,13.49,27.08,14.66,43.5l.87,.03c-.21-7.06-1.25-14.08-3.02-20.91-2.24-8.65-7.95-15.21-12.34-22.72l-.18,.1Z"
        fill="currentColor" />
      <path
        d="M228.88,170.74c1.99,3.88,2.94,8.51,3.96,12.72,1.53,6.35,3.42,13.72,1.76,20.2l.67,.2c2.8-9.92-1.22-24.43-6.23-33.2l-.15,.08Z"
        fill="currentColor" />
      <path
        d="M157.16,110.56c18.39,9.9,30.89,36.43,46.68,51.27,14.88,13.98,24.67,27.22,30.87,47.05,.23,.75,1.43,.49,1.2-.27-4.74-15.27-11.33-30.19-23.43-40.85-10.42-9.18-21.39-18.7-29.09-30.37-8.08-12.23-12.54-20.46-26.12-26.99l-.11,.17Z"
        fill="currentColor" />
      <path d="M156.96,110.43c40.95,4.66,88.8,53.29,77.21,96.31l1.17,.36c11.81-41.7-36.06-97.08-78.37-96.87v.2Z"
        fill="currentColor" />
      <path d="M195,140.24c16.76,17.67,36.4,42.32,39.88,67.08l.86-.08c-1.53-25.6-24.29-49.06-40.6-67.14l-.15,.14Z"
        fill="currentColor" />
      <path d="M156.57,110.34c13.42,3.56,25.54,13.74,33.72,24.57l.14-.1c-8.91-12.53-19.84-19.47-33.8-24.66l-.06,.19Z"
        fill="currentColor" />
      <path
        d="M158.26,110.9c1.06-.8,7.21,2.15,8.19,2.54,7.33,2.96,14.17,7.14,20.53,11.79l.09-.15c-5.99-4.74-12.31-9.12-19.5-11.82l-9.28-2.46-.03,.1Z"
        fill="currentColor" />
      <path d="M158.15,110.9c11.06,5.24,21.26,12.2,27.1,23.28l.46-.25c-5.34-11.78-15.54-19.01-27.49-23.19l-.07,.16Z"
        fill="currentColor" />
      <path
        d="M141.34,449.57c8.75,2.03,17.37,3.84,25.04,8.85,5.42,3.54,10.89,7.51,15.74,11.79l.63-.6c-4.8-4.61-10.16-8.6-15.8-12.13-7.9-4.95-16.8-5.71-25.56-8.1l-.06,.19Z"
        fill="currentColor" />
      <path
        d="M153.97,449.81c4.36,1.45,8.5,4.25,12.34,6.68,5.32,3.36,11.51,7.15,14.77,12.69l.62-.33c-4.99-8.96-18-16.48-27.68-19.21l-.05,.17Z"
        fill="currentColor" />
      <path
        d="M61.79,457.22c13.66-4.37,26.46-.25,39.96,2.77,8.99,2.01,18.97,1.22,28.1,1.01,20.33-.48,36.72,1.9,54.99,11.81,.69,.37,1.34-.66,.64-1.04-14.66-7.98-30.02-13.42-46.74-12.53-13.12,.7-26.94,1.57-39.86-1.32-13.82-3.09-23.6-5.69-37.14-.9l.04,.2Z"
        fill="currentColor" />
      <path
        d="M61.56,457.27c31.98-25.52,99.82-23.92,121.39,14.42,.39,.69,1.46,.12,1.08-.58-11.48-21.03-35.31-28.92-57.84-31.85-20.23-2.63-50.22,3.1-64.77,17.86l.14,.15Z"
        fill="currentColor" />
      <path
        d="M108.97,451.84c12.3,.09,24.39,3.21,36.45,5.13,13.68,2.18,27.38,5.94,38.45,14.62l.55-.67c-8.93-8.25-20.26-11.5-31.98-13.78-14.32-2.79-28.87-4.69-43.45-5.5v.2Z"
        fill="currentColor" />
      <path d="M61.22,457.47c12.31-6.51,27.04-8.12,40.72-6.12l.03-.17c-14.62-2.57-27.77-.39-40.84,6.12l.1,.18Z"
        fill="currentColor" />
      <path
        d="M62.79,456.72c.76-1.71,5.99-3.31,7.49-3.94,7.17-3.04,14.88-4.82,22.56-5.98l-.04-.17c-7.42,.83-14.79,2.1-21.64,5.14-1.26,.56-7.2,5.14-8.43,4.83l.07,.13Z"
        fill="currentColor" />
      <path d="M62.71,456.77c11.39-4.04,23.45-6.2,35.21-2.41l.15-.5c-11.9-4.64-24.16-2.65-35.42,2.75l.06,.16Z"
        fill="currentColor" />
      <path
        d="M160.44,416.37c.99,9.17,.9,17.2,3.61,26.16,2.04,6.76,6.2,13.44,10.15,19.23,.32,.47,1.1,.08,.79-.42-8.95-14.33-13.17-28.18-14.34-44.99l-.21,.02Z"
        fill="currentColor" />
      <path
        d="M158.68,429.3c1.25,10.33,6.73,24.73,14.99,31.35l.45-.55c-4.98-4.18-7.6-10.72-10.21-16.51-2.03-4.48-4.23-9.43-5.05-14.33l-.18,.04Z"
        fill="currentColor" />
      <path
        d="M180.97,336.28c-6.39,11.9-5.98,18.67-5.33,32.25,.69,14.54-1.12,27.99-3.91,42.32-3.73,19.19-2.25,35.19,4.21,54.01,.26,.76,1.49,.49,1.23-.27-6.82-20.03-7.12-37.62-3.15-58.01,4.24-21.83-2.55-50.76,7.13-70.19l-.18-.11Z"
        fill="currentColor" />
      <path
        d="M181.1,335.99c-17.78,12.87-26.21,41.06-28.41,62.13-2.43,23.29,4.13,50.4,22.9,65.28,.56,.44,1.34-.52,.79-.97-35.11-28.57-26.3-97.54,4.87-126.29l-.14-.15Z"
        fill="currentColor" />
      <path
        d="M167.93,383.64c-2.4,24.72-6.84,57.94,7.32,80.02,.31,.48,1.07,.1,.79-.42-12.15-22.76-10.97-54.58-7.91-79.59h-.21Z"
        fill="currentColor" />
      <path
        d="M181.33,335.72c-2.83,4.32-5.57,8-7.69,12.79-3.84,8.67-5.26,18.47-5.05,27.89h.18c.08-13.76,3.89-29.59,12.74-40.57l-.18-.11Z"
        fill="currentColor" />
      <path
        d="M180.37,337.23c.17,.47-5.43,6.64-5.83,7.21-4.52,6.53-7.02,14.29-9.07,21.88l.17,.05c2.36-7.55,5.45-14.76,9.4-21.62,.63-1.09,3.94-7.41,5.42-7.44l-.1-.08Z"
        fill="currentColor" />
      <path d="M180.39,337.16c-7.28,10.59-11.3,22.88-8.46,35.72l.53-.12c-1.99-12.54,2.18-24.58,8.09-35.51l-.15-.09Z"
        fill="currentColor" />
      <path
        d="M77.64,389.12s1.31,.51,3.75,1.46c2.43,.91,6.07,2.53,10.49,4.69,8.87,4.33,21.14,11.33,35,20.98,27.64,19.26,61.6,49.89,86.84,87.47,6.2,9.42,12.14,19.06,17,29.07,5.06,9.91,9.17,20.1,12.5,30.18,1.57,5.07,3.19,10.04,4.26,15.05,1.32,4.95,2.2,9.87,2.96,14.69,1.6,9.62,2.17,18.85,2.26,27.36-.07,8.51-.5,16.32-1.52,23.17-.72,6.89-2.39,12.72-3.45,17.56-1.32,4.78-2.71,8.43-3.58,10.93-.92,2.49-1.4,3.81-1.4,3.81l-2.46-.81s.29-1.37,.82-3.93c.48-2.57,1.53-6.24,2.49-10.99,.68-4.8,2.29-10.48,2.85-17.21,1.03-6.66,1.48-14.26,1.58-22.54-.06-8.28-.56-17.28-2.09-26.66-.73-4.7-1.56-9.51-2.83-14.35-1.02-4.9-2.58-9.76-4.09-14.73-3.22-9.87-7.2-19.88-12.13-29.64-4.72-9.86-10.53-19.37-16.6-28.68-24.65-37.23-58.35-67.5-85.35-87.05-13.6-9.73-25.64-16.81-34.32-21.19-4.36-2.19-7.74-3.76-10.22-4.73-2.43-.98-3.73-1.51-3.73-1.51l.95-2.41Z"
        fill="currentColor" />
      <path
        d="M111.49,364.46l1.76-1.9c18.59,17.2,27.37,38.61,34.43,55.83,3.74,9.12,6.96,16.99,11,23.1l-2.17,1.42c-4.16-6.35-7.43-14.31-11.22-23.54-7.33-17.85-15.62-38.1-33.8-54.91Z"
        fill="currentColor" />
      <path
        d="M69.88,331.71c8.44,9.24,11.75,22.43,19.77,32.16,5.23,6.35,16.41,8.74,22.69,2.79,.89-.84-.42-2.22-1.3-1.38-7.15,6.78-16.87,1.17-21.66-4.6-3.39-4.09-5.83-9.14-8.33-13.8-3.05-5.7-5.88-11.25-11.07-15.3l-.11,.13Z"
        fill="currentColor" />
      <path
        d="M72.94,328.88c2.61,4.67,8.18,5.52,12.98,6.83,4.89,1.34,9.73,2.7,14.45,4.56,7.16,2.82,24.99,15.03,11.58,24.6-1.02,.73,.05,2.2,1,1.39,8.9-7.6,3.77-17.61-4.06-23.46-5.3-3.96-12.24-5.8-18.51-7.49-4.71-1.27-14.23-2.16-17.26-6.51l-.18,.09Z"
        fill="currentColor" />
      <path
        d="M95.57,363.39c3.9,2.87,7.74,5.61,12.83,4.7,1.15-.21,4.45-1.19,4.21-2.87-.16-1.09-1.95-.71-1.68,.38-.16-.68-.18-.17-.85,.28-.87,.59-1.87,.92-2.89,1.15-4,.9-8.55-1.22-11.48-3.8l-.13,.15Z"
        fill="currentColor" />
      <path
        d="M99.22,362.64c3.5,1.92,6.8,3.84,10.89,3.96,.74,.02,3.31,.01,3.21-1.28-.11-1.27-1.95-1.05-1.7,.15-.19-.9,.68-.83-.42-.5-.87,.25-1.79,.28-2.68,.28-3.15,0-6.55-1.17-9.19-2.79l-.1,.17Z"
        fill="currentColor" />
      <path
        d="M102.7,351.82c2.82,2.29,4.98,5.35,6.86,8.44,.54,.88,1.01,1.79,1.47,2.71l.47,1c.39,.86-.02,.71,.55,.02-.8,.97,.65,2.11,1.33,1.08,.67-1.03-1.33-3.28-1.81-3.99-2.43-3.63-5.52-6.48-8.72-9.4l-.15,.14Z"
        fill="currentColor" />
      <path
        d="M72.94,328.88c6.86,17.86,34.88,15.1,39.38,35.83,.24,1.09,1.95,.7,1.68-.38-2.01-8.03-7.49-12.8-14.36-16.92-8.13-4.88-23.59-8.28-26.51-18.6l-.19,.07Z"
        fill="currentColor" />
      <path
        d="M69.92,331.75c12.42,5.3,20.96,15.58,29.68,25.43,3.36,3.79,7.6,9,13.22,8.28,1.1-.14,.72-1.86-.38-1.68-7.31,1.17-15.7-11.54-20.12-16.1-6.57-6.77-13.79-12.08-22.32-16.11l-.08,.18Z"
        fill="currentColor" />
      <path
        d="M108.34,346.43c3.96,2.79,5.86,7.48,5.88,12.19,.01,2.52-.8,4.14-2.36,6.04-.69,.84,.31,1.98,1.19,1.25,6.74-5.55,.74-15.47-4.6-19.65l-.11,.17Z"
        fill="currentColor" />
      <path d="M84.18,336.25c-3.95-.6-8.07-3.94-10.58-6.94l-.38,.36c2.88,3.84,6.32,5.71,10.92,6.79l.03-.2Z"
        fill="currentColor" />
      <path
        d="M81.65,347.92c-1.68-2.43-2.3-5.7-3.57-8.38-1.65-3.5-4.77-6.12-8-8.11l-.27,.44c5.87,3.89,8.85,9.92,11.66,16.14l.18-.09Z"
        fill="currentColor" />
      <path
        d="M84.71,343.45c-2.2-1.95-3.89-4.43-5.88-6.6-2.06-2.25-5.18-3.65-7.9-4.89l-.27,.44c5.41,2.7,9.78,6.79,13.9,11.18l.15-.14Z"
        fill="currentColor" />
      <path
        d="M220.95,329.53c.67-66.24-77.98-136.27-140.99-100.48-.81,.46-.15,1.71,.68,1.28,39.48-20.39,72.88-3.3,103.56,22.99,22.64,19.39,32.03,47.73,36.52,76.24l.24-.02Z"
        fill="currentColor" />
      <path
        d="M221.4,333.02c-25.36-26.01-44.49-62.53-73.04-84.63-18.77-14.53-41.88-28.42-66.09-20.12-.72,.25-.52,1.33,.26,1.18,30.11-5.89,58.68,12.66,77.16,35.16,20.01,24.35,38.07,47.5,61.49,68.6l.2-.19Z"
        fill="currentColor" />
      <path d="M214.17,324.28c-18.8-36.36-44.94-79.66-86.96-91.5l-.14,.46c41.16,16.52,64.25,55.31,86.85,91.17l.25-.13Z"
        fill="currentColor" />
      <path
        d="M200,278.57c7.06,8.07,10.05,20.08,13.03,30.11,2.16,7.26,4.45,14.69,5.65,22.18,.2,1.24,2.06,.8,1.89-.42-2.6-17.95-9.76-37.34-20.36-52.06l-.2,.19Z"
        fill="currentColor" />
      <path
        d="M194.68,281.82c5.42,7.54,8.85,17.05,12.51,25.52,2.64,6.12,6.24,12.78,7.73,19.31,.28,1.22,2.13,.8,1.89-.42-3.13-15.73-14.33-30.75-21.9-44.57l-.23,.16Z"
        fill="currentColor" />
      <path
        d="M187.28,267.29c15.19,14.33,23.97,40.12,27.77,60.36,.23,1.23,2.09,.8,1.89-.42-3.56-21.39-14.57-44.51-29.46-60.14l-.2,.19Z"
        fill="currentColor" />
      <path
        d="M234.99,197.83c1.13-6.12,2.87-12.48,4.71-19.21,6.86-25.06,15.39-56.25-3.55-97.07l2.35-1.09c19.34,41.68,10.67,73.37,3.7,98.84-1.83,6.68-3.56,12.99-4.66,19l-2.54-.47Z"
        fill="currentColor" />
      <path
        d="M274.65,119s-1.15,.12-1.6,1.21c-.5,1.06-1.25,2.63-2.22,4.68-1.95,4.1-4.81,10.1-8.45,17.75-1.82,3.82-3.83,8.05-6.03,12.66-1.88,4.72-3.92,9.82-6.1,15.27-2.16,5.45-4.47,11.26-6.89,17.38-2.25,6.18-4.1,12.87-6.31,19.75-2.13,6.9-4.6,14.03-6.01,21.7-1.56,7.62-3.68,15.41-4.93,23.57-.97,8.2-2.24,16.61-3.05,25.23-.14,8.66-.84,17.52-.53,26.51,.81,18,2.86,36.5,7.24,55.02,4.15,18.52,9.25,37.13,14.17,55.88,4.94,18.72,9.65,37.55,13.42,56.29,1.86,9.38,3.72,18.68,4.96,27.98,.66,4.64,1.48,9.23,2.01,13.83,.45,4.61,.9,9.19,1.34,13.72,1.74,18.16,1.93,35.86,1.05,52.58-.08,2.09-.16,4.17-.23,6.23-.24,2.05-.48,4.09-.71,6.11-.47,4.04-.94,8.03-1.39,11.94-.62,7.88-2.58,15.28-3.96,22.46-.74,3.58-1.47,7.09-2.17,10.52-1.01,3.35-1.99,6.63-2.95,9.82-2,6.36-3.69,12.47-5.65,18.08-4.68,10.92-8.24,20.71-12.1,28.31-8.05,15.06-12.65,23.66-12.65,23.66l-4.44-2.67s4.55-8.45,12.51-23.24c3.83-7.47,7.33-17.07,11.98-27.79,1.95-5.5,3.62-11.51,5.6-17.75,.95-3.14,1.93-6.35,2.94-9.65,.71-3.37,1.43-6.82,2.16-10.34,1.38-7.06,3.34-14.33,3.96-22.08,.46-3.85,.93-7.77,1.41-11.75,.24-1.99,.48-3.99,.72-6.01,.08-2.03,.16-4.08,.24-6.14,.92-16.48,.78-33.94-.89-51.91-.42-4.49-.85-9.02-1.29-13.58-.51-4.55-1.3-9.11-1.95-13.71-1.2-9.22-3.02-18.46-4.84-27.77-3.69-18.63-8.32-37.38-13.19-56.09-4.85-18.69-9.93-37.45-14.05-56.12-4.34-18.6-6.4-37.51-7.15-55.75-.28-9.13,.45-18.11,.62-26.9,.84-8.74,2.15-17.25,3.17-25.56,1.29-8.26,3.45-16.13,5.05-23.83,1.46-7.75,3.96-14.93,6.13-21.89,2.25-6.93,4.14-13.67,6.43-19.9,2.47-6.17,4.81-12.03,7.01-17.53,2.21-5.49,4.29-10.64,6.2-15.39,2.21-4.6,4.23-8.83,6.06-12.64,3.66-7.63,6.54-13.63,8.5-17.72,.98-2.04,1.73-3.61,2.24-4.67,.57-1.03-.06-2-.06-2l4.68,2.23Z"
        fill="currentColor" />
      <path
        d="M.09,368.1c20.9-7.86,83.34-20.17,77.16,21.51-.2,1.36,1.92,1.42,2.12,.08,6.4-43.19-57.69-32.96-79.38-21.77l.09,.17Z"
        fill="currentColor" />
      <path
        d="M.38,374.26c7.54-1.19,18.47,10.55,23.34,14.64,6.72,5.63,13.47,11.43,21.39,15.31,12.37,6.06,27.12-2.68,33.7-13.08,.67-1.06-1.05-2.11-1.64-1.01-4.89,9.06-17.06,15.72-27.68,13.49-7.66-1.61-14.79-8.14-20.71-12.87-7.28-5.82-17.98-18.73-28.44-16.7l.05,.22Z"
        fill="currentColor" />
      <path
        d="M63.35,366.38c7.69,2.24,15.09,13.12,13.42,21.27-.28,1.37,1.7,1.7,1.89,.32,1.28-9.54-7.15-18.48-15.24-21.81l-.07,.21Z"
        fill="currentColor" />
      <path
        d="M47.45,386.86c7.1,2.09,23.73,10.67,30.14,2.87,.89-1.08-.67-2.34-1.49-1.21-2.54,3.51-7.88,2.72-11.59,2.28-5.7-.68-11.6-2.25-17-4.16l-.07,.22Z"
        fill="currentColor" />
      <path
        d="M40.66,386.35c10.69,4.76,27.16,16.58,37.17,4.67,.9-1.07-.64-2.32-1.49-1.21-8.42,11.05-26.12,1.1-35.59-3.67l-.09,.2Z"
        fill="currentColor" />
      <path
        d="M60.56,374.07c3.01,.81,6.11,3.36,8.55,5.2,2.02,1.52,3.82,3.33,5.15,5.49,1.11,1.79,.71,3.63,1.2,5.52,.18,.7,1.01,.77,1.41,.24,2.44-3.24-1.39-7.58-3.73-9.65-3.73-3.3-8.52-4.29-12.49-6.99l-.09,.2Z"
        fill="currentColor" />
      <path
        d="M50.63,397.8c10.01,3.28,22.7,4.71,28.17-6.66,.53-1.11-.92-2.06-1.64-1.01-3.37,4.89-6.67,7.91-12.62,9.1-4.39,.88-9.79,.18-13.84-1.64l-.07,.21Z"
        fill="currentColor" />
      <path
        d="M.38,374.26c6.09-2.22,14.2,.84,19.76,3.26l.24-.52c-3.24-1.55-6.82-3.27-10.42-3.65-3.42-.36-6.28,.22-9.62,.7l.05,.22Z"
        fill="currentColor" />
      <path
        d="M.84,371.37c18.71,1.6,32.43,15.78,48.16,24.36,10.92,5.95,20.42,4.38,28.36-5.2l-.4-.42c-12.44,14.74-26.04,6.28-39.15-2.43-11.66-7.74-22.95-14.44-36.96-16.54v.22Z"
        fill="currentColor" />
      <path
        d="M28.48,366.55c-9.21,1.62-18.5-.74-27.65,.67l.13,.56c3.81-.48,7.62-.01,11.43,.23,5.47,.35,10.74-.57,16.14-1.24l-.05-.22Z"
        fill="currentColor" />
      <path
        d="M.87,371.37c9.44-1.55,18.86-3.36,28.35-4.66,15.53-2.12,46.95-2.51,47.54,20.9l.58,.02c-.24-14.4-16.19-21.66-28.67-22.79-16.44-1.48-31.74,6.21-47.82,6.31l.02,.22Z"
        fill="currentColor" />
      <path
        d="M212.29,23.78c-3.98-4.09-7.9-7.85-12.58-11.15-4.31-3.04-10.04-5.04-13.26-9.4l-.69,.5c6.26,9.06,19.31,11.67,26.29,20.28l.24-.23Z"
        fill="currentColor" />
      <path
        d="M223.48,57.47c-3.8-7.36-7.38-14.38-13.12-20.42-3.43-3.61-8.06-6.47-10.93-10.57l-.76,.4c2.22,3.38,5.67,5.93,8.53,8.75,6.41,6.32,12.24,13.8,15.99,22l.3-.16Z"
        fill="currentColor" />
      <path
        d="M224.01,45.48c-4.69-4.79-8.78-9.62-14.74-12.86-3.1-1.68-7.36-2.65-9.47-5.67l-.76,.4c1.65,2.56,4.46,3.68,7.09,5.01,6.48,3.29,12.92,7.83,17.64,13.35l.24-.23Z"
        fill="currentColor" />
      <path
        d="M223.36,41.76c-4.02-3.58-7.59-7.57-12.62-9.76-3.62-1.58-7.54-2.58-10.72-5.01l-.54,.66c2.28,1.89,4.89,3,7.59,4.14,5.77,2.44,11.72,5.61,16.05,10.19l.24-.23Z"
        fill="currentColor" />
      <path
        d="M236.47,53.71c4.16,4.95,4.29,11.97,2.92,17.97-.38,1.66-.96,3.27-1.59,4.85-.26,.65-.57,1.28-.89,1.91-.82,1.59-.44-.03,.95,.72-1.38-.75-2.67,1.32-1.28,2.08h.02c.64,.36,1.25,.16,1.68-.39,1.98-2.49,2.47-6.85,2.88-9.87,.91-6.59-.98-11.98-4.47-17.45l-.23,.16Z"
        fill="currentColor" />
      <path
        d="M229.33,50.78c5.82,4.69,8.12,11.77,8.29,19,.05,2.16-.21,4.34-.58,6.46-.24,1.36-1.4,3.14-.08,2.77-1.51,.43-.98,2.82,.53,2.39,2.54-.72,1.9-8.59,1.86-10.28-.2-8.42-3.85-14.91-9.84-20.57l-.18,.22Z"
        fill="currentColor" />
      <path
        d="M208.33,62.22c4.03,8.1,9.08,13.79,17.62,17.2,2.11,.84,9.91,3.83,12.1,1.67,1.13-1.12-.65-2.95-1.68-1.78,.37-.41-1.8-.1-2.72-.15-2.45-.14-4.85-.68-7.2-1.36-7.82-2.25-14.96-8.02-17.87-15.72l-.25,.13Z"
        fill="currentColor" />
      <path
        d="M220.03,68.39c.41,.4,16.77,18.26,18.36,12.17,.45-1.7-2.14-2.17-2.39-.41,.2-1.41,1.05-.65-.53-1.02-1.18-.28-2.28-.84-3.35-1.4-4.37-2.33-8.67-5.81-11.88-9.54l-.21,.2Z"
        fill="currentColor" />
      <path
        d="M211.89,15.99c-1.73,7.7,3.43,17.08,9.38,21.65,1.07,.82,2.18-.98,1.1-1.78-5.2-3.89-10.61-13.17-10.29-19.84l-.19-.03Z"
        fill="currentColor" />
      <path
        d="M198.17,25.99c6.85,10.48,1.84,26.48,5.76,38.36,4.67,14.17,19.84,17.49,32.99,18.2,1.35,.07,1.43-2.03,.08-2.09-11.24-.57-22.17-2.42-29.05-12.23-4.19-5.98-4.71-14.69-5.24-21.71-.52-6.93-.12-14.77-4.4-20.63l-.15,.11Z"
        fill="currentColor" />
      <path
        d="M186.38,34.06c9.92,10.54,11.01,26.44,18.74,38.44,7.48,11.6,20.16,12.73,32.62,10.14,1.33-.28,.86-2.33-.46-2.05-36.88,7.83-31.67-28.38-50.77-46.67l-.14,.13Z"
        fill="currentColor" />
      <path
        d="M198.2,26.03c8.44,5.22,17.89,8.5,26.63,13.18,17.28,9.26,19.69,23.75,12.48,41.28-.51,1.25,1.5,1.86,2.01,.61,5.34-13.14,7.11-25.74-3.43-36.52-9.73-9.96-25.76-12.21-37.59-18.71l-.1,.16Z"
        fill="currentColor" />
      <path
        d="M211.89,16.04c2.18,7.56,7.98,12.24,14,16.9,4.93,3.82,9.86,7.51,14.04,12.17,9.87,10.99,3.12,25.31-3.31,35.95-.7,1.16,1.09,2.26,1.79,1.1,6.84-11.42,12.19-23.81,4.64-36.12-7.75-12.64-25.91-15.3-30.97-30.05l-.19,.04Z"
        fill="currentColor" />
      <path
        d="M186.65,33.95l-.18,.1,.05,.21c5.66,.05,11.81,5.07,14.68,9.48,.6,.93,2.14,.09,1.51-.81-2.38-3.42-5.49-6.2-9.37-7.8-1.25-.52-5.58-1.87-6.58-1.04l-.11-.15Z"
        fill="currentColor" />
      <path
        d="M186.05,3.58c2.95,6.32,6.66,11.48,12.52,15.38,5.62,3.75,11.14,6.01,16.06,10.91,.71,.71,1.69-.28,1.11-1.05-3.18-4.17-7.33-6.6-11.98-8.87-7.71-3.77-12.69-9.46-17.54-16.45l-.17,.09Z"
        fill="currentColor" />
      <path
        d="M185.82,3.47c9.45,4.38,18.39,8.73,25.17,16.87,.55,.67,1.65-.14,1.23-.88-4.99-8.75-16.98-14.1-26.32-16.16l-.08,.17Z"
        fill="currentColor" />
      <path
        d="M185.78,3.41c1.13,11.61-2.76,22.72,6.28,32.25,.58,.61,1.72-.15,1.23-.88-3.88-5.72-6.14-10.78-6.28-17.78-.09-4.75,.37-9.02-1.04-13.63l-.19,.04Z"
        fill="currentColor" />
    </g>
  </g>
</svg>
