<?xml version="1.0" encoding="UTF-8"?><svg xmlns="http://www.w3.org/2000/svg" viewBox="0 0 501.66 938.64">
  <g id="a">
    <rect x="-179.6" y="-168.61" width="3652.73" height="1266.84" fill="none" />
  </g>
  <g id="b">
    <g>
      <g>
        <path
          d="M288.81,566.46c.32,15.63-1.36,33.26-7.81,47.86-.17,.38,.39,.68,.57,.3,7.21-15.11,7.23-31.95,7.39-48.16,0-.1-.15-.09-.15,0h0Z"
          fill="currentColor" />
        <path
          d="M291.48,578.64c-.25,4.83-1.56,9.75-2.65,14.44-1.52,6.51-3,13.2-5.8,19.31-.14,.3,.31,.54,.45,.24,4.78-10,7.91-22.87,8.12-33.99,0-.08-.12-.08-.13,0h0Z"
          fill="currentColor" />
        <g>
          <path
            d="M263.92,491.83c8.09,14.57,5.29,28.44,7.3,43.72,1.32,10.01,4.21,19.95,6.96,29.65,4.78,16.9,4.89,37.11,2.13,54.57-.09,.57,.78,.78,.88,.2,2.62-16.48,2.8-34.97-.89-51.14-3.17-13.92-7.59-26.9-8.68-41.27-1.05-13.84-.32-23.69-7.56-35.81-.05-.08-.17,0-.13,.08h0Z"
            fill="currentColor" />
          <path
            d="M263.81,491.61c35.4,28.5,35.58,84.68,18.94,122.54-.23,.53,.56,.95,.8,.42,10.08-22.37,14.89-47.92,9.5-72.22-3.93-17.73-13.81-40.61-29.15-50.86-.07-.05-.15,.07-.09,.12h0Z"
            fill="currentColor" />
          <path
            d="M279.43,535.9c4.79,23.69,8.59,55,1.55,78.5-.12,.4,.49,.52,.63,.15,8.45-23.16,2.27-55.09-2.03-78.69-.02-.09-.16-.05-.14,.04h0Z"
            fill="currentColor" />
          <path
            d="M263.56,491.34c8.74,10.58,13.33,24.13,14.69,37.69,0,.08,.13,.08,.13,0-1.13-14.32-5.86-26.63-14.7-37.77-.06-.08-.19,0-.13,.08h0Z"
            fill="currentColor" />
          <path
            d="M264.56,492.66c2.08,.72,4.41,5.03,5.53,6.69,4.19,6.17,7.42,12.92,10.1,19.86,.03,.08,.15,.04,.12-.04-2.48-7.03-5.37-14.05-9.87-20.05-.92-1.23-5.68-5.1-5.8-6.54-.01-.17-.26,.02-.09,.08h0Z"
            fill="currentColor" />
          <path
            d="M264.53,492.63c6.38,10.16,10.84,21.08,10.19,33.27-.01,.25,.36,.23,.39-.01,1.22-12.4-3.13-23.5-10.46-33.33-.05-.07-.15,0-.11,.07h0Z"
            fill="currentColor" />
        </g>
      </g>
      <g>
        <path
          d="M226.19,725.74c10.17-28.94,28.54-54.44,55.36-69.68,36.96-20.99,77.97-28.56,111.86,1.01,.58,.5,1.37-.35,.8-.88-29.7-27.57-64.3-24.77-100.13-8.4-32.16,14.69-60.5,42.08-68.08,77.91-.03,.13,.15,.16,.19,.05h0Z"
          fill="currentColor" />
        <path
          d="M224.83,729.39c24.88-15.02,47.2-30.65,70.04-48.84,17.75-14.13,74.88-50.64,96.64-24.9,.37,.44,1.05-.17,.75-.63-13.48-21.2-59.29-2.09-75.89,6.64-14.1,7.42-26.45,19.07-38.42,29.47-16.58,14.42-35.03,26.08-53.25,38.07-.12,.08,0,.27,.12,.19h0Z"
          fill="currentColor" />
        <path
          d="M234.35,722.09c31.2-31.51,64.63-66.32,110.64-72.95,.25-.04,.25-.41-.01-.4-45.86,2.73-82.56,40.58-110.8,73.19-.1,.11,.07,.26,.17,.16h0Z"
          fill="currentColor" />
        <path
          d="M259.35,678.2c-14.27,12.48-26.18,30.91-32.98,48.59-.36,.94,1.02,1.69,1.4,.74,3.04-7.62,7.34-14.88,11.39-21.99,5.28-9.25,11.38-20.92,20.33-27.17,.13-.09-.02-.29-.15-.18h0Z"
          fill="currentColor" />
        <path
          d="M264.02,682.79c-6.89,7.71-13.91,15.2-20.4,23.29-4.25,5.29-9.62,10.98-12.41,17.27-.41,.93,.96,1.67,1.4,.74,3.12-6.65,8.85-12.99,13.2-18.84,5.61-7.54,11.27-16.09,18.37-22.3,.11-.1-.07-.27-.17-.16h0Z"
          fill="currentColor" />
        <path
          d="M275.08,669.63c-18.74,12.23-35.75,33.87-44.24,54.72-.38,.93,1,1.69,1.4,.74,8.46-19.84,24.06-44.42,42.96-55.27,.13-.07,0-.28-.12-.19h0Z"
          fill="currentColor" />
      </g>
      <path
        d="M147.24,937.26c96.21-216.68,127.5-377.37,98.47-505.71-.27-1.2-1.39-4.49-2.38-7.38-.96-2.83-1.86-5.5-2.17-6.71l3.31-.82c.26,1.08,1.19,3.79,2.09,6.43,1.12,3.27,2.16,6.35,2.47,7.73,29.2,129.08-2.16,290.45-98.67,507.83l-3.12-1.38Z"
        fill="currentColor" />
      <path
        d="M215.29,470.48l3.04-1.54c5.34,10.55,12.46,17.66,19.35,24.54,8.82,8.81,17.15,17.13,21.66,31.76l-3.26,1.01c-4.26-13.82-12.3-21.85-20.81-30.35-7.07-7.07-14.39-14.38-19.98-25.42Z"
        fill="currentColor" />
      <path
        d="M114.53,579.61l1.69-2.97,.55,.31c28.51,16.23,104.24,59.35,106.83,163.62l-3.41,.09c-2.55-102.36-77.06-144.78-105.11-160.74l-.55-.31Z"
        fill="currentColor" />
      <g>
        <path d="M108.81,578.61c.04,.12,.22,.06,.19-.06-.04-.12-.22-.06-.19,.06h0Z" fill="currentColor" />
        <g>
          <path
            d="M171.22,575.64c.22,10.72-1.02,20.93,1.86,31.47,2.23,8.18,6.04,16.31,10.23,23.66,.27,.47,.95,.02,.7-.45-9.48-17.95-12.78-34.52-12.6-54.69,0-.12-.2-.12-.19,0h0Z"
            fill="currentColor" />
          <path
            d="M167.83,590.85c.51,12.26,5.66,29.92,14.86,38.43,.31,.29,.76-.19,.45-.49-5.75-5.52-8.4-13.94-10.89-21.31-1.78-5.26-3.82-11.05-4.25-16.63,0-.11-.17-.1-.17,0h0Z"
            fill="currentColor" />
          <g>
            <path
              d="M203.77,482.2c-9.87,15.27-8.51,27.02-9.68,44.76-1.05,15.98-5.14,31.3-9.66,46.63-6,20.37-4.85,40.47,.71,61.06,.2,.73,1.31,.38,1.11-.34-6.16-22.78-5.58-42.64,.77-64.87,3.24-11.34,6.55-22.96,7.94-34.71,2.18-18.42-1.29-35.68,8.96-52.42,.07-.11-.1-.19-.17-.09h0Z"
              fill="currentColor" />
            <path
              d="M203.98,481.85c-21.9,13.23-36.44,46.68-40.03,71.38-4,27.56-.99,59.9,20.78,79.4,.56,.5,1.34-.35,.79-.86-39.1-35.72-22.02-120.51,18.56-149.76,.1-.07,0-.23-.1-.16h0Z"
              fill="currentColor" />
            <path
              d="M183.45,537.36c-5.42,29.29-13.65,68.04,.94,95.74,.22,.41,.94,.08,.75-.35-12.55-27.92-7.46-66.26-1.5-95.35,.03-.12-.17-.17-.19-.04h0Z"
              fill="currentColor" />
            <path
              d="M204.27,481.54c-11.22,14.15-18.1,28.75-19.31,47.29,0,.11,.16,.1,.17,0,1.48-16.77,7.7-34.61,19.29-47.16,.09-.09-.07-.23-.14-.13h0Z"
              fill="currentColor" />
            <path
              d="M202.97,483.24c.06,.54-2.29,2.21-2.65,2.56-2.06,2.01-3.95,4.19-5.71,6.47-5.57,7.26-9.26,15.79-12.41,24.33-.03,.09,.12,.15,.15,.06,3.6-8.96,8.02-17.64,13.74-25.45,1.07-1.46,4.86-7.63,6.97-7.88,.29-.03-.13-.35-.1-.09h0Z"
              fill="currentColor" />
            <path
              d="M203.01,483.18c-9.54,11.99-15.63,26.15-13.65,41.7,.04,.31,.53,.31,.5-.02-1.23-15.24,4.97-29.18,13.28-41.59,.05-.08-.08-.17-.14-.1h0Z"
              fill="currentColor" />
          </g>
        </g>
        <g>
          <path
            d="M204.75,660.86c-30.61-49.57-122.19-65.9-152.7-9.58-.31,.57,.56,1.02,.88,.47,19.03-32.68,54.14-37.61,88.7-31.19,25.68,4.77,46.68,20.35,62.97,40.39,.07,.08,.2,0,.14-.09h0Z"
            fill="currentColor" />
          <path
            d="M206.73,663.3c-16.1-4.16-32.15-7.84-47.81-13.78-15.2-5.77-30.02-13.38-46.32-15.4-15.65-1.94-54.4-4.57-59.32,15.7-.11,.45,.6,.74,.77,.29,11.89-30.32,74.17-10.15,94.04-2.77,19.48,7.23,38.43,11.76,58.59,16.15,.12,.03,.16-.16,.04-.19h0Z"
            fill="currentColor" />
          <path
            d="M197.22,660.09c-31.37-18.28-70.78-38.39-108.03-28.12-.21,.06-.11,.36,.1,.32,38.4-7.21,74.46,11.39,107.84,27.97,.11,.06,.2-.11,.09-.17h0Z"
            fill="currentColor" />
          <path
            d="M165.24,632.32c8.91,2.64,16.86,10.17,23.66,16.18,5.13,4.53,10.47,9.11,14.94,14.3,.56,.65,1.44-.34,.9-.98-10.24-12.19-24.66-23.67-39.44-29.68-.13-.05-.2,.14-.07,.18h0Z"
            fill="currentColor" />
          <path
            d="M162.75,637.24c7.36,2.96,14.23,8.31,20.73,12.77,5.02,3.45,11.32,6.93,15.58,11.38,.6,.62,1.48-.36,.9-.98-3.91-4.26-9.8-7.34-14.61-10.4-7.34-4.66-14.97-8.66-22.51-12.94-.11-.06-.2,.13-.09,.17h0Z"
            fill="currentColor" />
          <path
            d="M150.42,629.79c17.9,3.34,37.2,18.88,49.2,32.3,.57,.64,1.46-.34,.9-.98-12.41-14.34-31.8-26.83-50.06-31.51-.12-.03-.17,.17-.04,.19h0Z"
            fill="currentColor" />
        </g>
      </g>
      <g>
        <path
          d="M501.54,484.14c-11.86,4.83-21.53,12.51-31.45,20.4-20.47,16.27-40.02,21.44-60.87,3.07-1-.88-2.4,.64-1.4,1.52,36.49,32.16,61.78-7.7,93.8-24.83,.09-.05,.02-.21-.08-.17h0Z"
          fill="currentColor" />
        <path
          d="M501.56,484.13c-16.66,1.01-31.82,5.42-47.37,11.47-13.87,5.39-28.92,13.97-44.25,11.42-.83-.14-1.12,1.05-.3,1.28,10.16,2.9,20.35-1.41,29.8-5.06,20.62-7.97,40.09-15.4,62.13-18.91,.12-.02,.12-.2,0-.19h0Z"
          fill="currentColor" />
        <path
          d="M496.68,472.78c-13.83,13.21-35.33,7.31-52.43,10.04-15.92,2.55-27.4,10.99-35.55,24.71-.27,.45,.44,.97,.76,.54,15.74-21.63,33.43-23.91,58.25-24.77,11.59-.4,20.79-1.8,29.13-10.37,.1-.1-.06-.24-.16-.15h0Z"
          fill="currentColor" />
        <path
          d="M496.7,472.76c-9.36,6.08-27.72-1.84-37.63-3.39-9.56-1.5-19.7-2.44-29.11,.46-17.9,5.51-22.15,21.2-22.39,38.58-.02,1.21,1.93,1.16,1.88-.06-1.42-34.68,26.94-41.45,55.73-36.14,9.44,1.74,22.99,7.41,31.63,.74,.11-.08,0-.26-.12-.18h0Z"
          fill="currentColor" />
        <path
          d="M501.08,477.42c-3.03,.79-6.52,.68-9.64,1.05-3.86,.46-7.57,1.11-11.25,2.38-.69,.24-.37,1.24,.33,1.08,3.88-.9,7.71-1.96,11.62-2.75,2.83-.58,6.1-1.63,8.98-1.54,.15,0,.13-.26-.04-.21h0Z"
          fill="currentColor" />
        <path
          d="M501.05,477.44c-1.98,1.14-3.4,2.41-5.11,3.93-3.76,3.34-8.11,4.54-13.01,5.27-.7,.1-.71,1.16,.03,1.13,4.33-.19,8.2-1.4,11.54-4.24,1.94-1.65,4.01-5.45,6.65-5.9,.14-.02,.06-.28-.09-.2h0Z"
          fill="currentColor" />
        <path
          d="M436.21,515.52c-5.27,2.85-12.5,.17-17.44-2.19-1.83-.87-3.62-1.85-5.33-2.94-.93-.59-2.8-2.45-2.94-1.54,.2-1.34-1.74-1.55-1.86-.19-.2,2.3,8.17,5.18,9.56,5.74,6.01,2.41,11.9,3.5,18.09,1.33,.15-.05,.05-.27-.09-.2h0Z"
          fill="currentColor" />
        <path
          d="M438.55,509.11c-5.58,2.92-13.26,1.77-19.14,.62-2.19-.43-4.37-.95-6.51-1.59-.63-.19-1.25-.39-1.88-.59-.9-.29-1.22-.88-1.01-.08-.3-1.17-2.17-.6-1.8,.55,.72,2.19,8.59,2.57,10.29,2.81,6.92,.97,13.56,.93,20.14-1.53,.15-.06,.05-.27-.09-.2h0Z"
          fill="currentColor" />
        <path
          d="M442.78,493.64c-6.2,5.36-13.97,8.63-21.86,10.59-2.25,.56-8.91,2.65-10.49,1.78-1.06-.59-1.97,1.13-.88,1.66,2.23,1.08,8.12-1.19,10.09-1.73,8.73-2.42,16.21-6.51,23.28-12.14,.12-.1-.02-.27-.14-.17h0Z"
          fill="currentColor" />
        <path
          d="M453.09,487.25c-11.92,.98-22.92,3.95-33.11,10.37-2.53,1.59-9.94,5.56-10.91,9-.33,1.17,1.55,1.61,1.83,.43,.7-2.95,8.07-7.16,10.69-8.9,9.41-6.24,20.21-10.06,31.5-10.69,.14,0,.13-.23,0-.22h0Z"
          fill="currentColor" />
        <path
          d="M428.41,478.88c-6.73,1.94-10.66,5.04-14.45,10.77-3.4,5.16-7.3,11.99-5.75,18.38,.25,1.02,1.96,.75,1.84-.31-1.25-11.09,7.24-26.04,18.42-28.63,.14-.03,.07-.25-.06-.21h0Z"
          fill="currentColor" />
        <path
          d="M474,478.13c4.64,.59,9.02,1.01,13.64-.09,2.28-.54,6.37-1.37,7.57-3.78,.16-.33-.33-.58-.5-.26-1.36,2.52-6.39,3.08-8.85,3.5-3.79,.64-8.02,1.43-11.82,.42-.14-.04-.19,.2-.05,.21h0Z"
          fill="currentColor" />
        <path
          d="M471.31,498.67c4.36-3.69,10.33-5.71,15.44-8.06,4.05-1.86,8.17-3.8,12.47-5.02,.35-.1,.18-.63-.17-.54-10.12,2.61-19.17,7.9-27.89,13.46-.13,.08,.02,.27,.14,.17h0Z"
          fill="currentColor" />
      </g>
      <g>
        <path
          d="M246.94,640.95c14.69-31.69-6.29-82.82-44.83-80.08-.38,.03-.37,.62,.02,.6,41.02-1.65,54.79,47.4,44.72,79.45-.02,.05,.07,.09,.09,.03h0Z"
          fill="currentColor" />
        <path
          d="M246.36,642.74c-6.45-18.36-7.67-39.61-15.98-57.07-3.93-8.25-15.51-28.71-27.14-24.67-.31,.11-.16,.54,.15,.48,9.51-1.92,19.2,13.12,23.3,20.12,5.17,8.83,6.62,18.23,8.85,28.08,2.63,11.62,6.24,22.14,10.71,33.1,.03,.07,.14,.04,.11-.03h0Z"
          fill="currentColor" />
        <path
          d="M244.87,636.91c-.99-21.81-3.63-48.15-20.97-63.6-.1-.09-.22,.05-.14,.15,16.18,17.03,18.49,41.2,20.99,63.45,0,.07,.12,.07,.12,0h0Z"
          fill="currentColor" />
        <path
          d="M248.47,611.76c1.53,5.41,.36,11.9-.47,17.31-.61,4.01-1.18,8.14-2.33,12.04-.15,.5,.63,.67,.78,.18,2.8-9.11,3.94-20.19,2.13-29.56-.01-.07-.13-.04-.11,.03h0Z"
          fill="currentColor" />
        <path
          d="M245.18,612.1c.84,4.87,.44,10.17,.29,15.08-.11,3.54,.14,7.58-.64,11.05-.11,.5,.65,.68,.78,.18,2.04-8.19,.28-18.05-.31-26.33,0-.08-.13-.07-.11,.02h0Z"
          fill="currentColor" />
        <path
          d="M244.92,603.45c4,10.32,2.56,24.71-.27,35.29-.13,.5,.64,.67,.78,.18,3.13-10.99,3.24-24.71-.4-35.5-.02-.07-.14-.04-.11,.03h0Z"
          fill="currentColor" />
      </g>
      <g>
        <path
          d="M219.49,719.07c-41.02-30.8-121.23-14.85-128.18,41.08-.07,.55,.77,.77,.86,.2,9.12-58.53,84.02-65.6,127.24-41.16,.07,.04,.15-.07,.08-.12h0Z"
          fill="currentColor" />
        <path
          d="M221.89,720.43c-28.23,3.95-59.19-.5-86.63,6.32-12.73,3.17-45.84,14.12-43.43,31.82,.06,.46,.73,.46,.73-.02,0-9.38,15.07-18.62,22.29-22.07,5.41-2.58,11.36-5.14,17.16-6.75,12.77-3.54,26.14-3.26,39.25-3.37,17.39-.15,33.72-2.53,50.65-5.77,.09-.02,.07-.18-.03-.17h0Z"
          fill="currentColor" />
        <path
          d="M213.07,720.86c-31.52-4.94-70.34-8.76-97.52,11.6-.15,.11,0,.35,.16,.25,29.13-18.24,64.68-14.6,97.35-11.68,.1,0,.11-.15,.02-.17h0Z"
          fill="currentColor" />
        <path
          d="M177.96,708.36c7.53-.65,15.96,2.6,22.95,5.07,6.17,2.18,12.6,4.42,18.4,7.49,.67,.35,1.21-.67,.55-1.04-12.32-6.73-27.86-11.52-41.9-11.7-.11,0-.1,.18,0,.17h0Z"
          fill="currentColor" />
        <path
          d="M177.5,713.19c7.21,.16,14.75,2.34,21.73,3.98,5.05,1.19,10.93,1.98,15.69,4.13,.68,.31,1.23-.71,.55-1.04-4.59-2.2-10.28-2.87-15.21-3.83-7.56-1.47-15.12-2.39-22.74-3.42-.12-.02-.14,.17-.02,.17h0Z"
          fill="currentColor" />
        <path
          d="M165.02,711.03c15.79-2.8,36.38,3.6,50.6,10.66,.68,.34,1.22-.69,.55-1.04-14.91-7.72-34.55-11.88-51.17-9.79-.12,.02-.1,.19,.03,.17h0Z"
          fill="currentColor" />
      </g>
      <path
        d="M245.68,675.09c65.84-103.34,66.94-110.14,71.58-138.77l.5-3.05,2.8,.46-.49,3.04c-4.72,29.1-5.84,36.01-71.99,139.84l-2.4-1.52Z"
        fill="currentColor" />
      <path
        d="M233.56,705.2c7.98-42.48,69.8-99.94,110.11-111.83l.6,2.04c-39.78,11.73-100.76,68.36-108.63,110.19l-2.08-.39Z"
        fill="currentColor" />
      <path
        d="M284.65,612.41c13.06-22.17,64.26-89.23,126.11-106.09l.74,2.73c-56.41,15.38-108.18,77.24-124.41,104.79l-2.44-1.44Z"
        fill="currentColor" />
      <g>
        <path
          d="M170.75,329.77c-3.11-3.93-1.79-8.1-.57-12.46,.35-1.25,.54-2.47,.7-3.76,.37-2.83,2.34-1.24,3.02,.78,.84,2.48,1.29,8.36,.11,10.8-1.8,3.7-4.54-1.63-5.1-3.31-.11-.33-.57-.57-.88-.32-3.45,2.74,1.23,7.2,4.35,7.48,5.93,.52,4.92-9.59,4.34-13.04-.41-2.42-1.5-5.4-3.73-6.78-1.73-1.06-3.2-.37-3.87,1.51-.56,1.58-.31,3.4-.7,5.02-.47,1.97-1.15,3.7-1.21,5.76-.1,3.45,1.12,5.95,3.41,8.44,.06,.07,.19-.03,.13-.11h0Z"
          fill="currentColor" />
        <path
          d="M190.42,340.51c-2.95,3.12-6.59-7.14-6.96-8.2-.67-1.94-1.91-4.27-1.87-6.35,.09-4.42,4.36,3.35,4.85,4.57,.86,2.14,4.37,7.93,2.32,9.77-1.26,1.13,.69,2.92,1.94,1.78,1.95-1.77,1.86-3.59,.94-5.91-1.18-2.96-2.42-6.04-3.8-8.92-1.1-2.3-6.33-8.61-8.56-3.73-2.25,4.93,6.97,24.95,11.96,17.59,.33-.49-.44-1-.83-.59h0Z"
          fill="currentColor" />
        <path
          d="M189.56,323.25c-.27-3.21-.37-6.04,1.68-8.75,1.85-2.44,5.12-4.95,6.71-.51,1.28,3.56-1.32,8.67-2.34,12.12-.18,.6-.38,2.3-.91,2.7-1.8,1.35-2.16-.36-2.62-1.47-.44-1.07-.84-2.21-1.12-3.33-.9-3.54-.44-6.98,.94-10.32,.13-.31-.05-.82-.47-.75-5.61,.93-3.65,10.06-2.28,13.7,.73,1.95,1.66,5.13,4.12,5.49,2.5,.36,3.63-2.21,4.22-4.17,1.37-4.5,5.62-14.5,.23-17.99-2.62-1.7-5.38,.42-7.04,2.47-2.88,3.57-1.65,6.66-1.28,10.82,0,.11,.18,.1,.17,0h0Z"
          fill="currentColor" />
        <path
          d="M200.42,320.12c3.92-1.25,8.11-1.05,11.93,.53,2.1,.87,5.44,3.52,1.99,4.97-2.93,1.23-7.01,1.03-9.68-.75-1.03-.69-1.9-1.67-2.17-2.92-.33-1.56,.67-1.9,1.59-2.91,.32-.35,.27-1.06-.22-1.26-1.81-.74-3.44,.36-4.01,2.18-.59,1.89,.2,4.09,1.35,5.6,3.07,4.03,9.5,4.71,13.89,2.79,4.37-1.91,4.27-5.89,.54-8.49-4.55-3.17-10.68-2.46-15.29,.13-.07,.04-.02,.16,.06,.13h0Z"
          fill="currentColor" />
        <path
          d="M195.96,334.03c-3.21,3.88-4.37,9.28-2.66,14.09,1.08,3.04,4.62,6.74,7.16,2.6,1.63-2.66,1.42-6.26,1.8-9.24,.3-2.38,1.14-5.39-.92-7.24-3.5-3.14-8.67,1.04-8.07,5.09,.07,.48,.64,.79,1.02,.38,1.08-1.17,1.71-3.01,3.25-3.68,2.85-1.25,2.8,2.02,2.61,3.93-.21,2.1-.14,11.46-3.41,10.24-1.64-.61-2.29-4.32-2.56-5.75-.68-3.63,.03-7.16,2.03-10.26,.09-.14-.13-.3-.24-.17h0Z"
          fill="currentColor" />
        <path
          d="M171.96,326.48c9.19,9.89,8.85,24.44,12.05,36.71,.15,.58,.99,.39,1-.17,.2-11.97-4-28.2-12.95-36.66-.07-.07-.16,.04-.1,.11h0Z"
          fill="currentColor" />
        <path
          d="M174.32,325.75c9.19,9.89,8.85,24.44,12.04,36.72,.15,.58,.99,.39,1-.17,.2-11.97-4-28.2-12.95-36.66-.07-.07-.16,.04-.1,.11h0Z"
          fill="currentColor" />
        <path
          d="M187.96,341.73c2.42,5.98,2.51,12.26,2.7,18.6,.45-.14,.9-.28,1.35-.42-.18-.27-.29-.4-.58-.54-.23-.1-.47-.03-.59,.18-.16,.27-.18,.45-.18,.77,0,.94,1.49,.9,1.47-.04-.08-2.79-.03-5.61-.54-8.36-.66-3.61-2.12-6.86-3.47-10.24-.04-.1-.2-.05-.16,.05h0Z"
          fill="currentColor" />
        <path
          d="M190.34,342.16c2.42,5.98,2.51,12.26,2.71,18.6,.45-.14,.9-.28,1.35-.42-.18-.27-.29-.41-.58-.54-.23-.1-.47-.03-.59,.18-.17,.28-.18,.45-.17,.78,.02,.94,1.49,.9,1.47-.04-.09-2.79-.04-5.61-.54-8.37-.66-3.61-2.12-6.85-3.47-10.24-.04-.1-.2-.05-.16,.05h0Z"
          fill="currentColor" />
        <path
          d="M208.44,327.05c-3.78,10.29-5.66,21-2.92,31.88,.53-.24,1.05-.49,1.58-.73-.04-.08-.09-.16-.13-.24-.39-.7-1.59-.33-1.51,.47,0,.09,.02,.18,.02,.27,.12,1.27,2.03,.96,1.72-.29-2.53-10.06-.92-21.42,1.38-31.33,.02-.09-.11-.12-.14-.03h0Z"
          fill="currentColor" />
        <path
          d="M203.26,325.67c-.8,3.24-1.34,6.71-1.57,10.03-.24,3.44-1.29,10.67,1.15,13.43,.24,.28,.63,.05,.73-.22,.63-1.78-.09-4.07-.17-5.97-.1-2.62,.06-5.22,.08-7.84,.01-3.13-.28-6.28-.07-9.41,0-.08-.13-.09-.14-.01h0Z"
          fill="currentColor" />
        <path
          d="M210.62,326.38c-3.78,10.29-5.66,21-2.93,31.88,.53-.24,1.05-.49,1.58-.73-.04-.08-.09-.16-.13-.24-.39-.7-1.59-.33-1.51,.47,0,.09,.02,.18,.03,.27,.12,1.27,2.03,.96,1.72-.29-2.53-10.06-.92-21.42,1.39-31.33,.02-.09-.11-.12-.14-.03h0Z"
          fill="currentColor" />
        <path
          d="M196.64,323.59c1.11,3.19,1.64,6.68,2.4,9.97,.21,.92,1.59,.48,1.4-.43-.05-.25-.37-.53-.52-.7-.24-.28-.8-.1-.85,.26-.03,.26-.14,.62-.03,.87,.35,.86,1.74,.45,1.4-.43-1.22-3.15-2.76-6.33-3.63-9.59-.03-.11-.2-.05-.16,.05h0Z"
          fill="currentColor" />
        <path
          d="M211.91,327.75c.21,.76-.79,2.6-1.02,3.33-.65,2.03-1.28,4.07-1.85,6.12-.8,2.83-2.53,6.88-1.61,9.83,.14,.46,.91,.49,.99-.03,.52-3.47,.82-6.92,1.53-10.37,.38-1.83,.78-3.66,1.21-5.48,.17-.74,.29-2.82,.9-3.36,.13-.11-.2-.22-.14-.03h0Z"
          fill="currentColor" />
        <path
          d="M194.9,329.48c.39,1.67,.77,3.33,1.16,5,.13,.55,1.05,.27,.84-.26-.62-1.59-1.24-3.19-1.86-4.78-.03-.09-.16-.05-.14,.04h0Z"
          fill="currentColor" />
        <path
          d="M200.81,346.66c-.75,3.35-.05,6.52,.81,9.76,.75,2.83,2.14,6.94,1.67,9.94,.42-.13,.84-.26,1.25-.39-.11-.12-.22-.24-.33-.36-.25-.27-.79-.11-.85,.26-.02,.16-.05,.32-.07,.48-.12,.81,1.02,1.36,1.41,.53,.89-1.88-.08-4.53-.68-6.44-1.41-4.49-3.75-8.9-3.07-13.75,.01-.09-.12-.13-.14-.03h0Z"
          fill="currentColor" />
        <path
          d="M197.08,352.02c.95,2.88,1.47,5.9,2.24,8.83,.61,2.32,1.89,4.96,1.33,7.38,.49-.22,.98-.45,1.48-.67-.06-.03-.12-.06-.18-.09-.41-.19-.86-.05-1.09,.34-.03,.06-.07,.12-.1,.18-.79,1.34,1.74,2.16,1.9,.71,.27-2.42-.78-4.56-1.7-6.74-1.36-3.24-2.73-6.61-3.71-9.99-.03-.11-.2-.05-.16,.05h0Z"
          fill="currentColor" />
        <path
          d="M159.72,246.33c13.74,25.61,15.85,53.86,26.28,80.24,.21,.52,1.05,.27,.84-.26-3.9-9.85-5.18-21.3-8.12-31.47-4.86-16.79-10.9-33.03-18.86-48.6-.05-.1-.2,0-.14,.09h0Z"
          fill="currentColor" />
        <path
          d="M166.91,250.96c8.18,15.38,13,32.07,16.58,49.05,1.59,7.51,1.78,16.09,4.36,23.32,.19,.53,1.03,.27,.84-.26-3.02-8.46-3.21-18.57-5.27-27.34-3.67-15.65-9.07-30.55-16.37-44.86-.05-.1-.2,0-.14,.09h0Z"
          fill="currentColor" />
        <path
          d="M238.61,245.42c-8.88,16.26-16.55,33.03-21.91,50.79-1.76,5.82-6.63,16.99-5.01,23.33,.14,.55,.98,.29,.84-.26-1.81-7.08,3.96-19.45,5.99-25.99,5.12-16.55,11.61-32.76,20.25-47.8,.05-.1-.1-.18-.15-.08h0Z"
          fill="currentColor" />
        <path
          d="M248.81,248.03c-18.65,20.04-27.39,45.55-35.99,71.1-.18,.54,.68,.73,.86,.2,8.15-24.24,16.1-52.92,35.26-71.19,.08-.08-.05-.2-.13-.12h0Z"
          fill="currentColor" />
        <path
          d="M176.93,241c8.96,22.54,11.9,49.71,12.71,73.81,.03,1.04,1.67,.99,1.61-.05-1.37-24.78-6.13-50.33-14.16-73.81-.04-.1-.2-.05-.16,.05h0Z"
          fill="currentColor" />
        <path
          d="M187.69,227.86c5.11,18.79,8.11,38.27,8.09,57.77,0,8.2-1.99,16.68-1.62,24.79,.05,1.02,1.46,1.12,1.74,.17,2.4-8.1,1.33-18.64,1.03-26.87-.7-19.08-4.22-37.48-9.07-55.91-.03-.11-.19-.06-.16,.05h0Z"
          fill="currentColor" />
        <path
          d="M174.81,215.47c13.02,30.41,16.02,62.7,18.37,95.25,.07,.96,1.54,1.19,1.74,.17,2.1-11.02-1.84-25.57-3.59-36.33-3.32-20.35-8.46-40.08-16.35-59.15-.04-.1-.21-.05-.16,.05h0Z"
          fill="currentColor" />
        <path
          d="M132.92,235.81c22.3,26.61,38.77,55.2,49.57,88.16,.35,1.08,1.99,.57,1.68-.52-9.23-33.08-29.5-61.62-51.1-87.73-.07-.08-.21,0-.14,.09h0Z"
          fill="currentColor" />
        <path
          d="M103.36,261.36c27.91,22.45,47.78,51.33,73.92,75.21,.84,.77,1.99-.5,1.19-1.3-25.05-25.04-47.44-51.51-75-74.04-.08-.07-.2,.06-.12,.13h0Z"
          fill="currentColor" />
        <path
          d="M102.25,246.23c27.99,22.76,46.33,49.43,64.96,79.53,.5,.82,2,.19,1.58-.73-14.23-31.23-40.42-57.46-66.42-78.93-.08-.07-.2,.06-.12,.13h0Z"
          fill="currentColor" />
        <path
          d="M123.2,232.64c22.17,27.32,44.84,56.01,56.43,89.65,.37,1.07,2.01,.57,1.68-.52-10.26-33.77-36.33-62.25-57.97-89.22-.07-.08-.21,0-.14,.09h0Z"
          fill="currentColor" />
        <path
          d="M120.97,242.22c18.16,22.26,35.28,44.83,48.56,70.34,.45,.87,1.97,.18,1.58-.73-11.14-25.94-32.55-47.99-50-69.69-.07-.08-.21,0-.14,.09h0Z"
          fill="currentColor" />
        <path
          d="M115.15,241.71c19.19,23.43,39.53,46.7,53.74,73.59,.46,.86,1.99,.18,1.58-.73-12.07-27.26-36.71-50.09-55.18-72.95-.07-.08-.21,0-.14,.09h0Z"
          fill="currentColor" />
        <path
          d="M200.25,219.53c5.11,20.39,4.62,42.17,3.34,63.03-.74,12.05-3.91,24.71-3.61,36.74,.03,1.02,1.47,1.12,1.74,.17,3.35-12.2,2.6-26.88,3.06-39.4,.74-20.36,.19-40.67-4.36-60.59-.02-.11-.19-.06-.16,.05h0Z"
          fill="currentColor" />
        <path
          d="M212.74,246.17c.76,16.24-1.4,32.57-4.35,48.52-1.38,7.47-4.71,15.84-4.71,23.47,0,1.04,1.46,1.09,1.74,.17,6.82-22.3,8.15-49.06,7.49-72.16,0-.11-.18-.1-.17,0h0Z"
          fill="currentColor" />
        <path
          d="M48.95,288.3c15.8,.06,30.79-5.04,46.65-2.53,35.85,5.66,62.05,33.52,83.07,61.01,1.21,1.58,3.45-.23,2.12-1.78-20.51-23.81-43.58-50.64-75.27-58.56-20.34-5.08-36.6,.27-56.57,1.68-.11,0-.1,.17,0,.17h0Z"
          fill="currentColor" />
        <path
          d="M48.89,288.15c-20.96,26.22-18.16,66.1-6.79,95.53,4.76,12.33,17.33,21.91,29.51,26.3,17.6,6.34,31.55-6.51,47.86-11.84,.9-.29,.47-1.68-.43-1.4-14.01,4.29-28.75,16.24-43.66,13.4-25.37-4.84-24.78-26.09-30.73-45.57-3.44-11.27-7.99-18.95-7.2-31.3,.94-14.7,3.67-32.93,11.58-45.02,.05-.08-.08-.17-.14-.1h0Z"
          fill="currentColor" />
        <path
          d="M124.82,458.74c-26.99-15.58-19.84-44.66-1.57-64.48,14.59-15.82,42.57-24.66,63.46-23.35,1.04,.07,.98-1.54-.05-1.61-30.27-2.1-62.23,13.15-76.31,40.4-9.55,18.49-11.47,45.63,14.41,49.21,.09,.01,.15-.11,.06-.16h0Z"
          fill="currentColor" />
        <path
          d="M127.58,402.08c7.19-12.93,22.38-20.03,35.72-24.81,6.28-2.25,14.03-2.83,19.87-5.82,.5-.25,.24-.92-.18-1.07-6.77-2.33-20.66,5.46-26.49,8.14-11.63,5.36-22.39,12.31-29.07,23.47-.06,.09,.1,.18,.15,.08h0Z"
          fill="currentColor" />
        <path
          d="M135.56,415.37c5.41-14.94,18.45-25.88,31.66-33.91,6.59-4.01,15.7-9.98,23.77-10.38,.47-.02,.8-.69,.38-1.02-4.71-3.63-18.89,6.42-22.51,8.66-14.43,8.9-27.16,20.56-33.46,36.59-.04,.11,.12,.18,.16,.06h0Z"
          fill="currentColor" />
        <path
          d="M155.44,418.16c3.77-12.67,10.38-24.69,19.04-34.68,3.27-3.77,9.37-11.6,14.95-12,.53-.04,.73-.65,.38-1.02-3.26-3.4-11.48,6.36-13.15,8.18-10.35,11.28-16.8,25.02-21.39,39.48-.03,.1,.13,.14,.17,.04h0Z"
          fill="currentColor" />
        <path
          d="M172.95,416.03c3.07-10.85,6.46-21.99,11.02-32.33,1.15-2.61,2.42-5.19,4-7.58,1.15-1.74,3.23-3.4,3.56-5.5,.07-.42-.3-.84-.74-.69-4.12,1.37-6.79,9.42-8.2,13.04-4.16,10.71-6.55,22.03-9.81,33.02-.03,.11,.14,.14,.17,.04h0Z"
          fill="currentColor" />
        <path
          d="M189.19,429.58c3.41-12.47,5.95-24.87,5.6-37.85-.16-5.83,.34-14.68-2.26-20.02-.24-.5-.93-.24-1.07,.18-1.69,5.09,1.36,13.45,1.76,18.74,.99,13.14-.7,26.25-4.2,38.91-.03,.11,.14,.14,.17,.04h0Z"
          fill="currentColor" />
        <path
          d="M201.83,427.39c1.16-13.19,2.07-26.68-1.72-39.55-1.54-5.22-4.06-13.74-7.95-17.65-.37-.37-.99-.03-.98,.45,.04,5.35,5.4,11.74,7.15,16.72,4.5,12.74,4.51,26.74,3.32,40.04,0,.11,.16,.1,.17,0h0Z"
          fill="currentColor" />
        <path
          d="M212.1,421.27c-1.51-14.91-2.14-38.57-14.19-49.51-.53-.48-1.16,.18-.89,.75,3.23,6.83,7.16,12.89,9.42,20.22,2.86,9.27,4.51,18.92,5.49,28.55,.01,.11,.18,.1,.17,0h0Z"
          fill="currentColor" />
        <path
          d="M224.18,418.93c-4.18-14.41-9.93-38.46-23.84-47.5-.42-.27-1.01,.23-.83,.69,2.01,5.36,7.59,9.6,10.76,14.44,6.44,9.82,10.52,21.19,13.75,32.41,.03,.11,.19,.06,.16-.05h0Z"
          fill="currentColor" />
        <path
          d="M93.59,358.43c20.23-7.97,42-9.65,63.18-4.6,7.5,1.79,14.85,6.6,22.26,7.78,.52,.08,.81-.49,.46-.88-5.07-5.58-19.01-7.47-25.72-8.73-20.66-3.88-40.69-1.12-60.23,6.26-.1,.04-.05,.2,.05,.16h0Z"
          fill="currentColor" />
        <path
          d="M116.25,384.77c14.25-9.32,30.42-15.39,47.52-16.19,4.46-.21,10.75,1.63,14.92,.47,.35-.1,.51-.63,.2-.87-3.87-2.95-13.63-1.07-17.85-.63-16.46,1.71-31.06,8.24-44.88,17.07-.09,.06,0,.2,.09,.14h0Z"
          fill="currentColor" />
        <path
          d="M107.83,344.05c17.44-3.46,35.44,.48,51.73,6.91,5.13,2.03,11.71,7.24,17.14,7.8,.4,.04,.84-.37,.55-.78-3.7-5.07-15.65-7.66-21.3-9.55-15.76-5.28-31.73-7.37-48.17-4.54-.11,.02-.06,.18,.05,.16h0Z"
          fill="currentColor" />
        <path
          d="M52.39,327.11c33.27-1.94,67.27,1.83,98.14,14.96,10.08,4.29,18.52,10.77,28.16,15.55,.42,.21,1.01-.3,.67-.73-6.8-8.65-22.38-13.7-32.12-17.44-30.42-11.67-62.58-14.08-94.86-12.51-.11,0-.1,.18,0,.17h0Z"
          fill="currentColor" />
        <path
          d="M83.74,317.44c25.39,.39,49.93,8.36,71.43,21.71,8.16,5.07,15.12,13.07,23.38,17.62,.47,.26,.91-.3,.67-.73-4.5-8.21-18.55-15.14-26.29-19.57-21.39-12.25-44.62-18.34-69.19-19.21-.11,0-.1,.17,0,.17h0Z"
          fill="currentColor" />
        <path
          d="M99.31,306.8c22.71,4.74,43.91,15.28,61.35,30.59,6.22,5.46,10.99,13.5,17.4,18.42,.39,.3,.99-.01,.84-.53-2.3-7.75-13.81-15.87-19.62-20.59-17.6-14.31-37.93-23.01-59.92-28.05-.11-.02-.15,.14-.04,.17h0Z"
          fill="currentColor" />
        <path
          d="M98.91,301.78c22.71,4.74,43.91,15.28,61.35,30.59,6.22,5.46,10.99,13.5,17.4,18.42,.39,.3,.99-.01,.84-.53-2.3-7.75-13.81-15.87-19.62-20.59-17.6-14.31-37.93-23.01-59.92-28.05-.11-.02-.15,.14-.04,.17h0Z"
          fill="currentColor" />
        <path
          d="M101.4,291.9c23.57,5.07,44.24,17.95,60.08,36.02,6.09,6.95,9.97,16.32,16.17,22.88,.28,.3,.93,.04,.86-.39-1.41-8.58-11.67-18.42-17.32-24.5-16.32-17.56-36.52-28.69-59.76-34.17-.11-.03-.15,.14-.04,.17h0Z"
          fill="currentColor" />
        <path
          d="M110.89,367.39c19.28-14.29,46.78-11.08,67.9-3.63,1.16,.41,1.57-1.44,.43-1.86-22.88-8.31-47.66-8.3-68.43,5.34-.09,.06,0,.21,.09,.14h0Z"
          fill="currentColor" />
        <path
          d="M116.03,370.55c12.1-6.46,27.56-10.13,41.34-9.27,3.48,.22,7.09,.81,10.45,1.77,2.72,.78,6.79,4.01,9.53,4.13,1.16,.05,1.88,.04,3.02-.32,.69-.22,.66-1.25-.05-1.41-10.14-2.3-17.57-6.31-28.46-5.54-12.59,.89-24.79,4.67-35.91,10.5-.1,.05,0,.2,.09,.14h0Z"
          fill="currentColor" />
        <path
          d="M121.84,375.9c13.21-8.35,28.5-12.28,44.04-9.85,2.94,.46,5.76,1.47,8.67,1.96,2.06,.35-.26-1.16,1.01,.15,1.23,1.26,2.83-1.45,.99-1.87-19.83-4.59-37.43-1.38-54.81,9.47-.09,.06,0,.2,.09,.14h0Z"
          fill="currentColor" />
        <path
          d="M202.69,372.11c27.5,40.8,78.37,93.29,123.6,44.53,28.6-30.83,47-94.03-12.82-95.54-.85-.02-.8,1.28,.04,1.32,18.18,.77,23.6,2.97,32.27,19.67,8.71,16.79,7.77,24.97-.22,42.19-7.81,16.83-20.67,36.33-37.37,45.66-40.91,22.87-84.58-28.31-105.35-57.92-.06-.09-.21,0-.14,.09h0Z"
          fill="currentColor" />
        <path
          d="M215.88,362.36c33.68-33.97,95.61-19.32,124.32-60.4,6.76-9.67,9.35-21.65,3.94-32.65-1.74-3.53-5.85-9.01-9.43-11.13-2.42-1.44-8.84-1.68-9.73-3.94-.58-1.47-2.71-.52-1.98,.92,3.18,6.23,3.32-.39,13.26,6.42,21.3,14.58,5.13,39.34-7.62,49.63-9.91,8.01-21.79,13.02-33.78,17.17-30.02,10.4-56.76,8.56-79.1,33.86-.07,.08,.05,.19,.13,.12h0Z"
          fill="currentColor" />
        <path
          d="M219.13,257.15c10.24-15.5,27.93-38.58,48.09-41.02,19.57-2.37,52.2,20.7,56.87,40.77,.2,.87,1.69,.64,1.58-.26-1.86-14.28-8.71-15.89-19.66-25.11-8.44-7.11-17.35-15.88-28.93-17.09-25.5-2.67-46.14,23.86-58.09,42.63-.06,.09,.09,.17,.15,.08h0Z"
          fill="currentColor" />
        <path
          d="M124.72,458.88c9.19,9.02,18.13,15.79,31.36,17.16,11.41,1.18,22.08-2.63,33.36-3.59,8.1-.69,16.31,.41,24.31-1.21,28.67-5.79,37.79-35.87,24.05-59.31-.29-.49-1.01-.02-.74,.47,11.88,21.68,5.64,48.6-20.53,56.39-9.6,2.86-20.55,1.16-30.44,2.43-24.78,3.18-41.13,5.04-61.25-12.48-.08-.07-.19,.05-.12,.13h0Z"
          fill="currentColor" />
        <path
          d="M305.76,378.09c11.7,.74,29.77,7.89,32.34,21.08,.11,.55,.96,.29,.84-.26-3.09-13.82-21.25-19.36-33.16-20.99-.12-.02-.14,.16-.02,.17h0Z"
          fill="currentColor" />
        <path
          d="M321.24,376.28c9.91,3.27,17.2,9.31,19.85,19.39,.14,.55,1,.29,.84-.26-3.12-10.58-10.58-15.28-20.63-19.29-.11-.05-.18,.12-.06,.16h0Z"
          fill="currentColor" />
        <path
          d="M328.15,375.35c7.19,3.54,13.03,7.38,15.09,15.6,.14,.55,1,.29,.84-.26-2.36-8.3-8.36-12.08-15.86-15.47-.09-.04-.15,.09-.07,.13h0Z"
          fill="currentColor" />
        <path
          d="M276.75,425.08c5.71,6.11,11.76,11.37,20.74,10.11,.56-.08,.53-.96-.03-.88-7.89,1.11-16.03-2.8-20.58-9.34-.07-.1-.22,.02-.13,.11h0Z"
          fill="currentColor" />
        <path
          d="M282.9,423.78c3.22,3.78,6.58,6.75,11.28,8.57,2.34,.9,5.93,2.17,8.43,1.09,.39-.17,.14-.71-.24-.53-2.52,1.17-6.4-.25-8.77-1.18-4.06-1.58-8.28-4.25-10.57-8.06-.06-.1-.21,.01-.13,.11h0Z"
          fill="currentColor" />
        <path
          d="M292.41,425.63c4.21,2.33,9.1,7.41,14.42,6.28,.55-.12,.29-.99-.26-.84-2.42,.65-5.36-.69-7.5-1.66-2.12-.96-4.99-2.16-6.57-3.92-.08-.09-.21,.07-.1,.14h0Z"
          fill="currentColor" />
        <path
          d="M293.6,265.21c10.08-8.04,19.5-9.46,31.75-8.25,.37,.04,.35-.55-.02-.59-4.38-.42-8.61-1.07-13.02-.39-7.16,1.11-13.04,4.92-18.81,9.07-.09,.06,0,.21,.09,.14h0Z"
          fill="currentColor" />
        <path
          d="M302.64,254.09c5.65-1.68,15.17-3.51,20.55,.28,.3,.21,.59-.31,.27-.52-5.86-3.89-14.71-1.16-20.87,.07-.11,.02-.06,.19,.05,.16h0Z"
          fill="currentColor" />
        <path
          d="M304.18,249.45c5.44-1.96,14.36-3.63,18.56,1.64,.33,.41,.91-.06,.56-.47-4.81-5.6-13.19-2.86-19.17-1.34-.11,.03-.05,.2,.05,.16h0Z"
          fill="currentColor" />
        <path
          d="M132.59,428.37c-5.83,9.53-10.84,25.1-3.02,34.98,.29,.36,.89,0,.62-.39-6.89-9.94-3.93-25.09,2.55-34.51,.06-.09-.09-.17-.15-.08h0Z"
          fill="currentColor" />
        <path
          d="M126.25,433.86c-4.26,8.26-5.44,15.88-1.92,24.72,.17,.44,.89,.21,.7-.22-3.45-8-3.51-16.96,1.37-24.43,.06-.09-.1-.18-.15-.08h0Z"
          fill="currentColor" />
        <path
          d="M132.43,437.5c-4.44,9.02-3.56,18.94,.13,28.11,.18,.44,.89,.21,.7-.22-3.61-8.36-5.79-19.58-.68-27.81,.06-.09-.1-.18-.15-.08h0Z"
          fill="currentColor" />
        <path
          d="M122.15,435.91c-1.75,3.37-3.84,6.47-4.31,10.33-.45,3.77,.67,7.38,2.07,10.83,.18,.44,.89,.21,.7-.22-3.27-7.38-2.94-14.12,1.68-20.87,.06-.09-.1-.18-.15-.08h0Z"
          fill="currentColor" />
        <path
          d="M78.05,308.05c-5.37,1.29-11.96-.59-17.05-2.31-6.41-2.17-12.33-5.43-16-11.27-.26-.41-.81-.02-.62,.39,5.24,11.04,22.87,14.04,33.69,13.36,.12,0,.09-.2-.03-.17h0Z"
          fill="currentColor" />
        <path
          d="M62.91,310.76c-4.17-.58-8.29-2.77-11.75-5.11-2.92-1.97-6.71-4.8-7.46-8.46-.09-.46-.81-.24-.7,.22,.76,3.18,3.72,5.59,6.25,7.41,4.19,3.01,8.72,4.7,13.63,6.1,.11,.03,.15-.15,.04-.17h0Z"
          fill="currentColor" />
        <path
          d="M70.23,303.11c-9.16,1.24-19.25-2.82-23.29-11.4-.2-.42-.83-.03-.62,.39,4.75,9.44,14.28,11.17,23.91,11.18,.11,0,.1-.19,0-.17h0Z"
          fill="currentColor" />
        <path
          d="M75.42,351.39c-11.13-.88-27.29,1.73-32.54,13.19-.2,.43,.42,.76,.65,.34,5.71-10.61,20.56-14.88,31.88-13.36,.12,.02,.14-.16,.02-.17h0Z"
          fill="currentColor" />
        <path
          d="M67.66,348.22c-9.62,.1-21.41,2.77-25.43,12.69-.18,.44,.48,.78,.65,.34,3.42-9.08,15.56-13.85,24.76-12.86,.12,.01,.14-.17,.02-.17h0Z"
          fill="currentColor" />
        <path
          d="M67.22,355.38c-9.78,.08-17.32,5.23-23.58,12.45-.31,.36,.24,.86,.54,.5,5.63-6.84,13.61-13.5,23.04-12.77,.11,0,.11-.17,0-.17h0Z"
          fill="currentColor" />
        <path
          d="M63.98,345.51c-9.24,.06-18.05,4.38-22.57,12.71-.23,.42,.43,.76,.65,.34,3.97-7.83,13.03-13.58,21.92-12.88,.11,0,.11-.17,0-.17h0Z"
          fill="currentColor" />
        <path
          d="M54.54,344.55c-6.57,1.34-13.28,5.93-14.75,12.95-.1,.46,.63,.63,.71,.17,1.1-6.39,7.69-12.43,14.06-12.95,.12,0,.1-.19-.03-.17h0Z"
          fill="currentColor" />
        <path
          d="M64.58,360.77c-9.29-.02-15.66,4.14-21.65,11.04-.31,.36,.24,.86,.54,.5,5.39-6.58,12.12-12.09,21.11-11.36,.11,0,.11-.17,0-.17h0Z"
          fill="currentColor" />
        <path
          d="M206.51,438.04c2.4,11.1-.91,26.38-11.02,32.77-.4,.25-.02,.84,.39,.62,11.1-5.93,12.44-22.5,10.79-33.42-.02-.12-.19-.09-.17,.03h0Z"
          fill="currentColor" />
        <path
          d="M210.24,445.55c1.67,8.74-2.37,19.55-9.81,24.51-.39,.26,0,.89,.39,.62,8.16-5.76,10.14-15.77,9.58-25.15,0-.12-.19-.1-.17,.03h0Z"
          fill="currentColor" />
        <path
          d="M203.12,446.52c1.64,9.44-4.94,19.16-11.41,25.33-.34,.32,.21,.83,.54,.5,7-7.02,11.58-15.81,11.03-25.85,0-.12-.19-.1-.17,.03h0Z"
          fill="currentColor" />
        <path
          d="M213.21,449.03c1.67,8.06-1.45,16.39-8.36,20.9-.4,.26,0,.89,.39,.62,7.64-5.32,8.68-12.86,8.13-21.54,0-.12-.19-.1-.17,.03h0Z"
          fill="currentColor" />
        <path
          d="M68.81,298.66c-2.07,.98-6.55,.43-8.72-.02-4.56-.93-10.02-5.34-10.77-10.08-.06-.36-.59-.37-.59,.02,.1,4.77,5.83,8.4,9.77,9.89,3.22,1.21,6.99,.4,10.36,.35,.13,0,.09-.22-.05-.16h0Z"
          fill="currentColor" />
        <path
          d="M152.97,224.59c-3.07-8.53-5.64-17.41-15.82-18.72-.63-.08-.72,.81-.09,.87,9.44,.9,13.47,9.63,15.75,17.91,.03,.11,.2,.05,.16-.05h0Z"
          fill="currentColor" />
        <path
          d="M160.11,230.12c-3.22-9.3-5.62-24.56-18.31-24.25-.57,.01-.54,.91,.03,.88,11.76-.6,15.65,14.38,18.12,23.42,.03,.11,.2,.05,.16-.05h0Z"
          fill="currentColor" />
        <path
          d="M164.22,227.07c-2.86-8.2-5.7-21.83-16.1-23.48-.56-.09-.76,.79-.2,.86,9.76,1.25,13.89,14.68,16.13,22.67,.03,.11,.2,.05,.16-.05h0Z"
          fill="currentColor" />
        <path
          d="M166.74,218.82c-3.49-7.64-5.84-16.46-15.43-17.66-.63-.08-.72,.81-.09,.87,8.77,.78,12.74,9.42,15.35,16.84,.04,.11,.21,.05,.16-.05h0Z"
          fill="currentColor" />
        <path
          d="M246.42,235.61c7.56-11.24,25.09-22.83,39.55-18.06,.09,.03,.12-.11,.03-.14-14.87-4.85-31.48,7.13-39.72,18.11-.07,.1,.07,.2,.14,.1h0Z"
          fill="currentColor" />
        <path
          d="M255.41,236.79c7.55-9.23,20.34-23.06,33.67-17.53,.09,.04,.16-.09,.07-.13-13.68-5.62-25.73,8.64-33.87,17.54-.07,.08,.06,.2,.13,.12h0Z"
          fill="currentColor" />
        <path
          d="M268.53,230.68c5.87-6.07,15.09-12.75,23.95-9.27,.09,.03,.16-.1,.07-.13-9.23-3.56-17.67,3.59-24.14,9.29-.08,.07,.05,.2,.13,.12h0Z"
          fill="currentColor" />
        <path
          d="M276.21,228.87c4.43-4.19,12.41-7.88,18.57-5.74,.09,.03,.12-.11,.03-.14-6.57-2.22-13.68,1.98-18.71,5.75-.1,.07,.02,.22,.11,.13h0Z"
          fill="currentColor" />
        <path
          d="M246.31,415.11c-15.28-11.65-30.61-27.95-38.7-45.49-.43-.93-1.98-.47-1.54,.48,8.53,18.48,24.64,32.54,40.13,45.14,.09,.07,.2-.06,.12-.13h0Z"
          fill="currentColor" />
        <path
          d="M236.31,401.39c-10.3-9.28-20.05-19.94-25.85-32.65-.42-.93-1.97-.47-1.54,.48,6.28,13.75,17.1,21.76,27.28,32.3,.08,.08,.2-.05,.12-.13h0Z"
          fill="currentColor" />
        <path
          d="M290.04,358.67c-13.75-3.61-28.18-3.9-42.32-3.06-9.7,.58-24.26,.61-32.9,5.88-.52,.32-.11,1.03,.43,.92,23.52-4.84,51.02-10.62,74.75-3.58,.11,.03,.15-.14,.04-.17h0Z"
          fill="currentColor" />
        <path
          d="M296.8,374.45c-22.89-12.52-57.98-19.91-83.61-11.85-.54,.17-.42,1.04,.17,1,28.3-1.74,57.62-3.56,83.37,11,.1,.05,.18-.1,.08-.15h0Z"
          fill="currentColor" />
        <path
          d="M266.97,378.9c-16.7-9.74-34.87-18.86-54.83-14.72-.61,.13-.37,.97,.17,1,8.19,.51,15.95-.54,24.15,1.16,10.82,2.25,20.96,7.14,30.44,12.71,.09,.06,.17-.1,.08-.15h0Z"
          fill="currentColor" />
        <path
          d="M266.14,389.01c-11.45-6.75-22.53-14.35-34.7-19.78-5.35-2.39-12.81-6.09-18.85-4.92-.53,.1-.42,.87,.03,.99,7.76,2.03,14.68,3.61,22.1,7.1,10.7,5.04,21.19,10.68,31.33,16.76,.09,.06,.17-.1,.08-.15h0Z"
          fill="currentColor" />
        <path
          d="M270.36,413.5c-12.41-9.42-24.31-19.49-36.38-29.32-7.07-5.75-14.1-12.82-22.01-17.38-.53-.3-.98,.43-.59,.83,16.83,17.58,39.62,31.3,58.87,46,.09,.07,.2-.06,.12-.13h0Z"
          fill="currentColor" />
        <path
          d="M266.68,401.56c-10.89-8.15-21.69-16.37-33.33-23.45-7.08-4.31-14.74-9.83-22.43-12.89-.52-.21-1.03,.4-.59,.83,5.16,4.97,13.22,8.04,19.37,11.62,12.68,7.39,25.15,15.15,36.86,24.01,.09,.07,.2-.06,.12-.13h0Z"
          fill="currentColor" />
        <path
          d="M258.14,417.64c-16.49-15.13-29.06-36.46-47.81-48.94-.5-.33-.99,.44-.59,.83,16.31,15.89,31.46,32.81,48.28,48.23,.08,.07,.2-.05,.12-.13h0Z"
          fill="currentColor" />
        <path
          d="M280.25,345.41c-21.12-1.07-45.54,2.48-63.54,14.17-.41,.26-.11,.96,.37,.79,20.73-7.3,40.49-16.14,63.18-14.79,.11,0,.1-.17,0-.17h0Z"
          fill="currentColor" />
        <path
          d="M275.18,349.27c-17.33-.56-47.21-.53-60,13.3-.36,.39,.14,.87,.56,.67,17.77-8.54,39.24-15.82,59.42-13.8,.12,.01,.14-.16,.02-.17h0Z"
          fill="currentColor" />
        <path
          d="M278.1,338.43c-12.34,.13-24.49,2.51-36.16,6.51-5.99,2.05-16.38,5.01-19.6,11.12-.32,.61,.48,1.12,.95,.67,12.48-11.74,38.21-18.32,54.81-18.12,.11,0,.1-.17,0-.17h0Z"
          fill="currentColor" />
        <path
          d="M253.61,278.56c-9,10.18-17.82,20.69-24.31,32.66-4.9,9.03-14.23,22.68-14.29,33.29,0,.85,1.31,.81,1.32-.04,.07-4.53,3.99-11.59,5.76-15.68,2.75-6.36,6.17-12.48,9.27-18.67,5.62-11.24,13.98-22.12,22.37-31.43,.07-.08-.05-.2-.13-.12h0Z"
          fill="currentColor" />
        <path d="M211.61,345.12c.03,.1,.2,.05,.16-.05-.03-.1-.2-.05-.16,.05h0Z" fill="currentColor" />
        <path d="M215.79,327.8c.03,.1,.2,.05,.16-.05s-.2-.05-.16,.05h0Z" fill="currentColor" />
        <path
          d="M295.5,303.78c-22.27,9.07-44.29,18.97-64.8,31.62-4.48,2.76-13.12,6.44-14.74,12.18-.19,.66,.58,1.07,1.11,.78,5.49-3.01,10.7-9,16.27-12.55,19.62-12.52,40.66-23.14,62.21-31.88,.1-.04,.05-.2-.05-.16h0Z"
          fill="currentColor" />
        <path
          d="M297.33,294.93c-20.78,8.59-40.79,18.62-59.33,31.43-4.7,3.25-19.6,11.4-20.77,18.15-.1,.57,.57,1.21,1.11,.78,25.26-19.98,48.58-37.7,79.04-50.2,.1-.04,.05-.2-.05-.16h0Z"
          fill="currentColor" />
        <path
          d="M293.7,285.72c-19.65,8.3-37.92,18.8-54.22,32.66-7.82,6.65-22.16,17.41-24.25,28.43-.16,.85,.91,1.19,1.36,.51,18.66-27.92,46.18-48.5,77.15-61.44,.1-.04,.05-.21-.05-.16h0Z"
          fill="currentColor" />
        <path
          d="M281.2,271.97c-18.23,12.39-34.37,26.82-48.21,44.02-6.32,7.86-17.85,20.11-19.12,30.57-.1,.83,.89,1.22,1.36,.51,7-10.53,12.22-21.75,20.19-31.89,13.02-16.57,28.33-31.36,45.87-43.07,.09-.06,0-.21-.09-.14h0Z"
          fill="currentColor" />
        <path
          d="M254.64,266.94c-13.42,14.68-24.54,30.58-32.34,48.95-3.59,8.46-9.94,20.75-9.75,30.04,.01,.59,.89,1.01,1.27,.47,4.93-6.86,5.79-19.3,8.79-27.26,7.26-19.27,18.02-37.07,32.15-52.09,.08-.08-.05-.2-.13-.12h0Z"
          fill="currentColor" />
        <path
          d="M256.25,249.41c-23.16,26.12-41.2,63.41-48.1,97.91-.14,.68,.77,1.26,1.25,.66,6.58-8.08,8.16-23.94,11.42-33.61,7.93-23.53,18.65-46.36,35.55-64.84,.07-.08-.05-.2-.13-.12h0Z"
          fill="currentColor" />
        <path
          d="M302.16,309.92c-5.83,1.84-90,26.74-85.65,39.78,.2,.59,1.05,.7,1.35,.13,3.14-6.12,14.36-10.68,19.98-13.71,20.34-10.96,42.38-19.09,64.37-26.03,.1-.03,.05-.2-.05-.16h0Z"
          fill="currentColor" />
        <path
          d="M306.89,315.47c-23.99,7.53-48.05,15.1-71.01,25.44-4.34,1.96-12.65,4.23-15.5,8.29-.3,.43,.15,1.15,.67,1.08,5.09-.77,11-5.53,15.58-7.73,22.6-10.84,46.43-19.41,70.31-26.91,.1-.03,.05-.2-.05-.16h0Z"
          fill="currentColor" />
        <path
          d="M112.07,289.2c-10.01-3.75-16.66-13.48-21.93-22.36-3.57-6.02-10.74-19.71-.39-22.88,.55-.17,.29-.97-.26-.84-3.43,.82-4.17,2.14-7.32,4-.37,.22-.47,.74-.24,1.1,1.98,3.09,1.4,9.03,3.08,12.65,2.21,4.76,5.58,9.35,8.84,13.41,5.47,6.81,9.91,11.82,18.16,15.09,.11,.05,.18-.11,.06-.16h0Z"
          fill="currentColor" />
        <path
          d="M89.69,243.55c1.17-3.28,4.01-5.54,6.51-7.7,1.64-1.42,2.91-3.68,4.64-4.87,1.17-.44,2.33-.89,3.5-1.33,.33,.15,.66,.28,1,.4,.56-.15,.33,.15,1.25-.38,.79-.45,1-1.33,1.16-2.17,.09-.46-.55-.9-.88-.46-.21,.27-.42,.55-.62,.84-.69,.72-1.41,.82-2.15,.3-.16,.03-.3-.09-.49-.05-2.6,.67-3.66,2.14-5.36,4.14-3.12,3.65-7.45,6.29-8.71,11.25-.02,.09,.11,.12,.14,.03h0Z"
          fill="currentColor" />
        <path
          d="M107.5,227.09c3.74-4.81,8.73-8.15,13.21-12.2,4.95-4.48,7.67-8.68,14.67-8.31,7.32,.39,10.18,1.09,16.28-4.2,.56-.48-.26-1.48-.84-1-8.31,6.87-13.16,1.27-21.57,4.34-4.12,1.5-6.03,5.71-9.11,8.64-4.45,4.24-8.92,7.79-12.76,12.61-.07,.09,.06,.2,.13,.12h0Z"
          fill="currentColor" />
        <path
          d="M151.42,201.26c2.49-2.15,6.3-1.53,9.2-2.47,4.18-1.35,5.42-3.19,9.8-3.33,7.27-.23,15.25,3.06,20.11,8.13,.71,.74,1.85-.47,1.09-1.19-5.46-5.13-12.58-8.01-20.21-8.26-3.38-.11-5.98,1.01-9.05,2.21-3.59,1.41-8.67,1.44-11.07,4.78-.06,.09,.04,.19,.13,.12h0Z"
          fill="currentColor" />
        <path
          d="M191.01,203.3c48.88,11.32,19.12,83.27,17.83,115.65-.02,.57,.85,.54,.88-.03,1.13-25.75,13.75-52.97,11.06-78.56-1.66-15.75-12.75-36.06-29.71-37.64-.34-.03-.37,.51-.06,.58h0Z"
          fill="currentColor" />
        <path
          d="M203.26,325.67c-1.11,3.16-1.69,6.72-1.89,10.05-.24,3.91-.74,9.87,1.39,13.33,.19,.31,.74,.24,.8-.14,.66-3.92-.51-8.55-.45-12.6,.05-3.52-.29-7.12,.29-10.61,.02-.09-.11-.12-.14-.03h0Z"
          fill="currentColor" />
        <path
          d="M194.9,329.48c.39,1.67,.77,3.33,1.16,5,.13,.55,1.05,.27,.84-.26-.62-1.59-1.24-3.19-1.86-4.78-.03-.09-.16-.05-.14,.04h0Z"
          fill="currentColor" />
        <path
          d="M174.32,350.72c1.15,.77,1.64,2.4,2.39,3.51,.43,.63,.91,1.17,1.29,1.83,.09,.16,.58,.78,.5,1.01-.13,.37,.37,.67,.67,.47,.07-.05,.13-.09,.2-.14,.14-.1,.26-.27,.24-.45-.1-1.23-1.14-2.63-1.93-3.53-.86-.98-2.03-2.39-3.31-2.83-.08-.03-.11,.09-.05,.14h0Z"
          fill="currentColor" />
        <path
          d="M174.32,358.57c.48-.05,.93,.14,1.4,.16,.42,.02,.84-.05,1.25-.11,.76-.12,1.57-.13,2.13-.7,.32-.33,.03-.85-.39-.86-.63,0-1.14,.44-1.7,.71-.87,.42-1.68,.74-2.67,.63-.13-.01-.13,.18-.02,.17h0Z"
          fill="currentColor" />
        <path
          d="M174.83,358.83c1.14,.39,2.19,1.14,3.11,1.9,.07,.06,1.65,1.36,1.64,1.4-.12,.36,.39,.58,.63,.33,1.54-1.64-4.4-3.64-5.34-3.78-.09-.01-.12,.11-.03,.14h0Z"
          fill="currentColor" />
        <path
          d="M174.8,363.08c1.4,.46,5.16,1.02,5.74-.97,.23-.78-1.07-1-1.16-.12-.04,.37-1.46,.73-1.67,.78-.94,.23-1.92,.29-2.88,.16-.09-.01-.12,.11-.03,.14h0Z"
          fill="currentColor" />
        <path
          d="M174.79,363.08c.8,.46,1.68,.76,2.51,1.15,.55,.26,1.11,.54,1.56,.96,.45,.42,.51,1.12,1.07,1.36,.4,.18,.81-.23,.58-.63-1.27-2.16-3.55-2.14-5.66-2.98-.09-.03-.15,.08-.07,.13h0Z"
          fill="currentColor" />
        <path
          d="M178.51,368.62c2.7,1.52,5.79,1.98,8.83,1.3,1-.22,.52-1.87-.47-1.54-2.55,.85-5.73,.85-8.3,.1-.08-.02-.12,.1-.05,.14h0Z"
          fill="currentColor" />
        <path
          d="M183.51,371.44c.24-.38,1.01-.31,1.41-.38,.38-.07,.75-.17,1.1-.34,.63-.31,1.32-.79,1.6-1.45,.21-.51-.42-1.05-.83-.59-.48,.55-.91,1.26-1.51,1.68-.55,.38-1.28,.68-1.88,.97-.11,.05,.04,.25,.12,.11h0Z"
          fill="currentColor" />
        <path
          d="M185.29,371.25c.84-.2,1.73-.1,2.57-.34,.61-.18,1.06-.51,1.4-1.05,.38-.59-.71-1.11-.95-.36-.19,.59-.75,.85-1.28,1.09-.5,.22-1.18,.6-1.74,.49-.14-.03-.13,.2,0,.16h0Z"
          fill="currentColor" />
        <path
          d="M192.07,370.6c.79,.24,1.89,1.19,2.36,1.87,.38,.55,.42,1.26,.63,1.89,.19,.56,.86,.55,1.17,.11,.36-.51,.04-1.29,0-1.85-.04-.42-.05-.85-.15-1.26-.12-.48-.41-.96-.35-1.47,.05-.37-.46-.5-.57-.13-.23,.72,.08,1.48,.04,2.22-.02,.35-.08,.71-.09,1.06,0,.19,0,.39,0,.58,0,.07-.1,.52,0,.26,.36-.02,.73-.03,1.09-.05-.4-.63-.64-1.39-1.22-1.89-.83-.7-2.01-.83-2.83-1.48-.11-.09-.21,.11-.08,.15h0Z"
          fill="currentColor" />
        <path
          d="M195.37,369.84c.39,1.13,1.29,2.35,2.31,3,.78,.5,2.01,.92,2.95,.76,.3-.05,.4-.46,.25-.68-.52-.8-.94-1.62-1.37-2.47-.03-.06-.14-.03-.14,.04,.08,.6,.13,1.22,.23,1.82,.08,.45,.27,.71,.51,1.11,.12-.23,.25-.47,.37-.7-.79,.1-1.72-.45-2.41-.75-1-.43-1.98-1.25-2.56-2.18-.04-.07-.16-.02-.13,.06h0Z"
          fill="currentColor" />
        <path
          d="M199.37,370.53c1.24,2.1,4.64,1.97,6.73,2.71,.65,.23,.96-.67,.57-1.08-1.05-1.1-1.81-2.09-2.42-3.49-.11-.26-.48-.15-.42,.13,.31,1.53,.76,3.23,1.99,4.29,.19-.36,.38-.72,.57-1.08-1.29-.23-2.6-.13-3.89-.3-.73-.1-2.8-.28-2.96-1.25-.02-.11-.22-.05-.15,.07h0Z"
          fill="currentColor" />
        <path
          d="M204.03,368.82c1.18,.09,2.28,.66,3.52,.57,1.26-.09,2.56-.51,3.53-1.33,.42-.36-.25-1.02-.65-.59-.86,.93-2.27,1.46-3.52,1.55-.84,.06-2.12,.13-2.85-.36-.1-.07-.2,.15-.04,.16h0Z"
          fill="currentColor" />
        <path
          d="M206.7,366.31c.78,.21,1.4,.9,2.18,1.17,.76,.26,1.62,.36,2.41,.23,.65-.1,.44-1.07-.14-.86-1.31,.46-3.29,.27-4.38-.69-.1-.09-.21,.11-.08,.15h0Z"
          fill="currentColor" />
        <path
          d="M206.72,366.31c1.7-.12,3.39,0,5.08-.29,.97-.17,2.34-.98,2.53-2.02,.08-.42-.22-.82-.66-.81-.36,0-.55,.06-.84,.28-.19,.26-.39,.51-.58,.77-.33,.45-.75,.73-1.27,.83-1.22,.57-2.91,1.12-4.26,1.07-.11,0-.11,.18,0,.17h0Z"
          fill="currentColor" />
        <path
          d="M210.63,363.77c.6-.04,1.19,.27,1.82,.22,.65-.05,1.33-.15,1.98-.25,.67-.11,.41-1.09-.14-.86-.92,.38-2.64,1.27-3.62,.73-.13-.07-.18,.17-.04,.16h0Z"
          fill="currentColor" />
        <path
          d="M210.65,363.76c.4-.18,.85-.03,1.26-.15,.5-.14,.97-.48,1.41-.73,.81-.46,1.58-1.06,2.4-1.49-.2-.04-.39-.09-.59-.13,0,0,0,.01,.01,.02,.2,.28,.56,.24,.74-.03,.03-.04,.05-.08,.08-.12,.31-.47-.53-.93-.78-.41-.02,.04-.04,.09-.06,.13,.22-.04,.45-.08,.67-.12,0,0,0-.01-.01-.02-.12-.13-.38-.15-.52-.05-1.39,1.02-2.74,3.05-4.64,2.92-.13,0-.09,.22,.03,.17h0Z"
          fill="currentColor" />
        <path
          d="M213.96,360.83c.52,.03,1.04,.15,1.56,.15,.44,0,.91-.13,1.34-.21,.56-.1,.26-1.08-.26-.84-.41,.19-.83,.43-1.27,.53-.46,.11-.94,.13-1.4,.22-.09,.02-.05,.14,.02,.14h0Z"
          fill="currentColor" />
        <path
          d="M210.1,348.49c-.33-.21,1.54-3.31,2.07-3.39-.1-.07-.2-.14-.3-.21,.17,.53,.48,.96,.8,1.4,.36,.5,.46,1.07,.78,1.58,.22,.37,.83,.18,.81-.25-.07-1.32-1.32-1.89-1.84-2.99-.06-.12-.23-.16-.34-.13-.71,.2-1.05,1.24-1.34,1.86-.18,.38-.35,.77-.5,1.17-.11,.3-.11,.72-.25,.99-.11,.2,.32,.1,.12-.04h0Z"
          fill="currentColor" />
        <path
          d="M214.13,347.71c.08-.11,.38-.15,.5-.19,.12-.04,.24-.09,.36-.15,.33-.15,.63-.3,.98-.36,.48-.08,.2-.95-.31-.66-.29,.17-.52,.38-.75,.62-.16,.17-.58,.7-.84,.62-.18-.06-.07,.31,.06,.12h0Z"
          fill="currentColor" />
        <path
          d="M215.41,346.94c.64,.82,1.28,2.08,.99,3.13-.16,.59,.85,.75,.87,.09,.02-.6-.19-1.08-.46-1.61-.27-.54-1.18-1.08-1.24-1.66-.02-.16-.24-.05-.16,.05h0Z"
          fill="currentColor" />
        <path
          d="M216.49,350.23c.51-.02,.88,.04,1.39-.03,.56-.08,1.14-.11,1.7-.18,.7-.08,1.96-.06,2.49-.62,.4-.42-.32-1.05-.65-.6-.37,.51-1.91,.65-2.48,.8-.83,.2-1.64,.34-2.47,.49-.08,.02-.06,.15,.02,.14h0Z"
          fill="currentColor" />
        <path
          d="M220.99,349.4c-.05,.45-.21,.87-.4,1.27-.08,.17-.19,.34-.25,.53-.07,.2-.08,.42-.11,.63-.02,.13,.16,.26,.25,.13,.3-.4,.46-.7,.56-1.2,.09-.44,.15-.89,.1-1.35,0-.08-.13-.1-.14-.01h0Z"
          fill="currentColor" />
        <path
          d="M220.46,352.03c.13-.14,.42-.05,.58-.09,.09-.02,.17-.05,.25-.09,.19-.08,.37-.18,.55-.28,.33-.19,.67-.43,.63-.85-.03-.32-.52-.24-.43,.07,.08,.28-.34,.56-.53,.7-.27,.21-.7,.56-1.07,.4-.2-.08-.11,.28,.02,.13h0Z"
          fill="currentColor" />
        <path
          d="M222.35,350.61c.41,.82,.03,2.1-.41,2.82-.43,.71-1.19,1.04-1.61,1.74-.21,.35,.34,.76,.59,.42,.33-.44,.83-.59,1.23-.94,.33-.29,.8-.79,.94-1.24,.31-1.03-.48-1.9-.59-2.85-.02-.14-.22-.08-.16,.05h0Z"
          fill="currentColor" />
        <path
          d="M219.79,355.65c.73,.74,1.71,.6,2.65,.42,.47-.09,.22-.89-.22-.7-.77,.34-1.57,.66-2.35,.16-.07-.05-.14,.06-.08,.12h0Z"
          fill="currentColor" />
        <path
          d="M216.37,357.86c1.48,.26,3.02,.45,4.41-.3,.97-.52,2.27-1.55,2.2-2.77-.04-.64-1.03-.79-1.16-.12-.39,2.06-3.44,3.85-5.39,3.03-.12-.05-.18,.14-.06,.16h0Z"
          fill="currentColor" />
        <path
          d="M216.26,357.86c.31,.4,.74,1.49,.43,1.95-.21,.31,.34,.62,.52,.27,.36-.7-.21-1.91-.72-2.42-.12-.11-.33,.05-.22,.19h0Z"
          fill="currentColor" />
        <path
          d="M174.38,350.74c.41-.11,1.09,.05,1.51,.06,.64,.02,1.28,.02,1.92,.04,1.06,.03,2.39,.36,3.3-.33,.42-.32-.08-.93-.47-.56-.71,.68-2.34,.46-3.29,.55-.7,.06-2.33,.51-2.95,.09-.12-.08-.19,.2-.01,.16h0Z"
          fill="currentColor" />
        <path
          d="M177.69,344.98c.72,.08,1.54,2.03,1.83,2.58,.44,.83,.88,1.69,1.15,2.6,.08,.27,.52,.13,.42-.13-.34-.91-.86-1.77-1.37-2.59-.32-.51-.65-1.02-1.02-1.5-.24-.31-.78-.72-.91-1.06-.07-.19-.27,.09-.1,.11h0Z"
          fill="currentColor" />
        <path
          d="M177.71,344.98c.63,.03,1.38,1.74,1.75,2.2,.52,.67,1.27,1.12,1.84,1.75,.31,.35,.86-.23,.5-.54-.72-.61-1.61-1-2.25-1.69-.32-.34-.62-.71-.94-1.05-.23-.25-.66-.51-.82-.8-.08-.15-.27,.12-.07,.13h0Z"
          fill="currentColor" />
        <path
          d="M186.51,348.55c-.09-.13,.02-.58,.02-.73,0-.3-.02-.59-.05-.88-.05-.5-.14-1.01-.27-1.5-.02-.09-.17-.05-.14,.04,.14,.45,.25,.91,.32,1.38,.04,.25,.31,1.51,0,1.66-.22,.11,.27,.24,.12,.03h0Z"
          fill="currentColor" />
        <path
          d="M186.13,345.54c1.11,.31,2.28,1.69,2.85,2.62,.3,.48,1.2,1.62,1.18,2.21-.02,.37,.6,.36,.59-.02-.04-.81-1.01-1.77-1.47-2.38-.86-1.14-2.07-1.64-3.07-2.57-.1-.09-.22,.11-.08,.15h0Z"
          fill="currentColor" />
        <path
          d="M183.68,346.3c.6,.19,1.18,.82,1.62,1.24,.4,.38,.6,.78,.9,1.22,.24,.34,.75-.06,.45-.37-.19-.2-.27-.41-.47-.6-.19-.17-.38-.31-.59-.45-.25-.17-.49-.35-.76-.51-.33-.2-.81-.34-1.05-.66-.1-.13-.24,.08-.09,.13h0Z"
          fill="currentColor" />
        <path
          d="M192.77,351.99c.34,.91,.8,1.66,1.21,2.53,.43,.91,.69,2.09,1.29,2.9,.08,.11,.27,.07,.27-.08-.01-.82-.71-1.8-1.07-2.51-.51-.99-1.11-1.87-1.55-2.88-.04-.08-.17-.05-.14,.04h0Z"
          fill="currentColor" />
        <path
          d="M195.58,357.32c.23-.64,.29-1.28,.34-1.96,.02-.38-.16-1.2-.02-1.53-.09,.01-.17,.03-.26,.04,.81,.67,1.53,1.26,2.03,2.2,.37,.69,.65,1.38,1.16,1.98,.12,.14,.4,.01,.37-.17-.11-.68-.77-1.5-1.12-2.07-.25-.41-.5-.85-.84-1.2-.4-.41-.93-.65-1.38-.99-.07-.06-.22-.06-.26,.04-.12,.32-.02,.56,.03,.9,.12,.88,.06,1.86-.2,2.7-.03,.09,.11,.12,.14,.03h0Z"
          fill="currentColor" />
        <path
          d="M201.55,354.69c.12-.7,.11-1.39,.06-2.1-.05-.66-.25-1.56-.02-2.19-.12,.04-.24,.07-.36,.11,.96,.71,1.98,1.32,2.45,2.48,.03,.09,.17,.05,.14-.04-.38-1.22-1.36-1.95-2.29-2.76-.13-.11-.32-.05-.36,.11-.15,.56,.02,1.23,.1,1.8,.12,.85,.24,1.69,.15,2.56,0,.09,.13,.13,.14,.03h0Z"
          fill="currentColor" />
        <path
          d="M203.82,352.93c-.9-1.64-.17-3.63-.73-5.33-.1,.08-.2,.17-.3,.25,.92,.53,1.38,1.35,1.72,2.32,.06,.18,.34,.09,.28-.09-.33-1.08-.83-1.99-1.81-2.6-.16-.1-.35,.08-.3,.25,.25,.86,.27,1.73,.39,2.61,.12,.89,.53,1.76,.59,2.64,0,.14,.23,.08,.16-.05h0Z"
          fill="currentColor" />
        <path
          d="M207.04,346.09c-.13-.08-.33-.32-.5-.32-.04,0-.06,.05-.04,.08,.13,.21,.42,.39,.6,.56,.28,.26,.57,.52,.86,.77,.33,.29,.69,.55,1.04,.82,.22,.17,.6,.4,.72,.66,.11,.26,.54,.13,.42-.13-.28-.63-1.19-1.17-1.73-1.54-.36-.25-.74-.46-1.1-.71-.11-.08-.22-.17-.34-.24-.57-.35-.05-.04-.06,.13,0,.18,.29,.02,.13-.08h0Z"
          fill="currentColor" />
      </g>
      <g>
        <path
          d="M.03,560.96c5.6,5.08,14.13,5.59,21.03,8.11,9.13,3.33,16.28,8.65,24.45,13.54,.79,.47,1.44-.78,.66-1.26-7.14-4.35-13.13-9.17-21.03-12.43-3.59-1.48-7.26-2.71-10.93-3.92-4.34-1.42-10.34-1.63-14.08-4.2-.09-.06-.18,.08-.1,.15H.03Z"
          fill="currentColor" />
        <path
          d="M32.45,561.79c3.23,5.36,6.41,10.76,9.65,16.11,1.13,1.86,2.39,5.58,5.11,4.83,.41-.11,.51-.66,.21-.93-5.85-5.41-10.94-13.12-14.82-20.1-.06-.1-.22,0-.15,.1h0Z"
          fill="currentColor" />
        <path
          d="M10.37,558.54c1.61,3.35,4.79,5.54,7.86,7.46,1.73,1.08,3.5,2.12,5.36,2.95,1.32,.59,3.07,1.09,4.03,2.22,.33,.39,.86-.2,.53-.58-4.73-5.58-13.68-5.47-17.65-12.14-.05-.09-.18,0-.13,.08h0Z"
          fill="currentColor" />
        <path
          d="M25.94,562.43c2.73,6.15,6.91,10.9,12.07,15.06,.39,.32,.92-.25,.53-.58-1.95-1.68-3.56-3.8-5.39-5.61-2.7-2.69-5.18-5.61-7.07-8.94-.04-.08-.18-.02-.14,.07h0Z"
          fill="currentColor" />
        <path
          d="M.03,560.96c13.15,9.81,28.51,20.42,45.19,22.73,.69,.1,.96-.95,.25-1.08-8.33-1.44-16.23-5.15-23.69-8.99-7.21-3.72-15.35-7.59-21.62-12.79-.09-.08-.22,.07-.12,.14H.03Z"
          fill="currentColor" />
        <path
          d="M.18,560.94c4.63-8.6,18.55-9.13,26.91-8.71,10.26,.51,17.73,5.92,24.25,13.37,4.78,5.47,8.39,11.79,15.55,14.39,.57,.21,.78-.72,.22-.92-14.54-5.28-18.29-23.96-35.06-27.1-10.28-1.93-26.29-1.15-32.03,8.88-.06,.1,.11,.19,.16,.09H.18Z"
          fill="currentColor" />
        <path
          d="M.19,560.89c1.06-14.68,19.91-12.16,29.6-11.58,9.93,.59,19.38-.11,29.25-.23,.81,0,.77-1.27-.04-1.26-7.7,.13-15.03,1.04-22.79,.64-7.05-.37-15.05-1.81-22.03-.49-7.06,1.33-12.84,5.43-14.17,12.91-.02,.13,.17,.15,.18,.02H.19Z"
          fill="currentColor" />
        <path
          d="M40.47,590.42c6.41-10.92,30.16,4.83,39.56,6.92,5.5,1.22,11.41,1.86,16.92,.3,9.32-2.64,14.61-10.62,19.61-18.32,.55-.85-.85-1.58-1.39-.74-10.26,15.85-21.13,21.84-40.32,16.06-7.28-2.19-28.31-16.97-34.52-4.3-.04,.09,.09,.16,.14,.07h0Z"
          fill="currentColor" />
        <path
          d="M95.8,591.81c4.61-.41,8.54-2.04,12.38-4.61,2.33-1.56,6.93-4.15,7.93-6.93,.12-.34-.29-.67-.6-.56-2.51,.85-4.81,4.3-6.86,5.96-3.6,2.91-8.05,5.98-12.86,5.95-.12,0-.11,.19,0,.18h0Z"
          fill="currentColor" />
        <path
          d="M40.48,590.42c6.82-14.09,28.41-10.2,41.26-8.55,11.35,1.46,22.44,2.67,33.33-1.75,.65-.27,.33-1.32-.33-1.06-15.55,6.27-31.79,.84-47.81,.33-11.75-.38-21.38-.7-26.62,10.94-.05,.11,.11,.19,.16,.09h0Z"
          fill="currentColor" />
        <path
          d="M48.78,555.27c6.46,4.99,9.66,12.71,16.18,17.68,3.49,2.66,7.32,4.45,11.45,5.83,12.52,4.2,25.94,4.97,38.68,1.41,.78-.22,.41-1.42-.37-1.21-12.53,3.46-25.72,2.64-38-1.53-12.13-4.12-17.89-15.14-27.82-22.32-.09-.07-.22,.06-.12,.14h0Z"
          fill="currentColor" />
        <path
          d="M48.82,555.29c12.84,4.54,26.11-2.31,39.25,1.69,8.95,2.73,27.97,10.98,27.32,21.98-.04,.61,.9,.57,.95-.03,.75-10.75-14.61-17.44-22.54-21-3.66-1.64-6.99-3-10.98-3.52-10.89-1.42-23.56,3.72-33.95,.7-.12-.03-.15,.14-.04,.18h0Z"
          fill="currentColor" />
        <path
          d="M87.41,563.81c-6.12-1.73-11.74-4.07-18.09-5.26-6.12-1.14-13.46,.33-18.91-3.01-.23-.14-.49,.22-.27,.38,4.79,3.51,9.63,2.74,15.17,3.03,7.66,.4,14.89,2.57,22.06,5.04,.11,.04,.16-.15,.04-.18h0Z"
          fill="currentColor" />
        <path
          d="M95.65,564.51c8.14,1.36,16.78,6.56,19.53,14.66,.3,.88,1.73,.39,1.36-.42-4.09-8.96-11.97-11.86-20.84-14.42-.11-.03-.16,.16-.04,.18h0Z"
          fill="currentColor" />
        <path
          d="M95.65,564.51c8.47,2.38,16.68,5.7,19.53,14.66,.28,.89,1.71,.41,1.36-.42-1.46-3.38-3.16-6.46-6.23-8.63-4.33-3.05-9.73-4.01-14.61-5.79-.11-.04-.16,.15-.04,.18h0Z"
          fill="currentColor" />
        <path
          d="M97.08,579c6.53,1.11,12.22,1.48,18.8,.66,1.03-.13,.77-1.65-.23-1.39-5.97,1.6-12.49,1.97-18.53,.55-.12-.03-.16,.16-.04,.18h0Z"
          fill="currentColor" />
        <path
          d="M101.91,555.81c8.99,3.79,14.17,13.1,13.52,22.69-.06,.9,1.44,.88,1.42-.04-.25-10.5-5.57-18.18-14.86-22.81-.11-.05-.19,.12-.09,.16h0Z"
          fill="currentColor" />
        <path
          d="M116.7,578.17c-.46-11.59-3.73-25.33-15.7-30.17-12.37-5-44.62,3.72-43.72-15.61,.01-.3-.46-.29-.47,.01-.79,19.54,22.88,13.37,35.01,15.08,16.75,2.36,21.91,14.9,24.7,30.72,.02,.1,.18,.07,.18-.03h0Z"
          fill="currentColor" />
        <path
          d="M97.7,559.7c-6.58-4.49-13.93-6.6-21.74-7.78-2.08-.31-3.93-.36-6-.44-9.21-.38-20.62-9.13-12.72-18.92,.19-.24-.15-.55-.35-.32-6.51,7.69-.4,17.36,8.35,19.63,3.65,.95,7.48,.53,11.23,1.16,6.93,1.18,15.37,2.63,21.13,6.82,.11,.08,.22-.07,.1-.15h0Z"
          fill="currentColor" />
        <path
          d="M10.92,548.86c7.47-2.95,14.17-3.89,22.04-3.86,7.88,.03,17.58-.52,24.54,3.69,.96,.58,1.78-.97,.81-1.53-13.23-7.71-34.09-3.4-47.44,1.53-.11,.04-.06,.22,.05,.18h0Z"
          fill="currentColor" />
        <path
          d="M47.08,537.21c-.3,2.33,1.02,4.65,2.57,6.32,1.41,1.52,4.54,3.16,6.65,2.85,.45-.07,.65-.64,.21-.89-1.6-.91-3.6-.89-5.24-1.84-2.02-1.17-3.99-4.09-3.88-6.41,0-.18-.29-.21-.31-.03h0Z"
          fill="currentColor" />
        <path
          d="M47.17,537.07c.03,.2-.54,.84-.63,.98-.39,.61-.73,1.27-.97,1.96-.28,.78-.54,1.72-.2,2.52,.72,1.68,3.39,3.32,5.18,3.23,.6-.03,.75-1,.11-1.09-1.42-.2-3.7-.98-4.53-2.25-.61-.93-.28-2.16,.06-3.16,.08-.24,.66-2.1,1.07-2.1,.28,0-.13-.35-.09-.09h0Z"
          fill="currentColor" />
      </g>
      <g>
        <path
          d="M477.19,593.47c-29.53-26.04-126.19-70.99-134.3-.07-.19,1.71,2.43,2.33,2.62,.61,7.92-69.29,102.08-21.94,131.51-.36,.12,.09,.29-.07,.17-.18h0Z"
          fill="currentColor" />
        <path
          d="M474.16,602.98c-13.52-6.67-30.54,3.9-42.86,9.1-30.74,12.97-73.79,29.01-85.8-17.06-.4-1.52-2.82-.79-2.34,.72,7.22,22.61,23.49,36.6,47.73,32.75,14.32-2.27,27.87-8.58,41.07-14.28,11.2-4.84,29.6-16,42.06-10.99,.17,.07,.3-.17,.13-.25h0Z"
          fill="currentColor" />
        <path
          d="M377.46,563.13c-14.11,1.53-30.97,12.46-32.76,27.83-.2,1.75,2.31,2.02,2.42,.24,.85-13.82,17.08-27.37,30.35-27.79,.19,0,.17-.3,0-.28h0Z"
          fill="currentColor" />
        <path
          d="M394.23,602.37c-8.66,.57-17.55,.46-26.19-.41-6.78-.69-17.3-1.62-20.23-9-.59-1.48-2.98-.69-2.34,.72,6.87,15.16,36.37,9.26,48.76,8.97,.18,0,.17-.3,0-.28h0Z"
          fill="currentColor" />
        <path
          d="M405.18,604.53c-17.41,3.43-49.29,11.63-58.27-9.64-.69-1.62-2.96-.6-2.2,1.02,10.68,22.89,41.57,11.85,60.51,8.9,.2-.03,.16-.32-.05-.28h0Z"
          fill="currentColor" />
        <path
          d="M378.69,576.49c-7.07,2.29-14.5,2.2-21.48,5.34-4.78,2.14-13,7.4-10.79,13.78,.26,.76,1.43,.98,1.8,.17,1.35-2.94,1.53-5.52,3.92-8.05,2.68-2.83,6.38-4.73,9.93-6.24,4.84-2.06,11.31-4.66,16.67-4.72,.21,0,.15-.34-.05-.28h0Z"
          fill="currentColor" />
        <path
          d="M384.68,618.27c-7.18,1.49-16.07-.34-22.67-3.28-8.87-3.96-13.6-10.91-16.51-19.97-.49-1.53-2.63-.79-2.34,.72,1.84,9.5,8.58,16.69,17.46,20.26,8.03,3.23,15.7,2.69,24.1,2.55,.2,0,.16-.32-.05-.28h0Z"
          fill="currentColor" />
        <path
          d="M474.16,602.98c-11.19-5.22-20.62-6.13-32.93-3.98-.4,.07-.29,.78,.12,.72,10.21-1.49,23.6-2.5,32.68,3.51,.15,.1,.3-.17,.13-.25h0Z"
          fill="currentColor" />
        <path
          d="M474.53,598.2c-21.06-2.66-39.84,1.95-59.81,8.38-25.9,8.33-53.45,19.73-68.66-11.52-.21-.42-.82-.03-.62,.4,8.42,17.59,20.59,24.21,39.91,20.98,30.56-5.12,56.87-23.18,89.11-17.95,.18,.03,.24-.25,.06-.28h0Z"
          fill="currentColor" />
        <path
          d="M432.49,579.18c7.98,3.33,15.75,6.79,24.23,8.67,6.42,1.43,12.96,2.3,19.07,4.86,.43,.18,.78-.46,.34-.65-13.9-6.15-29.59-6.61-43.52-13.13-.17-.08-.3,.18-.13,.25h0Z"
          fill="currentColor" />
        <path
          d="M474.53,598.2c-27.29-8.79-50.09-28.14-79.44-31.63-18.36-2.18-42.92,4.68-48.42,24.38-.13,.46,.59,.62,.72,.17,10.31-35.99,58.67-22.74,81.92-13.3,15.34,6.23,29.91,14.14,45.12,20.65,.19,.08,.3-.2,.1-.26h0Z"
          fill="currentColor" />
      </g>
      <g>
        <path
          d="M350.55,452.82c.23-7.81,.04-15.47-1.46-23.16-1.42-7.32-4.9-15.28-3.79-22.8,.09-.59-.81-.82-.92-.21-.9,5.18,.57,10.58,1.61,15.64,2.06,10.03,5.09,20.24,4.19,30.55-.02,.23,.36,.23,.37-.01h0Z"
          fill="currentColor" />
        <path
          d="M328.13,497.3c3.59-10.96,6.94-21.69,7.16-33.31,.13-6.96-1.48-14.47-.23-21.35,.11-.6-.8-.81-.92-.21-1.15,5.57-.18,11.48-.19,17.11-.02,12.74-1.77,25.7-6.18,37.68-.08,.22,.28,.31,.36,.08h0Z"
          fill="currentColor" />
        <path
          d="M340.56,485.95c.23-9.23,.75-18.18-1.89-27.13-1.43-4.84-4.64-10.18-3.73-15.36,.11-.59-.8-.81-.92-.21-.85,4.13,.82,7.87,2.04,11.75,3.14,9.96,4.8,20.52,4.12,30.96-.02,.23,.36,.23,.37-.01h0Z"
          fill="currentColor" />
        <path
          d="M343.64,481.63c-.28-7.6-.28-15.12-3-22.33-1.94-5.13-4.76-9.86-5.49-15.37-.08-.59-1-.58-.94,.03,.46,4.58,2.31,8.59,3.95,12.83,3.07,7.96,5.16,16.28,5.12,24.85,0,.24,.37,.22,.37-.01h0Z"
          fill="currentColor" />
        <path
          d="M344.82,506.52c-.85,9.01-7.55,16.35-14.92,20.93-2.71,1.68-7.35,4.81-10.78,4.75,.46,.43,.92,.87,1.38,1.3,0-.01,0-.02,0-.03-.25-1.69-2.94-1.62-2.68,.08,0,.01,0,.02,0,.03,.1,.69,.59,1.36,1.38,1.3,4.5-.32,9.87-4.41,13.2-7.03,7.2-5.65,10.84-12.5,12.72-21.3,.05-.22-.29-.26-.31-.03h0Z"
          fill="currentColor" />
        <path
          d="M340.66,496.47c1.47,10.14-3.68,20.26-10.61,27.34-2.72,2.77-7.27,7.45-11.29,8.44,.57,.53,1.13,1.06,1.7,1.59,0,0,0-.01,0-.02,.21-1.7-2.4-2.32-2.61-.61,0,0,0,.01,0,.02-.12,.96,.65,1.93,1.7,1.59,4.75-1.56,9.57-7.01,12.6-10.67,6.87-8.29,8.99-17.12,8.83-27.67,0-.21-.34-.19-.31,0h0Z"
          fill="currentColor" />
        <path
          d="M308.49,486.98c-4.34,12.1-4.67,23.68,1.02,35.44,1.42,2.93,5.33,11.71,9.34,12.39,1.72,.29,2.3-2.41,.61-2.61-3.19-.37-7.44-9.07-8.71-11.51-5.52-10.5-6.51-22.54-1.97-33.61,.09-.21-.21-.32-.29-.11h0Z"
          fill="currentColor" />
        <path
          d="M313.94,504.71c0,.88-1.21,33.93,5.93,29.92,1.5-.84,0-3.24-1.44-2.26,1.25-.86,.43,.28-.19-1.43-.58-1.61-1.4-3.06-1.89-4.74-1.95-6.77-2.53-14.51-2.11-21.51,.01-.2-.31-.19-.31,0h0Z"
          fill="currentColor" />
        <path
          d="M357.96,444.75c-8.95,5.73-13.36,20.4-11.98,30.43,.2,1.46,2.51,1.38,2.3-.07-.83-5.57,.39-11.18,2.22-16.43,1.69-4.83,3.57-10.35,7.59-13.77,.09-.08-.04-.22-.13-.16h0Z"
          fill="currentColor" />
        <path
          d="M334.44,440.97c-3.14,17.25-24.3,27.32-31.77,42.9-9.25,19.3,.99,37.01,14.17,51.5,.99,1.09,2.55-.61,1.55-1.69-19.38-21.17-21.95-41.49-3.73-63.71,7.06-8.61,18.34-17.23,19.99-28.95,.02-.13-.18-.18-.2-.05h0Z"
          fill="currentColor" />
        <path
          d="M314.75,437.24c-.64,21.38-17.15,38.19-19.77,59.18-2.27,18.19,8.08,30.22,22.55,39.79,1.23,.81,2.3-1.22,1.07-2.03-44.29-29.09-3.24-59.8-3.64-96.95,0-.14-.2-.13-.21,0h0Z"
          fill="currentColor" />
        <path
          d="M334.44,441.03c3.27,14.21,10.34,27.18,13.99,41.29,6.65,25.71-4.77,41.97-29.1,51.75-1.36,.55-.69,2.75,.68,2.19,17.94-7.28,33.67-18.83,32.96-39.9-.66-19.72-13.26-36.77-18.32-55.39-.04-.13-.23-.07-.2,.06h0Z"
          fill="currentColor" />
        <path
          d="M357.93,444.79c-7.44,12.65-2.73,28.03-1.32,41.64,.94,9.01,1.45,18.54-2.94,26.8-6.93,13.03-22.56,17.76-35.94,20.86-1.44,.33-.76,2.53,.68,2.19,19.02-4.47,38.54-13.01,40.75-34.69,1.89-18.55-10.44-39.2-1.03-56.71,.06-.12-.12-.21-.18-.1h0Z"
          fill="currentColor" />
        <path
          d="M315.07,437.41c-.1-.02-.19-.05-.29-.07-.13-.03-.2,.13-.11,.21,5.73,5.81,6.8,16.71,5.31,24.15-.24,1.19,1.62,1.62,1.83,.43,1.01-5.77,.74-11.67-1.6-17.12-.67-1.55-3.16-7.16-5.19-7.4,.13,.02,.18-.17,.05-.2h0Z"
          fill="currentColor" />
        <path
          d="M344.74,406.73c-3.21,9.36-4.77,18.43-2.56,28.2,2.07,9.13,5.03,16.68,4.92,26.29-.01,.93,1.53,1.11,1.65,.16,.87-7.3-.67-13.54-2.91-20.45-3.77-11.65-3.31-22.15-.9-34.17,.03-.13-.16-.17-.2-.05h0Z"
          fill="currentColor" />
        <path
          d="M344.62,406.39c5.24,13.46,9.97,26.94,8.37,41.59-.11,1.04,1.36,1.45,1.63,.38,3.45-13.78-2.84-30.44-9.81-42.05-.06-.1-.23-.02-.19,.09h0Z"
          fill="currentColor" />
        <path
          d="M344.65,406.29c-4.8,6.18-11.48,10.59-16.66,16.43-5.45,6.15-8.69,13.57-9.01,21.81-.04,.94,1.49,1.1,1.65,.16,1.62-9.69,4.79-17.16,11.77-24.15,4.54-4.55,9.27-8.42,12.42-14.14,.06-.1-.09-.21-.17-.12h0Z"
          fill="currentColor" />
      </g>
      <g>
        <g>
          <path
            d="M121.91,212.92c.32-.36,.64-.72,.95-1.09-6.41-1.2-12.87-1.29-19.56-2.05-.11-.01-.13,.16-.02,.17,6.62,.56,12.75,1.5,18.62,2.97Z"
            fill="currentColor" />
          <path
            d="M124.19,210.32c.2-.2,.41-.39,.62-.57-2.76-.79-5.45-1.37-7.89-1.7-.09-.01-.11,.13-.01,.15,2.44,.42,4.89,1.2,7.28,2.12Z"
            fill="currentColor" />
          <g>
            <path
              d="M113.41,220.95c-.07-.15-.07-.33,.1-.47,.32-.26,.64-.52,.96-.78-4.87,.14-9.8,.66-14.86,1.64-14.62,2.83-28.91,4.95-43.82,4.32-14.46-.61-23.89-1.86-37.01,4.98-.1,.05-.03,.2,.07,.16,15.9-7.8,31.2-3.12,47.72-3.6,9.56-.28,19.12-2.08,28.5-3.8,6.17-1.13,12.09-1.84,17.89-2.09l.45-.36Z"
              fill="currentColor" />
            <path
              d="M126.53,208.53c.37-.22,.74-.42,1.12-.6-13.45-5.51-28.9-7.04-43.31-6.36-22.1,1.05-52.2,11.36-65.89,29.21-.07,.09,.06,.18,.14,.1,23.41-25.31,73.31-36.51,107.94-22.36Z"
              fill="currentColor" />
            <path
              d="M118.15,216.61c.26-.23,.52-.45,.77-.69,.08-.08,.17-.16,.25-.24-17.06-1.61-35.22,.3-50.4,1.68-.11,.01-.08,.18,.03,.17,15.02-1.66,32.63-2.81,49.35-.93Z"
              fill="currentColor" />
            <path
              d="M18.27,231.16c11.93-9.13,28.1-13.11,42.89-13.03,.09,0,.11-.14,.01-.15-16.32-.46-29.72,4.37-43.02,13.04-.09,.06,.02,.2,.11,.13h0Z"
              fill="currentColor" />
            <path
              d="M19.84,230.12c.31-1.81,6.59-4.94,7.85-5.68,7.22-4.24,15.02-7.35,23.02-9.72,.09-.03,.07-.17-.02-.14-7.76,2.05-15.56,4.59-22.38,8.9-2,1.26-3.94,2.64-5.75,4.16-.3,.25-2.35,2.5-2.77,2.4-.26-.06,.01,.34,.05,.09h0Z"
              fill="currentColor" />
            <path
              d="M19.78,230.18c11.57-6.26,24.27-10.54,37.53-8.23,.28,.05,.31-.38,.04-.44-13.48-3-26.34,1.16-37.65,8.54-.07,.05,0,.16,.08,.12h0Z"
              fill="currentColor" />
          </g>
        </g>
        <g>
          <path
            d="M37.92,88.03c6.6,5.25,13.76,7.59,21.92,9.35,4.5,.97,9.57,1.34,13.8,3.19,7.09,3.11,9.43,10.61,8.97,18.07-.06,1.03,1.55,1.2,1.61,.16,.42-6.82-1.34-15.2-7.71-18.73-3.13-1.73-6.94-2.24-10.4-2.98-9.84-2.1-19.27-4.03-28.09-9.18-.08-.05-.16,.06-.09,.12h0Z"
            fill="currentColor" />
          <path
            d="M37.9,88.02c5.97,6.25,12.72,10.61,20.63,14.06,8.99,3.93,17.97,6.18,23.28,15.19,.33,.56,1.21,.2,.94-.42-2.53-5.87-7.36-9.01-13.04-11.55-11.36-5.08-21.82-9.52-31.71-17.39-.06-.05-.16,.04-.1,.11h0Z"
            fill="currentColor" />
          <path
            d="M35.2,95.26c19.36,3.64,24.59,28.24,46.39,24.34,.39-.07,.41-.74-.02-.73-13.38,.36-19.06-5.1-27.74-14.25-5.47-5.77-10.72-8.61-18.62-9.53-.11-.01-.12,.15-.02,.17h0Z"
            fill="currentColor" />
          <path
            d="M35.16,95.24c13.99,7.86,28.76,42.86,48.38,24.93,.78-.71-.32-1.79-1.05-1.01-17.16,18.42-32.84-19.55-47.24-24.07-.09-.03-.17,.1-.08,.15h0Z"
            fill="currentColor" />
          <path
            d="M43.07,95.52c2.59,1.71,4.93,4.98,6.97,7.29,2.45,2.79,4.83,5.71,8.03,7.67,.48,.29,.99-.37,.52-.71-3.28-2.4-6.12-5.51-9-8.36-2.01-2-4.71-3.77-6.4-6.02-.08-.1-.22,.05-.12,.12h0Z"
            fill="currentColor" />
          <path
            d="M43.09,95.54c4.14,1.38,8.15,2.33,12.01,4.48,.48,.27,.99-.36,.52-.71-1.83-1.36-3.73-2.15-5.98-2.58-2.13-.41-4.54-.31-6.49-1.34-.1-.05-.17,.12-.06,.16h0Z"
            fill="currentColor" />
          <path
            d="M75.9,104.37c3.11,1.92,5.48,5.51,6.41,9.03,.26,.98,.43,2.01,.45,3.02,0,.28-.14,.81-.04,1.05,.27,.69-1.07,.07,.6,.02-1.06,.03-1.01,1.58,.05,1.46,1.59-.19,.42-4.19,.21-4.92-1.27-4.37-4.21-6.98-7.58-9.79-.09-.07-.19,.08-.1,.14h0Z"
            fill="currentColor" />
          <path
            d="M71.1,103.27c4.26,2.12,7.71,6.06,9.74,10.32,.59,1.24,1.11,2.55,1.43,3.9,.08,.32,.09,.71,.21,1.01,.31,.77-.42,.45,.45,.04-.87,.41-.22,1.8,.6,1.34,1.45-.81-.73-4.73-1.15-5.58-2.52-5.06-6.47-8.26-11.19-11.17-.1-.06-.19,.09-.08,.15h0Z"
            fill="currentColor" />
          <path
            d="M63.43,107.82c4.44,.6,8.67,3.75,12.21,6.3,1.41,1.02,5.02,3.38,5.54,4.31,.51,.92,1.83,.14,1.24-.76-1.24-1.91-4.8-3.46-6.64-4.59-3.93-2.41-7.88-4.22-12.32-5.43-.12-.03-.16,.15-.04,.16h0Z"
            fill="currentColor" />
          <path
            d="M56.84,105.55c5.53,4.83,11.28,8.99,18.21,11.54,1.51,.55,5.34,2.36,7.11,1.72,.88-.32,.28-1.71-.6-1.34-1.27,.53-6.2-1.41-7.95-2.03-6.14-2.19-11.88-5.59-16.67-10.02-.08-.07-.18,.07-.1,.14h0Z"
            fill="currentColor" />
          <path
            d="M64.94,119.31c3.89,2.41,8.07,4.18,12.68,3.12,3.14-.72,4.79-1.68,5.21-5.13,.1-.81-1.17-1.14-1.42-.33-.76,2.44-1.76,3.46-4.15,4.28-3.94,1.35-8.85,.3-12.22-2.08-.09-.06-.19,.08-.1,.14h0Z"
            fill="currentColor" />
        </g>
        <g>
          <path
            d="M10.57,152.15c22.87-9.84,74.02-24.96,77.28,16.33,.08,1.04,1.69,.77,1.6-.27-3.3-41.82-55.82-28.81-78.94-16.2-.08,.04-.03,.17,.06,.13h0Z"
            fill="currentColor" />
          <path
            d="M10.87,152.01c28.39-1.87,49.41,16.74,77.24,18.14,.66,.03,.77-.96,.1-1.03-27.4-2.85-49.37-21.7-77.36-17.26-.1,.02-.07,.15,.02,.15h0Z"
            fill="currentColor" />
          <path
            d="M14.75,157.85c14.42-2.42,29.92,11.12,43,15.53,10.57,3.56,20.9,3.96,30.32-2.62,.34-.24-.01-.82-.38-.63-16.51,8.7-30.94,2.09-46.3-5.54-8.56-4.25-16.89-8.77-26.67-6.92-.11,.02-.08,.19,.03,.17h0Z"
            fill="currentColor" />
          <path
            d="M13.62,157.99c11.29,3.22,20.67,7.98,29.44,15.78,5.4,4.8,10.54,10.37,17.57,12.71,12.98,4.33,22.63-6.37,29.09-16.52,.52-.81-.73-1.69-1.19-.88-4.58,8.14-12.83,17.77-23.3,16.89-7.65-.64-13.61-6.51-19.04-11.28-9.92-8.71-19.18-15.14-32.53-16.88-.09-.01-.13,.14-.04,.17h0Z"
            fill="currentColor" />
          <path
            d="M70.05,152.01c7.18,.23,16.82,9.25,17.88,16.46,.14,.94,1.65,.69,1.46-.24-1.67-8.16-11.54-15.32-19.32-16.39-.11-.02-.13,.17-.02,.17h0Z"
            fill="currentColor" />
          <path
            d="M68.43,156.24c6.31,.18,18.72,6.36,19.96,13.41,.17,.94,1.68,.68,1.46-.24-1.89-8.03-14.34-12.5-21.4-13.34-.11-.01-.13,.17-.02,.17h0Z"
            fill="currentColor" />
          <path
            d="M58.01,166.12c6.91,2.02,13.75,3.43,20.95,3.98,2.78,.21,6.77,1.08,9.5,.22,.89-.28,.3-1.68-.6-1.35-2.74,1.01-7.47,.17-10.35,.05-6.51-.28-13.24-.94-19.43-3.06-.11-.04-.17,.13-.06,.16h0Z"
            fill="currentColor" />
          <path
            d="M50.08,165.63c9.02,3.96,18.06,6.19,27.97,5.95,2.54-.06,8.36,.42,10.57-1.36,.74-.6-.21-1.78-.93-1.15-2.21,1.92-9.64,1.46-12.2,1.52-8.72,.19-17.45-1.36-25.35-5.12-.1-.05-.16,.12-.06,.16h0Z"
            fill="currentColor" />
          <path
            d="M64.01,180.62c5.65,1.23,11.61,.9,16.63-2.16,3.11-1.9,7.51-4.81,8.26-8.74,.15-.82-1.17-1.12-1.43-.33-1.02,3.13-4.56,5.98-7.06,7.83-4.38,3.25-11.03,4.84-16.36,3.25-.12-.04-.16,.14-.04,.17h0Z"
            fill="currentColor" />
          <path
            d="M32.22,164.11c-4.59-3.48-9.9-7.25-16.01-6.62-.29,.03-.21,.46,.07,.44,5.16-.36,12.12,2.94,15.84,6.32,.08,.07,.19-.07,.1-.14h0Z"
            fill="currentColor" />
          <path
            d="M11.28,155.37c5.03-1.16,9.61,2.37,14.48,3.17,.28,.05,.32-.39,.04-.44-2.92-.6-5.36-2.05-8.18-2.86-2.21-.64-4.14-.37-6.37-.04-.11,.02-.08,.19,.03,.17h0Z"
            fill="currentColor" />
          <path
            d="M11.75,155.28c4.74-1.46,9.22-3.61,14.26-3.62,.28,0,.33-.43,.04-.44-2.46-.09-4.97-.02-7.29,.9-2.4,.97-4.42,2.58-7.06,3-.12,.02-.07,.2,.05,.16h0Z"
            fill="currentColor" />
          <path
            d="M58.78,149.91c-15.85-5.33-30.08-3.21-45.82,1.1-.27,.07-.21,.51,.07,.44,15.05-3.92,30.57-7,45.69-1.38,.1,.04,.17-.13,.06-.16h0Z"
            fill="currentColor" />
          <path
            d="M52.43,151.5c-14.12-4.14-26.34-2.53-40.51-.09-.28,.05-.21,.48,.07,.44,13.55-2.13,26.93-4.57,40.37-.18,.11,.03,.17-.13,.06-.16h0Z"
            fill="currentColor" />
        </g>
        <g>
          <path
            d="M17.03,13.31c7.23,4.77,15.22,7.23,23.42,9.76,16.91,5.21,27.28,14.14,24.99,32.81-.11,.89,1.28,1.1,1.39,.2,4-32.67-27.93-31.55-49.73-42.87-.06-.03-.12,.07-.06,.11h0Z"
            fill="currentColor" />
          <path
            d="M17.01,13.3c6.93,8.92,15.19,15.69,24.52,22.06,8.32,5.68,18.86,10.8,23.3,20.34,.24,.52,1.01,.22,.83-.32-2.27-6.78-8.57-10.82-14.22-14.7-12.34-8.47-23.93-16.5-34.32-27.45-.05-.06-.15,0-.1,.08h0Z"
            fill="currentColor" />
          <path
            d="M12.54,20.36c12.67,2.67,17.59,16.93,25.66,25.43,7.51,7.91,16.61,11.09,27.39,10.4,.35-.02,.37-.62,0-.63-18.09-.52-26.13-9.53-36.1-23.05-4.66-6.32-8.96-10.92-16.93-12.3-.09-.02-.11,.13-.02,.15h0Z"
            fill="currentColor" />
          <path
            d="M12.52,20.36c6.97,2.9,9.57,16.18,12.5,22.31,2.82,5.91,6.17,11.93,11.39,16.08,9.92,7.88,20.31,4.26,30.1-2.25,.68-.45-.09-1.52-.75-1.03-18.82,14.05-33.44,.81-41.49-17.29-2.64-5.94-4.65-15.67-11.69-17.94-.09-.03-.15,.1-.06,.14h0Z"
            fill="currentColor" />
          <path
            d="M13.45,16.13c1.6,1.39,2.87,3.38,4.27,4.98,1.74,1.98,3.51,3.8,5.63,5.37,.4,.3,.83-.27,.47-.6-1.98-1.82-4.04-3.56-5.98-5.43-1.41-1.36-3.24-2.78-4.3-4.42-.06-.09-.19,.03-.11,.1h0Z"
            fill="currentColor" />
          <path
            d="M13.47,16.14c1.39,.67,2.65,.97,4.15,1.35,3.3,.83,5.63,2.79,7.92,5.25,.33,.35,.92-.05,.62-.45-1.76-2.34-3.92-4.04-6.78-4.82-1.66-.45-4.58-.16-5.84-1.45-.07-.07-.18,.08-.07,.13h0Z"
            fill="currentColor" />
          <path
            d="M59.53,37.78c3.61,1.86,4.87,6.91,5.44,10.57,.21,1.36,.35,2.73,.39,4.1,.03,.74-.3,2.5,.26,2.23-.82,.4-.2,1.56,.61,1.11,1.36-.77-.23-6.55-.45-7.53-.95-4.28-2.6-7.98-6.18-10.61-.09-.06-.17,.08-.08,.13h0Z"
            fill="currentColor" />
          <path
            d="M55.05,38.92c3.76,2,6.06,6.72,7.67,10.45,.6,1.39,1.14,2.8,1.6,4.24,.14,.42,.26,.85,.39,1.27,.18,.61-.03,1.02,.34,.59-.54,.62,.5,1.44,1,.79,.95-1.24-1.85-5.78-2.37-6.82-2.1-4.23-4.66-7.92-8.55-10.66-.09-.06-.17,.08-.08,.13h0Z"
            fill="currentColor" />
          <path
            d="M44.8,42.48c5.36,1.41,10.16,4.5,14.27,8.16,1.17,1.04,4.89,3.96,5.01,5.17,.08,.82,1.39,.67,1.26-.15-.25-1.66-3.77-4.08-4.82-4.97-4.69-3.95-9.83-6.56-15.68-8.36-.1-.03-.14,.11-.04,.14h0Z"
            fill="currentColor" />
          <path
            d="M37.29,39.17c5.11,6.28,10.97,11.29,18.45,14.52,1.86,.8,6.91,3.42,9.2,2.65,.78-.26,.31-1.48-.46-1.19-1.91,.74-7.08-1.77-9.06-2.57-7.08-2.87-13.35-7.44-18.01-13.5-.06-.08-.18,.01-.12,.09h0Z"
            fill="currentColor" />
          <path
            d="M42.05,56.15c3.66,3.01,6.89,4.03,11.54,3.95,4.18-.07,9.49-.51,12.46-3.81,.47-.53-.33-1.38-.87-.91-5.72,4.94-17.31,5.91-23.03,.66-.07-.06-.17,.05-.09,.12h0Z"
            fill="currentColor" />
          <path
            d="M24.2,30.98c-1.44-2.82-2.89-5.42-5.27-7.58-1.17-1.06-3.2-3.03-5.01-2.78-.24,.03-.2,.41,.04,.38,1.93-.2,4.16,2.39,5.34,3.6,1.81,1.87,3.87,3.93,4.76,6.44,.03,.09,.18,.03,.14-.05h0Z"
            fill="currentColor" />
          <path
            d="M36.7,24.62c-3.73-1.02-7.14-3.58-10.41-5.54-2.59-1.55-5.25-3.11-7.58-5.04-.19-.16-.42,.14-.24,.3,5.33,4.65,11.75,7.68,18.18,10.43,.1,.04,.15-.11,.04-.14h0Z"
            fill="currentColor" />
        </g>
        <g>
          <path
            d="M194.8,84.81c-53.5,4.33-73.66,76.52-50.38,119.99,.34-.08,.65-.19,.95-.31-18.37-44.52-6.46-112.53,49.58-118.81,.57-.06,.42-.91-.14-.87Z"
            fill="currentColor" />
          <path
            d="M193.19,85.27c-17.78-3.21-29.96,29.45-33.64,42.01-6.68,22.76-5.59,48.34-8.11,72.54,.42-.32,.87-.64,1.34-.9,2.42-12.93,3.96-25.68,4.8-39.3,1.09-17.5,7.67-74.82,35.53-73.62,.47,.02,.53-.65,.07-.73Z"
            fill="currentColor" />
          <path
            d="M166.1,107.85c-20.72,25.31-19.48,62.2-16.18,93.24,.13-.11,.26-.23,.39-.34-1.45-31.68-2.67-65.53,16.03-92.73,.11-.16-.12-.32-.24-.17Z"
            fill="currentColor" />
          <path
            d="M147.07,203.51c-1.13-3.18-2.13-6.41-3.14-9.59-1.87-5.9-4.26-12.85-4.71-19.44,.47,9.92,2.96,20.39,6.64,29.77,.42-.21,.81-.46,1.2-.75Z"
            fill="currentColor" />
          <g>
            <path
              d="M148.18,202.6c.34-.29,.68-.58,1.02-.88-.84-3.62-1.3-7.45-1.96-10.91-.78-4.11-1.74-8.42-2.37-12.72,.43,4.56,.9,9.1,1.59,13.66,.52,3.47,.88,7.27,1.73,10.85Z"
              fill="currentColor" />
            <path d="M144.86,178.1c-.22-2.36-.44-4.73-.66-7.09,.06,2.34,.31,4.72,.66,7.09Z" fill="currentColor" />
          </g>
          <g>
            <path d="M142.4,156.32c-.39,2.33-.66,4.73-.81,7.17,.15-2.47,.47-4.87,.98-7.15,.02-.1-.15-.13-.17-.02Z"
              fill="currentColor" />
            <path
              d="M148.83,202.04c-4.42-11.37-7.85-25.38-7.29-37.65-.68,12.76,1.71,26.64,6.33,38.48,.32-.27,.65-.55,.96-.83Z"
              fill="currentColor" />
          </g>
        </g>
        <path
          d="M131.1,178.91c-15.09-34.19-26.21-77.7-26.75-95.37l1.71-.05c.53,17.51,11.59,60.72,26.61,94.73l-1.56,.69Z"
          fill="currentColor" />
        <path
          d="M143.46,204.98c.31-.05,.61-.1,.91-.17,.29-.07,.57-.16,.84-.26-15.48-23.62-32.38-28.74-50.21-34.12-1.86-.56-3.73-1.13-5.62-1.72l-.51,1.62c1.89,.6,3.77,1.16,5.64,1.72,18.11,5.47,34.01,10.28,48.95,32.91Z"
          fill="currentColor" />
        <path
          d="M143.31,205.01c.36-.05,.71-.11,1.07-.2,.22-.05,.42-.12,.63-.19-22.66-51.6-39.01-70.1-63.64-88.31l-1.02,1.37c24.33,17.99,40.52,36.31,62.96,87.33Z"
          fill="currentColor" />
        <path
          d="M115.38,135.88c-4.27-20.61-36.11-71.79-52.07-79.83l.77-1.52c16.65,8.39,48.53,59.58,52.97,81.01l-1.67,.35Z"
          fill="currentColor" />
        <g>
          <path
            d="M125.35,30.23c.03-5.46-.23-10.74-1.46-16.09-1-4.35-3.1-9.24-2.47-13.78,.06-.39-.55-.45-.61-.06-.61,3.67,.65,7.54,1.45,11.08,1.39,6.13,3.39,12.48,2.86,18.83-.01,.15,.24,.17,.24,.02h0Z"
            fill="currentColor" />
          <path
            d="M111.28,59.41c2.29-7.43,4.34-14.59,4.27-22.44-.04-4.34-1.08-8.94-.37-13.23,.06-.39-.54-.44-.61-.06-.71,3.79,.06,7.93,.08,11.75,.05,8.06-.93,16.28-3.59,23.9-.05,.15,.18,.23,.22,.08h0Z"
            fill="currentColor" />
          <path
            d="M119.24,51.89c0-5.95,.31-11.7-1.48-17.46-.99-3.2-3.22-6.72-2.65-10.16,.07-.39-.54-.44-.61-.06-.51,2.6,.6,5,1.42,7.42,2.18,6.44,3.48,13.43,3.09,20.23,0,.15,.24,.17,.24,.02h0Z"
            fill="currentColor" />
          <path
            d="M121.18,49.02c-.34-5.06-.38-9.97-2.31-14.73-1.31-3.23-3.15-6.22-3.65-9.71-.06-.39-.65-.29-.61,.1,.33,2.92,1.56,5.46,2.66,8.15,2.1,5.12,3.7,10.63,3.67,16.2,0,.17,.25,.17,.24,0h0Z"
            fill="currentColor" />
          <path
            d="M122.24,65.18c-.54,5.77-4.49,10.49-9.17,13.6-1.54,1.02-3.18,1.9-4.88,2.6-.43,.18-1.2,.29-1.54,.58-1.05,.9-.73-.85,0,.71-.48-1.02-2.07-.31-1.59,.71,0,0,0,.02,.01,.02,.17,.35,.55,.56,.94,.5,2.99-.45,6.3-2.98,8.54-4.83,4.51-3.72,6.82-8.22,7.89-13.89,.02-.13-.19-.15-.2-.02h0Z"
            fill="currentColor" />
          <path
            d="M119.42,58.72c.77,7.14-2.36,13.78-7.4,18.71-1.15,1.13-2.4,2.17-3.71,3.1-.7,.5-2.88,1.49-2.14,1.69-1.07-.29-1.71,1.34-.62,1.63,2.19,.59,6.15-4.23,7.37-5.57,5.11-5.62,7.11-12.08,6.7-19.6,0-.13-.21-.1-.2,.03h0Z"
            fill="currentColor" />
          <path
            d="M98.4,52.89c-2.56,7.81-2.8,15.21,.9,22.73,.95,1.93,3.95,8.4,6.71,8.28,1.1-.05,.85-1.83-.28-1.72,.34-.03-1.67-1.9-2.17-2.5-1.49-1.78-2.77-3.75-3.81-5.82-3.23-6.44-4.05-14.17-1.16-20.89,.05-.12-.15-.2-.19-.07h0Z"
            fill="currentColor" />
          <path
            d="M102.14,64.36c.02,.91-.34,22.21,4.27,19.36,.93-.58-.18-2.04-1.09-1.36,.87-.65,.37,.15-.13-1.05-.37-.88-.82-1.69-1.11-2.6-1.46-4.45-1.99-9.69-1.73-14.33,0-.13-.2-.15-.2-.02h0Z"
            fill="currentColor" />
          <path
            d="M130.07,24.88c-5.8,3.96-8.41,13.37-7.43,20.01,.14,.95,1.62,.71,1.47-.24-.95-5.97,1.4-15.48,6.04-19.66,.07-.06-.01-.15-.09-.11h0Z"
            fill="currentColor" />
          <path
            d="M114.74,22.71c-2.09,11.47-15.74,18.09-20.35,28.66-5.47,12.54,1.38,23.65,9.9,32.82,.65,.7,1.82-.23,1.16-.94-13.33-14.25-14.69-27.25-2.66-42.19,4.47-5.55,11.04-10.91,12.08-18.34,.01-.09-.12-.1-.14-.01h0Z"
            fill="currentColor" />
          <path
            d="M101.89,20.48c-.08,12.93-9.31,23.53-11.74,35.95-2.51,12.85,3.99,21.65,14.57,28.31,.81,.51,1.7-.69,.88-1.2-29.57-18.5-2.75-38.77-3.58-63.07,0-.08-.13-.07-.13,0h0Z"
            fill="currentColor" />
          <path
            d="M114.74,22.72c2.09,8.15,6,15.64,8.61,23.61,5.83,17.76-.07,29.58-17.44,37.1-.88,.38-.27,1.75,.61,1.36,11.49-5.02,21.59-12.49,20.9-26.19-.65-12.83-8.95-23.86-12.54-35.89-.02-.08-.16-.06-.13,.02h0Z"
            fill="currentColor" />
          <path
            d="M130.05,24.91c-3.76,7.15-2.14,14.67-1.08,22.33,.76,5.45,1.98,11.31,.87,16.8-2.44,12.12-14.06,16.53-24.81,19.37-.92,.24-.69,1.72,.24,1.47,11.46-3.06,23.49-7.81,25.94-20.71,2.49-13.12-7.08-26.56-1.05-39.21,.04-.08-.09-.12-.13-.05h0Z"
            fill="currentColor" />
          <path
            d="M102.11,20.61c-.06-.02-.12-.03-.18-.05-.09-.02-.14,.08-.08,.14,1.39,1.31,2.14,3.38,2.79,5.12,1.3,3.46,1.62,6.95,.92,10.59-.15,.77,1.08,.89,1.22,.12,.64-3.8,.3-7.84-1.38-11.35-.53-1.1-2.25-4.31-3.32-4.44,.07,0,.11-.11,.03-.13h0Z"
            fill="currentColor" />
          <path
            d="M121.05,.31c-2.02,6.19-2.9,12.2-1.29,18.58,1.46,5.79,3.44,10.65,3.45,16.77,0,.68,1.01,.81,1.08,.1,.51-4.86-.73-9.07-2.28-13.61-2.53-7.39-2.24-14.17-.83-21.81,.01-.07-.11-.1-.13-.03h0Z"
            fill="currentColor" />
          <path
            d="M120.96,.1c3.59,8.69,6.83,17.45,5.91,27-.06,.59,.9,.86,1.05,.25,2.14-9-2.15-19.85-6.84-27.32-.04-.07-.14,0-.11,.07h0Z"
            fill="currentColor" />
          <path
            d="M120.97,.03c-6.52,8.52-15.87,13.08-16.24,25.08-.02,.7,.97,.8,1.08,.1,1.12-7.07,3.62-12.03,8.64-17.06,2.54-2.54,4.9-4.86,6.64-8.06,.04-.07-.07-.12-.12-.06h0Z"
            fill="currentColor" />
        </g>
      </g>
    </g>
  </g>
</svg>
