<?xml version="1.0" encoding="UTF-8"?><svg xmlns="http://www.w3.org/2000/svg" viewBox="0 0 501.77 847.42">
  <g id="a">
    <rect x="-1133.62" y="-257.7" width="3652.73" height="1266.84" fill="none" />
  </g>
  <g id="b">
    <g>
      <g>
        <path
          d="M362.41,560.77c-15.76,5.07-32.5,13.16-44.3,24.62-.41,.4-.99-.3-.62-.7,11.91-12.55,28.78-18.2,44.82-24.1l.1,.19Z"
          fill="currentColor" />
        <path d="M349.12,562.38c-10.57,4.45-22.03,12.36-29.98,20.3l-.49-.56c7.86-8.23,19.41-15.85,30.38-19.9l.08,.16Z"
          fill="currentColor" />
        <path
          d="M447.45,559.5c-15.68-2.84-27.31,3.62-41.63,7.01-11.75,2.78-23.95,3.69-36.13,4.48-19.61,1.29-39.96,7.67-56.76,17.05-.69,.39-1.28-.76-.59-1.15,15.3-8.54,34.91-16.13,53.03-17.08,14.35-.75,29.51-1.32,43.02-5.65,13.88-4.45,24.08-7.97,39.06-4.87v.21Z"
          fill="currentColor" />
        <path
          d="M447.7,559.52c-19.61-11.05-48.37-12.38-69.38-9.09-23.45,3.67-44.86,17.45-60.77,33.21-.56,.56-1.41-.43-.86-.98,18.16-18.48,41.23-30.68,67.81-34.73,18.81-2.86,47.05-.23,63.32,11.42l-.11,.17Z"
          fill="currentColor" />
        <path
          d="M396.89,559.45c-13.39,1.79-25.9,5.98-38.84,9.21-9.26,2.31-19.29,5.1-27,10.59-4.03,2.87-8.77,2.89-12.94,6.15l-.62-.7c7.7-7.12,20.68-11.17,30.8-14.44,15.61-5.04,32.18-8.4,48.55-11l.05,.21Z"
          fill="currentColor" />
        <path d="M448.08,559.68c-13.8-5.42-30.32-4.76-43.86-1.47l-.04-.18c15.18-4.17,28.74-2.94,43.96,1.45l-.06,.19Z"
          fill="currentColor" />
        <path
          d="M446.31,559.12c-.68-1.37-6.68-2.49-7.92-2.83-8.24-2.27-16.85-3.16-25.24-3.45v-.18c7.72-.02,15.53,.33,23.13,2.45,1.11,.31,9.3,4.33,10.08,3.87l-.05,.14Z"
          fill="currentColor" />
        <path d="M446.4,559.17c-12.69-2.67-25.81-3.38-37.49,1.51l-.25-.49c11.68-5.76,24.94-5.25,37.77-1.19l-.03,.17Z"
          fill="currentColor" />
        <path
          d="M268.53,631.67c51.31-45.98,74.85-147.45-3.69-190.56-.86-.47-.17-1.87,.71-1.44,75.06,37.61,65.33,154.11,3.17,192.21l-.19-.22Z"
          fill="currentColor" />
        <path
          d="M265.47,634.33c2.51-24.48,5.95-47.14,13.12-70.7,7.75-25.45,29.77-105.19-11.32-121.06-.74-.29-.58-1.49,.24-1.33,24.05,4.88,26.17,45.22,26.51,63.09,.83,44.31-20.78,86.89-28.21,130.03l-.33-.04Z"
          fill="currentColor" />
        <path
          d="M268.64,622.27c17.67-42.74,37.72-86.95,25.03-135.82l.53-.15c17.58,46.42-4.56,96.92-25.27,136.12l-.3-.15Z"
          fill="currentColor" />
        <path
          d="M301.69,582.01c-6.45,18.85-19.28,36.95-34.17,50.16-1.04,.93-2.54-.8-1.52-1.74,13.05-11.98,31.3-30.85,35.38-48.54l.31,.12Z"
          fill="currentColor" />
        <path
          d="M295.09,579c-7.66,15.42-13.83,34.8-26.23,47.15-.99,.99-2.45-.75-1.52-1.74,4.99-5.29,8.59-12.64,12.47-18.73,5.34-8.38,11.75-17.33,14.98-26.84l.3,.15Z"
          fill="currentColor" />
        <path
          d="M303.45,563.36c-4.32,23.29-18.11,47.49-35.43,63.5-1.03,.95-2.51-.78-1.52-1.74,15.93-15.42,33.87-39.35,36.63-61.84l.32,.08Z"
          fill="currentColor" />
        <path
          d="M286,617.51c22.18-11.59,36.62-45.07,51.91-80.53,20.7-47.99,42.1-97.62,84.53-99.05l-.32-2.95c-44.24,1.49-65.99,51.93-87.03,100.7-15.1,35-29.35,68.07-50.68,79.2l1.58,2.63Z"
          fill="currentColor" />
        <path
          d="M501.52,373.1c-3.9,33.65-40.7,107.23-85.62,65.38-1.85-1.72,1.02-4.02,2.86-2.31,42.59,39.67,74.58-35.76,82.43-63.16l.34,.08Z"
          fill="currentColor" />
        <path
          d="M494.45,368.41c-4.05,9.52-15.04,11.16-24.55,13.64-26.13,6.81-71.39,15.19-51.86,53.47,1.04,2.04-2.28,3.41-3.11,1.34-7.15-17.78-5.77-33.94,10.36-44.2,8.47-5.39,19.28-7.73,29.12-10.16,11.39-2.82,32.91-3.72,39.67-14.27l.37,.19Z"
          fill="currentColor" />
        <path
          d="M454.95,441.21c-10.37,5.58-26.41,7.55-36.52-2.04-1.64-1.56,1.05-3.84,2.6-2.1,7.35,8.29,25.76,10.26,33.7,3.8l.23,.34Z"
          fill="currentColor" />
        <path
          d="M444.28,407.54c-7.47,4.89-27.37,17.58-23.5,28.61,.73,2.08-2.84,2.7-3.41,.5-3.57-13.63,18.39-23.35,26.64-29.42l.27,.31Z"
          fill="currentColor" />
        <path
          d="M450,400.84c-12.87,6.17-36.78,16.47-30.84,34.49,.69,2.1-2.84,2.68-3.41,.5-5.4-20.66,20.1-27.83,34.07-35.35l.19,.36Z"
          fill="currentColor" />
        <path
          d="M448.45,431.92c-2.28,.29-4.99,2.73-6.96,3.73-2.98,1.52-6.1,2.73-9.37,3.63-3.19,.87-16.09,1.69-15.09-4.67,.12-.79,.62-1.2,1.45-1.21,2.08,0,3.61,2.11,5.56,2.87,3.01,1.17,6.51,.71,9.5,.25,2.85-.44,5.6-1.29,8.28-2.2,1.78-.6,5.15-1.29,6.4-2.72l.22,.31Z"
          fill="currentColor" />
        <path
          d="M429.59,401.83c-4.78,2.21-8.46,6.96-11.13,11.23-4.48,7.19-3.3,14.51-.42,22.45,.75,2.08-1.9,3.33-3.11,1.34-9.41-15.51,3.6-27.12,14.42-35.36l.23,.34Z"
          fill="currentColor" />
        <path
          d="M494.43,368.45c-2.05,3.96-3.55,7.52-6.59,10.91-3.05,3.4-7.91,5.7-12,7.74-.59,.3-1.04-.63-.48-.94,6.81-3.84,16.53-9.89,18.7-17.9l.37,.19Z"
          fill="currentColor" />
        <path
          d="M497.24,371.39c-12.31,12.06-26.79,18.39-43.32,24.09-20.43,7.04-42.95,13.04-35.95,40.01l-1.02,.15c-3.51-12.88-1.94-24.49,10.15-31.25,22.69-12.7,51.73-13.37,69.84-33.28l.31,.27Z"
          fill="currentColor" />
        <path
          d="M480.92,403.97c3.49-6.45,6.52-12.91,11.26-18.56,3.07-3.66,6.33-7.11,8.65-11.31,.31-.57,1.17,.05,.88,.61-5.39,10.73-15.19,18.54-20.43,29.46l-.37-.19Z"
          fill="currentColor" />
        <path
          d="M497.27,371.36c-12.12,17.54-15.08,40.23-30.08,56.3-11.04,11.84-30.61,21.62-46.92,10.45-.57-.39-.01-1.2,.56-.82,39.31,26.32,65.13-43.75,76.06-66.13l.37,.19Z"
          fill="currentColor" />
      </g>
      <path
        d="M222.27,350.04l3.85,.18c-2.81,58.85,8.43,105.07,19.31,149.77,21.94,90.16,42.66,175.33-54.73,347.43l-3.35-1.89c96.63-170.78,76.09-255.23,54.34-344.62-10.94-44.97-22.26-91.46-19.41-150.87Z"
        fill="currentColor" />
      <g>
        <path
          d="M267.4,115.35c3.78-12.4,7.82-25.04,13.52-36.72,12.54-25.69,28.09-33.95,59.51-29.82,19.76,2.6,33.43,7.42,48.17,21.96,14.77,14.56,21.57,29.57,17.62,50.66-3.92,20.91-20.44,33.85-39.23,40.24-27.84,9.48-52.92,7.4-81.51,9.03-1.38,.08-1.06,2.22,.32,2.13,35.94-2.24,80.72,3.07,108.82-25.55,18.94-19.3,19.22-53.22,2.96-73.94-6.75-8.6-11.49-15.78-21.67-20.66-7.47-3.58-14.24-3.96-22.18-5.46-10.76-2.03-21.73-7.19-32.71-7.27-34.14-.26-46.66,50.4-53.79,75.32-.03,.12,.14,.19,.18,.07h0Z"
          fill="currentColor" />
        <path
          d="M263.08,141.97c7.95-34.76,20.04-81.81,1.56-115.39C250.66,1.18,225-5.75,199.5,4.66c-14.98,6.12-33.4,11.48-45.95,22.14-8.3,7.04-7.96,13.21-11.81,22.99-3.87,9.84-8.58,14.51-5.75,25.33,4.15,15.87,17.36,29.26,28.85,40.13,.78,.74,1.75-.59,1-1.32-19.49-19.03-34.91-41.66-20.85-68.47,12.53-23.9,35.07-30.72,58.46-38.96,39.45-13.9,65.95,18.97,67.41,56.18,1.05,26.57-4.54,53.04-7.94,79.27-.01,.11,.14,.12,.16,.02h0Z"
          fill="currentColor" />
        <path
          d="M230.34,154.39c-23.45-12.65-44.36-29.28-67.64-41.86-16.32-8.81-34.61-13.24-52.82-7.84-35.57,10.56-33.45,42.54-31.87,73.46,.51,9.93,3.44,19.37,4.67,29.2,.72,5.71-.02,11.3,3.62,16.22,6.47,8.73,25.85,13.69,35.94,15.46,36.83,6.47,75.23-18.8,101.3-41.9,.72-.63-.19-1.81-.91-1.18-22.5,19.7-48.93,36.75-79.17,40.81-18.29,2.46-39.58-1.16-51.36-16.3-7.68-9.88-9.62-25.98-11.04-39.05-1.48-13.71-4.04-37.88,1.08-50.39,10.19-24.91,41.72-31.01,64.94-23.42,29.98,9.79,53.58,34.9,83.19,46.94,.1,.04,.15-.1,.06-.15h0Z"
          fill="currentColor" />
        <path
          d="M208.98,207.46c-20.78,23.61-62.4,57.43-52.96,94.07,7.86,30.52,48.06,46.55,75.4,52.38,23.06,4.92,50.37-5.78,57.74-30.09,5.06-16.68-.4-39.6-3.29-56.24-3.85-22.22-9.26-45.2-16.83-66.47-.4-1.11-2.05-.38-1.67,.72,8.3,24.45,14.3,51.56,18.19,77.18,3.26,21.41,7.18,46.96-11.78,63.24-14.09,12.09-32.64,12.47-49.23,7.14-29.95-9.61-66.56-25.51-67.17-62.41-.48-29.41,35.05-58.21,51.74-79.4,.08-.1-.07-.21-.15-.12h0Z"
          fill="currentColor" />
        <path
          d="M286.69,279.51c29.39,59.73,101.31,40.42,125.18-14.65,10.05-23.19,7.48-49.64-12.94-66.14-9.77-7.9-22.18-13.11-34.32-16.02-11.95-2.87-24.09-1.74-36.1-3.83-11.65-2.03-22.96-6.76-34.57-9.28-.72-.16-1.05,1.09-.32,1.27,21.22,5.42,40.16,9,61.73,12.59,26.46,4.4,55.97,18.7,59.81,48.3,3.47,26.81-14.33,53-34.98,68.27-35.04,25.91-71.95,16.28-93.31-20.57-.06-.1-.23-.04-.18,.08h0Z"
          fill="currentColor" />
        <path
          d="M242.68,167.02c2.04-6.55,9.27-10.63,14.62-14.42,2.48-1.75,5.25-.58,5.29,2.62,.02,1.91-1.08,3.43-2.54,4.5-1.42,1.03-3.12,1.33-4.53,2.27-.95,.63-1.75,1.6-2.63,2.32-1.48,1.21-5.61,4.18-7.96,2.8-2.7-1.58,5.51-8.68,6.64-10.19,.28-.37-.14-1.02-.59-.76-2.34,1.34-12.21,8.63-7.94,12.25,3.76,3.18,9.84-1.82,12.32-3.85,3.19-2.61,7.58-3.28,8.66-7.78,.54-2.25,.52-6.16-2.15-7.12-3.55-1.28-6.93,3.29-9.14,5.14-4.55,3.8-8.11,6.41-10.23,12.14-.04,.12,.14,.19,.18,.07h0Z"
          fill="currentColor" />
        <path
          d="M239.14,168.32c5.61-2.87,.15-7.79-3.75-9.26-1.96-.74-3.9-.62-5.95-.85-2.34-.26-4.62-1.4-6.97-1.42-1.81-.02-4.45,.78-5.12,2.7-1.36,3.9,5.38,7.21,7.84,8.74,2.5,1.56,5.07,3.63,8.11,3.57,2.61-.05,5.45-1.43,6.64-3.79,.19-.38-.29-.83-.66-.64-2.48,1.29-3.99,2.81-7.01,2.17-1.97-.42-3.28-1.19-4.95-2.21-1.94-1.19-3.93-2.41-5.67-3.88-1.1-.94-3.1-2.29-1.48-3.97,1.34-1.39,5.1,.05,6.89,.36,2.54,.44,5.23-.06,7.71,.79,1.3,.44,9.72,4.89,4.3,7.53-.11,.05-.03,.23,.08,.18h0Z"
          fill="currentColor" />
        <path
          d="M237.56,180.03c3.78,1.35,5.87,3.4,4.57,7.73-1.35,4.5-4.69,6.02-8.94,6.46-1.83,.19-2.96,.24-4.56,1.24-.99,.63-3.89,3.75-4.32,3.44-.97-.71-.3-4.33-.06-5.42,.76-3.42,3.13-5.57,5.55-7.88,3.73-3.56,7-6.58,11.89-2.95,.43,.32,1.19-.16,.88-.69-3.78-6.54-10.45-.82-14.09,2.62-2.82,2.66-5.22,5.23-5.92,9.09-.43,2.41-.94,5.86,1.36,7.45,.32,.22,.69,.21,1.01,0,1.17-.78,1.84-1.8,2.83-2.76,2.66-2.57,5.02-2.17,8.13-2.74,2.82-.52,5.13-2.05,6.51-4.63,1.12-2.09,1.73-5.43,.69-7.68-1.04-2.23-3.36-2.58-5.46-3.46-.11-.05-.19,.14-.07,.18h0Z"
          fill="currentColor" />
        <path
          d="M251.27,188.38c-4.33,.97-3.89,5.11-1.89,8.33,1.74,2.79,4.15,5.97,7.26,7.3,1.84,.79,4.95,1.84,6.9,1.8,3.21-.07,4.26-4.36,2.66-6.64-1.43-2.03-3.61-3.91-5.42-5.61-2.63-2.47-5.86-4.96-9.43-5.76-.64-.14-.99,.83-.47,1.19,1.89,1.28,17.59,11.04,13.53,14.48-1.35,1.15-6.79-.83-8.14-1.59-3.21-1.81-11.14-11.04-4.95-13.34,.09-.03,.05-.18-.04-.16h0Z"
          fill="currentColor" />
        <path
          d="M268.35,171.7c-4.27-.57-8.81,2.77-5,6.96,2.27,2.49,6.33,3.56,9.31,4.8,2.39,.99,4.03,2.31,6.14,3.63,.8,.5,1.7,1.04,2.69,.86,1.93-.33,3.47-3.05,3.76-4.8,.5-3-2.01-4.56-4.33-5.83-2.71-1.49-5.91-2.18-8.5-3.88-1.6-1.05-2.37-2.24-4.27-2.75-2.14-.58-4.28-.6-5.04,1.77-.21,.64,.56,1.4,1.15,.87,2.86-2.6,5.85,1.24,8.35,2.57,1.75,.93,3.67,1.49,5.46,2.34,1.14,.54,3.04,1.19,3.82,2.15,1.4,1.72,1.42,4.73-1.12,4.86-1.76,.09-2.32-1.17-3.74-1.99-1.53-.89-3.49-1.37-5.15-2-1.49-.57-3.01-1.09-4.45-1.78-.97-.46-2.19-.98-2.87-1.85-1.14-.69-1.15-1.7-.04-3.04-.14-2.57,1.13-3.46,3.81-2.68,.12,.02,.14-.17,.02-.19h0Z"
          fill="currentColor" />
        <path
          d="M237.96,154.59c.42-.91,.64-1.76,.81-2.75,.24-1.42-.43-3.08-.07-4.37-.14-1.08,.18-1.05,.94,.09,.33,.35,.67,.7,1.01,1.04,.45,.43,.98,.79,1.4,1.26,1.04,1.14,1.69,2.42,3.04,3.26,.49,.3,1.31,.25,1.51-.42,.54-1.82,.2-3.62,.21-5.48,0-1.56-.11-2.98-.27-4.5-.06-.59-.88-.51-.99,.02-.27,1.37-.8,2.64-.9,4.04-.14,1.84,.5,3.63,.05,5.45,.45-.27,.9-.54,1.35-.81-1.49-.73-2.29-2.24-3.54-3.23-1.15-.91-2.45-2-3.78-2.65-.19-.09-.49-.01-.6,.17-.7,1.12-.37,2.08-.08,3.33,.44,1.85,.36,3.7-.25,5.51-.03,.1,.11,.16,.15,.06h0Z"
          fill="currentColor" />
        <path
          d="M246.52,146.8c1.5,.43,3.06-2.23,4.09-1.51,.99,.71-1.35,5.01-.46,6.6,.22,.39,.74,.63,1.13,.29,1.68-1.43,2.75-3.27,3.94-5.11,1.34-2.08,.72-4.47,2.05-6.57-.34-.04-.68-.08-1.02-.13,1.1,1.91,3.13,5.19,2.48,7.46-.32,1.12,1.18,2.24,1.94,1.1,1.95-2.94,3.6-6.15,4.86-9.44-.5-.2-1-.4-1.49-.6-.56,1.96-.5,3.84-.64,5.86-.05,.8-.3,1.66-.25,2.45,.04,.64,.48,.94,.39,1.69-.12,.95,1.39,1.12,1.48,.17,.11-1.11-.31-1.94-.32-3.07-.02-2.19,.08-4.43,.83-6.5,.36-.98-1.06-1.53-1.49-.6-1.44,3.08-3.36,5.82-5.16,8.68,.67,.27,1.34,.54,2.02,.81,.48-3.04-1.92-6.31-3.63-8.6-.28-.38-.83-.25-1.02,.14-.93,1.94-.7,4.18-1.71,6.06-.93,1.74-2.62,3.83-4.16,5.03,.38,.1,.75,.19,1.13,.29-.79-1.55,1.39-5.88-.13-6.93-1.52-1.06-3.66,3.38-4.74,2.27-.12-.13-.25,.11-.11,.15h0Z"
          fill="currentColor" />
        <path
          d="M237.48,155.56c-1.48-.49-2.5-2-3.8-2.83-1.38-.88-2.81-1.44-3.99-2.64-.41-.42-1.35-.22-1.18,.5,.96,4.11,4.7,9.11,8.76,10.65,.49,.18,.84-.36,.58-.77-1.1-1.69-3.36-2.55-4.64-4.16-1.47-1.84-2.83-3.58-3.38-5.92-.35,.21-.7,.42-1.06,.63,1.2,1.12,2.66,1.5,4.14,2.11,1.53,.63,3.08,1.66,4.47,2.59,.12,.08,.22-.12,.09-.17h0Z"
          fill="currentColor" />
        <path
          d="M232.39,169.77c-2.39,1.89-4.54,1.96-7.35,2.14-.99,.06-1.72,.08-2.38,.84-.09,.11-.08,.28,0,.39,1.95,2.51,5.43,3.72,8.53,3.74-.1-.36-.2-.71-.3-1.07-1.46,1.11-3.16,2.13-4.99,2.44-.74,.13-.93,1.23-.18,1.5,1.7,.6,3.17,.55,4.96,.55,2.68,0,4.98,.87,7.57,1.29,.4,.06,.63-.51,.3-.74-3.83-2.58-8.09-1.36-12.24-2.55-.06,.5-.12,1-.18,1.5,2.06-.48,3.91-1.67,5.5-3.04,.48-.41,.14-1.1-.46-1.07-1.97,.11-3.98-.33-5.74-1.22-1.01-.52-2.04-1.17-.7-2.04,.32-.21,1.41-.09,1.75-.11,2.62-.21,3.81-1.03,6.03-2.4,.1-.06-.02-.23-.12-.15h0Z"
          fill="currentColor" />
        <path
          d="M264.35,149.05s3.97-.3,4.58-.37c.83-.11,1.03-2.77,1.39-.38,.17,1.12-1.58,3.65-1.92,4.82-.19,.63,.12,1.5,.91,1.52,3.01,.07,5.33-1.04,8.19-1.88-.44-.56-.87-1.12-1.31-1.68-.86,1.21-1.43,2.76-2.26,3.91-1.49,2.06-3.11,2.59-4.88,4.07-.63,.53-.42,1.76,.51,1.8,3.99,.19,7.08,.01,10.73-1.59-.4-.39-.81-.79-1.21-1.18-1.21,3.11-2.45,4.93-5.56,6.14-.63,.24-.68,1.33,.02,1.53,3.2,.94,8.67,1.99,11.02-1.08-.5-.28-1-.57-1.5-.85-1.03,2.09-2.53,3.63-4.51,4.63-.64,.39-.31,1.27,.22,1.54,1.46,.74,3.03,.23,4.36,.78,3.4,1.41-4.76,1.64-5.6,1.61-.79-.03-1.41,.86-.87,1.54,.61,.77,.82,.83,1.64,1.44,1.23,.91,3.63,1.08,.23,1.41-.52,.05-.53,.76-.11,.95,2.12,.97,1.6,.95,3.79,.52,.39-.08,.83-.42,.83-.86,.01-2.96-3.28-2.66-4.87-4.64-.29,.51-.58,1.03-.87,1.54,2.29,.06,8.69,.18,9.77-2.77,1.48-4.04-6.29-2.5-7.66-3.19,.07,.51,.14,1.02,.22,1.54,2.56-1.57,3.78-2.6,5.03-5.39,.4-.9-.91-1.63-1.5-.85-1.65,2.19-7.46,1.03-9.02,.59,0,.51,.01,1.02,.02,1.53,4.32-1.59,4.88-2.77,6.61-6.98,.31-.74-.49-1.48-1.21-1.18-3.44,1.43-6.08,1.5-9.78,1.26,.17,.6,.34,1.2,.51,1.8,1.48-1.2,3.47-1.62,4.78-3.04,1.23-1.34,1.75-3.66,2.88-5.19,.51-.7-.06-2.03-1.04-1.76-2.55,.7-4.97,1.7-7.64,1.78,.42,.41,.85,.82,1.27,1.22,.63-3.47,2.15-5.93,1-9.42-.13-.4-.8-.5-1.03-.13-.86,1.44-1.04,1.58-2.52,2.85-3.59,3.08-1.1,.29-2.55,1.28-1.11,.75-.2-.59-1.22,.72-.07,.09,.06,.17,.13,.1h0Z"
          fill="currentColor" />
        <path
          d="M241.77,189.55c.24,.95,.76,2.15,.73,3.12-.04,1.28-1.07,2.3-1.65,3.38-.13,.25,.09,.61,.37,.61,.75,.02,1.31-.13,1.92-.58,.69-.5,1.17-1.62,2.06-1.75-.24-.09-.47-.19-.71-.28,.51,.81,.14,2.18,.41,3.1,.32,1.1,.97,1.79,1.99,2.29,.46,.22,.99-.09,1.18-.51,.58-1.26,2.56-3.05,1.96-4.51-.13-.31-.47-.4-.76-.3-.81,.27-1.05,1.03-1.48,1.72-.5,.79-1.01,1.56-1.4,2.41,.39-.17,.79-.34,1.18-.51-1.65-.8-.81-3.31-1.89-4.63-.16-.19-.45-.35-.71-.28-1.7,.47-2.01,2.75-3.77,2.92,.16,.2,.32,.41,.48,.61,.41-1.08,1.31-2.22,1.3-3.42-.01-1.23-.99-2.21-1.02-3.44,0-.12-.22-.09-.19,.03h0Z"
          fill="currentColor" />
        <path
          d="M263.08,198.13c2.17,1.07,4.51,4,7.09,4.04,.39,0,.68-.26,.65-.67-.13-1.35-.5-2.48-.81-3.77-.45-1.86-.11-3.05-.08-4.85-.46,.27-.91,.55-1.37,.82,2.01,.55,2.52,2.73,4.55,3.18,.31,.07,.76-.12,.93-.4,1.57-2.59,.82-6.47-1.17-8.65-.9-.98-2.47,.2-1.65,1.28,1.24,1.63,2.04,3.43,4.17,3.87,.56,.12,1.11-.41,1.17-.94,.22-1.92-.91-3.76-1.31-5.64-.39,.41-.79,.81-1.18,1.22,1.53,0,4.3,1.03,5.12-.87,1.02-2.36-2.59-3.69-4.06-4.26-1.09-.42-1.76,1.23-.68,1.69,.69,.29,2.86,1.09,2.1,1.59-.3,.19-1.81-.26-2.24-.28-.65-.02-1.33,.5-1.18,1.22,.27,1.31,1.45,3.81,1.32,5.09,.39-.31,.78-.62,1.17-.94-1.21-.24-2.07-2.16-2.75-3.05-.55,.43-1.1,.86-1.65,1.28,.82,.89,2.45,5.04,.89,4.67-.86-.2-1.68-1.65-2.79-1.95-.56-.15-1.36,.09-1.37,.82-.01,1.14-.4,2.32-.33,3.45,.07,1.1,.74,1.87,1.11,2.9,.31,.89,.74,1.59,.04,1.75-.29,.07-1.3-.58-1.59-.71-1.37-.63-2.69-1.35-4.01-2.08-.11-.06-.18,.12-.07,.18h0Z"
          fill="currentColor" />
        <path
          d="M250.88,166.8c-2.4,2.35-4.75,3.94-4.49,7.63,.12,1.78,.39,4.63,2.53,5.03,1.15,.22,1.38-1.75,.2-1.81-1.03-.06-1.58-3.05-1.66-3.82-.3-2.89,1.37-5.13,3.53-6.88,.1-.08-.03-.24-.12-.15h0Z"
          fill="currentColor" />
        <path
          d="M244.65,165.05c-.64,2.09-2.28,3.96-2.22,6.23,.04,1.66,.61,3.57,1.15,5.15,.59,1.71,3.34,6.69,5.55,3.78,.32-.42,.07-1.17-.51-1.19-2.51-.08-3.59-2.17-4.38-4.42-.38-1.09-.94-2.29-1.08-3.42-.22-1.79,.87-4.45,1.67-6.05,.06-.11-.14-.19-.18-.07h0Z"
          fill="currentColor" />
        <path
          d="M258.83,191.48c1.78-3.97,3.64-7.75,3.74-12.2,.07-3.18-2.12-5.66-3.68-8.22-.77-1.26-2.67,.18-1.83,1.42,2,2.95,3.7,4.98,3.57,8.76-.12,3.53-1.41,6.65-2.57,9.94-.18,.5,.55,.79,.77,.31h0Z"
          fill="currentColor" />
        <path
          d="M255.41,189.42c.83-1.8,2.07-3.75,2.49-5.71,.34-1.61,.14-3.54,.06-5.13-.13-2.66-.22-6.16-2.8-7.67-1.34-.79-2.43,1.1-1.05,1.86,2,1.1,1.94,5.39,2.2,7.39,.25,1.9,.39,3.3-.21,5.19-.41,1.29-.88,2.56-1.31,3.84-.14,.4,.44,.63,.61,.25h0Z"
          fill="currentColor" />
        <path
          d="M242.99,186.61c2,.58,3.01,1.14,4.66-.43,2.06-1.96,4.53-3.37,5.27-6.25,.3-1.15-1.12-1.72-1.7-.68-.34,.62-.59,1.27-.9,1.9-.65,1.29-1.82,2.26-2.65,3.43-1.24,1.76-2.26,2.97-4.6,1.85-.11-.05-.19,.14-.07,.18h0Z"
          fill="currentColor" />
        <path
          d="M239.75,179.07c.86,1.49,2.55,2.26,4.26,2.4,2.68,.22,3.93-1.51,6.14-2.59,.86-.42,.28-1.79-.59-1.37-1.69,.83-2.98,2.46-4.82,2.9-.97,.24-4.91,.28-4.81-1.37,.01-.18-.26-.1-.18,.03h0Z"
          fill="currentColor" />
        <path
          d="M236.16,169.63c.52,.72,.51,1.67,1.07,2.39,.56,.71,1.25,1.42,1.88,2.06,.99,.99,2.99,1.43,3.37-.35,.11-.52-.6-.69-.89-.36-1.08,1.27-1.91,.09-2.84-.67-1.1-.91-2.18-1.59-2.43-3.14-.02-.15-.27-.06-.17,.07h0Z"
          fill="currentColor" />
        <path
          d="M238.94,168.21c-.34,1.55-.13,3.04,.91,4.28,.76,.92,2.62,2.61,3.88,2.19,.2-.07,.31-.36,.22-.54-.5-.99-2.19-1.2-3.06-1.87-1.32-1.01-1.77-2.39-1.61-4.01,.02-.22-.28-.24-.33-.04h0Z"
          fill="currentColor" />
        <path
          d="M264.78,170.96c.03-2.6-3.47-4.68-5.45-5.74-2.56-1.38-7.16-.25-6.9,3.3,.04,.53,.68,.68,1.06,.43,.97-.66,1.46-1.71,2.59-2.19,1.19-.5,2.14-.21,3.26,.26,1.63,.68,4.66,1.94,4.94,3.95,.04,.27,.49,.28,.49,0h0Z"
          fill="currentColor" />
        <path
          d="M261.97,173.98c-1.09-1.38-1.79-3.22-3.3-4.22-1.53-1.03-3.48-1.65-5.16-2.41-1.36-.62-2.27,1.66-.86,2.15,1.61,.56,3.27,1.06,4.86,1.69,1.69,.68,2.85,1.92,4.35,2.91,.08,.05,.18-.04,.12-.12h0Z"
          fill="currentColor" />
        <path
          d="M220.97,49.78c8.01,21.78,12.19,45.42,17.07,68.06,1.26,5.87,1.91,28.89,7.34,32.44,.55,.36,1.2,.07,1.32-.57,.69-3.39-1.66-7.56-2.52-10.78-2.58-9.63-4.5-19.43-6.7-29.15-4.59-20.32-9.77-40.31-16.33-60.08-.04-.12-.22-.04-.18,.08h0Z"
          fill="currentColor" />
        <path
          d="M226.32,50.25c7.34,20.21,10.42,42.43,14.01,63.57,1.9,11.21,2.08,24.59,5.75,35.36,.22,.63,1.24,.95,1.74,.45,1.87-1.87,4.85-3.64,4.4-6.51-.1-.64-.82-.87-1.33-.53-5.17,3.48-2.98,7.35-4.55-1.27-1.67-9.21-3.23-18.45-4.86-27.68-3.79-21.49-8.18-42.72-14.99-63.48-.04-.12-.22-.04-.18,.08h0Z"
          fill="currentColor" />
        <path
          d="M210.1,89.02c8.17,14.78,15.61,29.96,23.63,44.83,2.26,4.19,5.85,15.64,10.95,17.58,.69,.26,1.33-.43,1.07-1.09-2.79-7.28-8.69-14.37-12.6-21.1-7.75-13.33-15.63-26.67-22.86-40.29-.06-.11-.24-.03-.18,.08h0Z"
          fill="currentColor" />
        <path
          d="M211.53,85.44c8.35,15.17,15.37,31.11,22.73,46.78,2.06,4.38,5.41,17.04,10.41,19.2,.69,.3,1.31-.45,1.07-1.09-2.88-7.84-8.08-15.45-11.9-22.9-7.22-14.11-14.77-28.03-22.14-42.06-.06-.11-.24-.03-.18,.08h0Z"
          fill="currentColor" />
        <path
          d="M186.95,89.43c8.75,15.18,19.04,29.1,30.49,42.37,4.68,5.42,12.16,17.61,19.47,20,.61,.2,1.45-.42,1.07-1.09-4.01-7.1-12.45-12.65-18.01-18.63-12.15-13.07-24.22-27.02-32.85-42.72-.06-.11-.24-.03-.18,.08h0Z"
          fill="currentColor" />
        <path
          d="M186.19,82.89c8.86,15.35,19.16,29.54,30.26,43.36,6.4,7.97,13,18.74,21.06,25.14,.54,.43,1.47-.07,1.32-.78-1.56-7.33-12.77-15.66-17.51-21.12-12.64-14.57-25.68-29.66-34.96-46.66-.06-.11-.24-.03-.18,.08h0Z"
          fill="currentColor" />
        <path
          d="M251.69,56.21c7.45,18.53,8.18,39.4,6.33,59.08-1.19,12.67-5.86,24.02-8.02,36.23-.16,.88,.98,1.13,1.48,.59,8.21-8.8,7.89-30.13,8.36-41.17,.8-18.75-1.27-37.22-7.97-54.81-.04-.12-.22-.04-.18,.08h0Z"
          fill="currentColor" />
        <path
          d="M261.73,60.09c3.25,15.6,5.06,31.5,3.03,47.39-1.47,11.46-5.71,22.85-6.04,34.37-.02,.86,1.31,1.36,1.59,.4,7.96-27.23,7.28-54.7,1.62-82.2-.02-.12-.22-.09-.19,.03h0Z"
          fill="currentColor" />
        <path
          d="M242.24,50c15.56,29.99,13.55,63.83,9.01,95.78-.12,.87,.97,1.16,1.48,.59,7.53-8.29,4.55-28.56,3.86-38.65-1.37-19.98-5.35-39.74-14.18-57.8-.05-.11-.23-.03-.18,.08h0Z"
          fill="currentColor" />
        <path
          d="M180.64,113.9c16.64,15.9,36.11,30.22,56.22,41.49,1.3,.73,2.15-1.43,.86-2.15-19.63-11-41.16-23.28-56.95-39.47-.1-.1-.24,.04-.13,.14h0Z"
          fill="currentColor" />
        <path
          d="M191.02,113.23c9.21,9.09,18.45,18.06,28.25,26.53,5.37,4.64,11.01,10.44,17.43,13.67,1.33,.67,2.19-1.48,.86-2.15-6.71-3.38-12.77-9.05-18.57-13.71-9.59-7.7-19.29-15.61-27.83-24.48-.1-.1-.23,.04-.13,.14h0Z"
          fill="currentColor" />
        <path
          d="M181.83,110.93c16.08,15.51,34.95,34.05,55.23,43.98,1.34,.66,2.2-1.5,.86-2.15-19.66-9.63-40.85-26.31-55.95-41.96-.1-.1-.24,.04-.13,.14h0Z"
          fill="currentColor" />
        <path
          d="M173.4,129c19.94,7.29,36.81,22.11,56.14,31.06,1.16,.54,1.92-1.34,.74-1.84-19.68-8.39-36.82-21.65-56.81-29.4-.12-.04-.19,.14-.07,.18h0Z"
          fill="currentColor" />
        <path
          d="M167.46,129.82c19.37,7.97,36.95,19.4,56.04,27.82,1.17,.52,1.93-1.36,.74-1.84-19.25-7.78-37.55-18.05-56.7-26.16-.11-.05-.19,.13-.07,.18h0Z"
          fill="currentColor" />
        <path
          d="M150.21,134.11c22.5,9.15,44.14,20.26,66.48,29.8,1.18,.5,1.93-1.37,.74-1.84-22.54-8.91-44.79-18.75-67.14-28.13-.11-.05-.19,.13-.07,.18h0Z"
          fill="currentColor" />
        <path
          d="M151.76,138.88c22.78,9.07,45.91,17.31,68.63,26.51,1.19,.48,1.94-1.4,.74-1.84-22.99-8.59-46.59-15.49-69.3-24.84-.11-.05-.19,.13-.07,.18h0Z"
          fill="currentColor" />
        <path
          d="M147.68,154.26c14.07,5.2,28.43,8.33,43.25,10.63,12.46,1.94,26.28,2.04,38.29,6.12,1.21,.41,1.95-1.46,.74-1.84-26.66-8.35-55.59-4.62-82.2-15.09-.12-.05-.19,.14-.07,.18h0Z"
          fill="currentColor" />
        <path
          d="M142.02,161.53c14.88,5.32,30.3,7.24,46.02,8.24,12.98,.82,28.44-1.06,40.96,2.88,1.22,.38,1.96-1.49,.74-1.84-10.15-2.95-22.16-1.54-32.58-1.8-18.38-.46-37.73-.93-55.07-7.65-.12-.04-.19,.14-.07,.18h0Z"
          fill="currentColor" />
        <path
          d="M127.96,171.01c17.07,5.86,35.29,6.28,53.18,6.27,15.31,0,34.01-3.96,48.77,.34,1.22,.36,1.96-1.51,.74-1.84-10.86-2.94-24.15-.41-35.17,.02-21.67,.84-46.74,2.97-67.45-4.96-.12-.04-.19,.14-.07,.18h0Z"
          fill="currentColor" />
        <path
          d="M160.54,192.33c16.19-3.37,32.84-5.09,49.19-7.59,3.29-.5,22.52-1.09,23.49-4.9,.08-.33-.01-.59-.32-.75-1.68-.89-4.29,.38-6,.74-6.73,1.4-13.5,2.62-20.26,3.87-15.34,2.84-30.69,6.19-46.12,8.44-.12,.02-.09,.22,.03,.19h0Z"
          fill="currentColor" />
        <path
          d="M138.66,185.64c18.23-3.63,37.78-3.15,56.3-3.9,4.91-.2,28.74,2.23,31.51-2.36,.2-.33,.13-.73-.25-.89-7.58-3.32-25.13,1.33-33.23,1.88-18.19,1.23-36.29,2.72-54.36,5.08-.12,.02-.09,.21,.03,.19h0Z"
          fill="currentColor" />
        <path
          d="M146.99,202.62c18.34-4.11,36.78-7.71,55.07-12.06,4.45-1.06,26.85-3.26,28.77-8.21,.1-.27-.02-.67-.32-.75-2.02-.58-4.06,.66-6.05,1.2-8.56,2.32-17.08,4.77-25.64,7.05-17.02,4.52-34.41,10.05-51.86,12.59-.12,.02-.09,.22,.03,.19h0Z"
          fill="currentColor" />
        <path
          d="M147.2,219.15c17.18-4.14,33.7-10.25,50.11-16.77,7.42-2.94,14.82-5.94,22.13-9.15,1.75-.77,5.23-1.45,5.78-3.61,.08-.32-.24-.58-.51-.64-2.35-.5-5.58,2.01-7.63,2.97-6.73,3.14-13.53,6.14-20.35,9.07-15.59,6.71-32.64,15.36-49.56,17.95-.12,.02-.09,.22,.03,.19h0Z"
          fill="currentColor" />
        <path
          d="M153.32,225.24c16.04-3.95,30.99-11.16,45.65-18.65,3.77-1.92,23.93-9.36,24.38-14.27,.03-.34-.2-.57-.51-.64-1.88-.41-4.16,1.81-5.64,2.71-6.18,3.75-12.48,7.34-18.82,10.82-13.72,7.54-29.4,17.33-45.09,19.84-.12,.02-.09,.22,.03,.19h0Z"
          fill="currentColor" />
        <path
          d="M321.63,98.97c-8.21,8.24-17,17.2-23.37,26.92-6.63,10.12-12.57,28.97-26.21,31.37-1.68,.29-1.8,3.07,.06,3.12,8.64,.23,14.41-9.82,18.18-16.39,9.35-16.31,17.93-31.31,31.46-44.86,.09-.09-.03-.24-.12-.15h0Z"
          fill="currentColor" />
        <path
          d="M316.33,91.49c-8.19,8.1-17.04,17.22-23.36,26.83-6.71,10.19-11.29,24.45-22.79,30.33-1.52,.78-1,3.32,.85,3,7.39-1.29,11.6-11.22,14.86-16.96,8.8-15.53,17.59-30.43,30.56-43.05,.09-.09-.03-.24-.12-.15h0Z"
          fill="currentColor" />
        <path
          d="M331.89,97.55c-12.24,9.14-21.91,21.52-30.86,33.78-6.49,8.89-11.4,17.31-19.99,24.59-2.19,1.86-1.65,3.22-3.75,3.46-2.5,.29-.93,4.38,1.19,2.77,22.69-17.19,29.77-47.85,53.52-64.45,.1-.07-.02-.23-.12-.15h0Z"
          fill="currentColor" />
        <path
          d="M284.58,89.54c-9.99,18.11-15.72,36.88-21.94,56.42-.55,1.74,2.15,2.77,2.61,1.05,5.28-19.69,9.49-39.36,19.5-57.39,.06-.11-.12-.18-.18-.07h0Z"
          fill="currentColor" />
        <path
          d="M302.15,72.51c-15.99,23.27-28.44,48.9-39.39,74.88-.7,1.67,1.96,2.74,2.61,1.05,9.9-25.87,20.84-53.17,36.93-75.81,.07-.1-.08-.22-.15-.12h0Z"
          fill="currentColor" />
        <path
          d="M320.51,70.88c-17.18,24.54-35.34,49.25-49.77,75.57-.86,1.57,1.79,2.67,2.61,1.05,13.37-26.28,29.94-52.71,47.31-76.49,.07-.1-.08-.22-.15-.12h0Z"
          fill="currentColor" />
        <path
          d="M310.17,74.12c-16.1,23.26-30.7,48.13-42.76,73.75-.77,1.63,1.89,2.72,2.61,1.05,11.03-25.57,24.05-52.09,40.3-74.68,.07-.1-.08-.22-.15-.12h0Z"
          fill="currentColor" />
        <path
          d="M362.33,118.04c-15.72,12.55-34.22,21.82-52.34,30.39-10.69,5.06-22.24,11.52-33.84,14.24-1.56,.36-1.17,2.86,.37,2.46,11.75-3.06,23.33-9.84,34.09-15.26,18.18-9.17,35.58-19.4,51.84-31.67,.1-.07-.02-.23-.12-.15h0Z"
          fill="currentColor" />
        <path
          d="M371.61,121.76c-16.2,12.92-36.38,21.26-55.55,28.76-11.91,4.66-24.47,10.04-37.07,12.6-1.57,.32-1.19,2.81,.37,2.46,32-7.31,66.19-24.2,92.37-43.66,.1-.07-.02-.23-.12-.15h0Z"
          fill="currentColor" />
        <path
          d="M379,147.54c-14.18,5.05-29.49,8.01-44.1,11.49-9.69,2.31-19.4,4.54-29.19,6.39-4.55,.86-17.04,4.94-21.42,2.18-1.63-1.02-3.44,1.41-1.8,2.37,3.69,2.18,9.67,.41,13.52-.23,11.04-1.83,21.95-4.75,32.76-7.58,16.67-4.36,34.22-8.23,50.31-14.48,.1-.04,.03-.19-.07-.15h0Z"
          fill="currentColor" />
        <path
          d="M375.2,143.2c-13.98,5.23-28.77,8.93-43.13,12.92-9.24,2.57-18.52,5.06-27.88,7.2-4.27,.98-17.2,5.66-21.47,2.97-1.63-1.03-3.44,1.41-1.8,2.37,3.55,2.1,9.15,.25,12.82-.48,10.02-1.98,19.89-4.99,29.67-7.91,17.3-5.16,35.11-10.12,51.85-16.93,.1-.04,.03-.19-.07-.15h0Z"
          fill="currentColor" />
        <path
          d="M184.54,289.71c7.67-19.21,18.69-34.87,30.56-51.5,10.15-14.21,22.74-27.5,29.08-42.92-.73,1.77,2.07,2.9,2.77,1.11,.08-.2,.16-.4,.23-.6,.52-1.33-1.14-2.7-2.29-1.72-13.08,11.14-23.03,31.35-32.93,45.5-11.22,16.03-20.27,31.84-27.6,50.06-.05,.11,.13,.19,.18,.07h0Z"
          fill="currentColor" />
        <path
          d="M196.01,254.18c11.69-23.54,31.33-39.09,49.63-57.07,.91-.89-.13-2.26-1.22-1.57-20.86,13.21-37.51,36.9-48.59,58.57-.06,.11,.12,.18,.18,.07h0Z"
          fill="currentColor" />
        <path
          d="M325.31,230.51c-8.13-6.92-15.54-15.14-22.78-22.97-6.66-7.21-12.08-16.71-19.22-23.23-.61-.55-1.82,.11-1.58,.94,2.39,8.5,12.46,16.38,18.51,22.35,8.06,7.94,16.98,15.04,24.93,23.06,.1,.1,.24-.05,.13-.14h0Z"
          fill="currentColor" />
        <path
          d="M319.25,245.69c-7.23-10.75-14.85-21.14-22.67-31.46-6.68-8.81-12.63-20.06-20.42-27.8-.8-.8-2.05-.12-1.7,1,3,9.57,13.33,18.84,19.6,26.4,8.6,10.38,17.73,20.62,25.04,31.98,.07,.1,.22-.02,.15-.12h0Z"
          fill="currentColor" />
        <path
          d="M304.84,264.74c-8.41-12.97-13.24-28.65-18.61-43.05-3.3-8.84-6.24-24.55-13.41-31-.65-.59-1.73,.12-1.58,.94,.87,4.92,4.33,9.81,6.34,14.39,2.82,6.4,5.46,12.88,8.17,19.33,5.67,13.51,11.51,26.83,18.93,39.49,.07,.12,.24,.02,.16-.1h0Z"
          fill="currentColor" />
        <path
          d="M292.43,250.44c-4.54-11.18-7.62-22.86-10.91-34.45-2.06-7.26-3.77-17.8-9.21-23.39-.61-.62-2.03-.32-1.77,.76,1.95,7.87,6.6,15.59,9.25,23.37,3.88,11.4,7.97,22.61,12.46,33.79,.05,.12,.22,.04,.18-.08h0Z"
          fill="currentColor" />
        <path
          d="M195.65,236.07c5.37-7.68,12-14.64,18.24-21.62,3.78-4.23,7.38-8.25,11.77-11.86,2.27-1.86,7.88-8.18,10.56-7.42,1.11,.31,1.81-1.36,.68-1.69-5.05-1.47-12.99,7.13-16.13,10.02-9.62,8.85-17.58,21.9-25.27,32.46-.07,.1,.08,.22,.15,.12h0Z"
          fill="currentColor" />
        <path
          d="M216.39,215.32c4.37-5.04,9.32-9.29,14.58-13.37,2.41-1.87,7.81-8.89,11.01-8.58,1.28,.12,1.5-1.92,.22-1.97-4.32-.2-7.19,5.34-9.93,7.85-5.66,5.18-11.28,9.89-16.02,15.97-.07,.08,.06,.18,.13,.1h0Z"
          fill="currentColor" />
        <path
          d="M212.32,280.74c-.9-13.08,10.37-32.25,15.62-43.55,1.81-3.89,16.71-39.21,18.43-39.02,1.22,.13,1.86-1.47,.89-2.22-.16-.13-.33-.25-.49-.38-.73-.56-1.83-.25-2.17,.6-6.6,16.41-14.97,32.2-21.47,48.74-3.92,9.97-12.07,24.82-10.98,35.86,.01,.11,.17,.08,.16-.02h0Z"
          fill="currentColor" />
        <path
          d="M231.77,271.94c.91-12.69,4.01-25.08,6.08-37.61,1.13-6.83,2.42-13.41,4.58-20.01,1.3-3.98,3.57-15.47,7.04-17.88,.21-.14,.33-.45,.28-.7-.02-.11-.04-.21-.06-.32-.26-1.27-1.91-1.45-2.46-.29-10.9,22.91-14.67,51.65-15.63,76.78,0,.11,.16,.13,.16,.02h0Z"
          fill="currentColor" />
        <path
          d="M252.39,305.11c.28-33.37,10.02-66.75,8.36-99.97-.11-2.2-3.7-1.74-3.44,.51,3.75,32.89-5.21,66.43-5.11,99.43,0,.12,.19,.15,.19,.02h0Z"
          fill="currentColor" />
        <path
          d="M247.03,275.29c3.24-23.99,7.33-47.21,13.12-70.56,.4-1.63-2.32-2.29-2.86-.72-7.86,22.51-8.28,47.53-10.42,71.26,0,.11,.15,.12,.16,.02h0Z"
          fill="currentColor" />
        <path
          d="M273.75,288.06c3.47-16.55,1.64-35.6-.7-52.19-1.41-10.01-1.59-23.1-7.43-31.63-.73-1.07-2.32-.02-1.89,1.11,.05,.14,.11,.29,.16,.43,.12,.32,.56,.5,.87,.35-1.78,.84,5.67,27.23,6.22,30.04,3.14,15.98,6.34,35.88,2.57,51.86-.03,.12,.17,.14,.19,.02h0Z"
          fill="currentColor" />
        <path
          d="M268.4,261.7c.46-10.68-.74-20.93-2.03-31.45-1.05-8.6,1.76-17.37-.86-25.65-.32-1.01-1.85-.36-1.52,.65,2.56,7.93-.39,16.94,.9,25.22,1.62,10.43,3.83,20.5,3.32,31.21,0,.12,.19,.15,.19,.02h0Z"
          fill="currentColor" />
        <path
          d="M243.13,234.98c-.23-12.7,5.02-24.16,8.48-36.01,.35-1.21-1.45-1.97-1.84-.74-1.89,5.96-4.72,11.66-5.34,17.93-.62,6.35-1.35,12.41-1.49,18.8,0,.12,.19,.14,.19,.02h0Z"
          fill="currentColor" />
        <path
          d="M352.45,198.44c-13.32-6.03-27.39-9.29-40.88-14.95-9.81-4.11-20.81-10.63-31.78-8.68-1.17,.21-.89,1.86,.27,1.8,13.98-.66,28.12,7.07,40.89,11.95,10.3,3.94,21.42,5.45,31.43,10.05,.11,.05,.18-.13,.07-.18h0Z"
          fill="currentColor" />
        <path
          d="M327.9,194.14c-6.19-4.96-16-8.09-23.28-11.15-7.89-3.31-14.66-7.35-22.93-8.98-1.24-.25-1.49,1.78-.22,1.97,7.09,1.11,14.24,4.84,21.02,7.28,4.67,1.68,9.02,3.91,13.58,5.82,3.85,1.62,8.49,2.39,11.72,5.21,.09,.08,.21-.08,.12-.15h0Z"
          fill="currentColor" />
        <path
          d="M338.61,201.9c-18.81-8.95-37.03-19.29-57.58-23.06-1.77-.32-2.12,2.55-.31,2.8,20.52,2.86,38.96,12.4,57.84,20.41,.1,.04,.16-.11,.06-.15h0Z"
          fill="currentColor" />
        <path
          d="M323.83,204.29c-6.84-6.55-14.3-13.39-22.62-18.02-6.99-3.89-12.93-4.87-20.45-6.66-1.02-.24-1.82,1.25-1.12,2,2.16,2.32,9.06,1.97,11.96,2.91,12.1,3.95,22.51,11.76,32.13,19.9,.08,.07,.18-.06,.1-.13h0Z"
          fill="currentColor" />
        <path
          d="M302.98,237.49c-1.95-9.79-9.52-18.67-14.02-27.46-4.28-8.36-8.3-15.93-14.14-23.14-1.14-1.41-3.38,.33-2.22,1.73,5.44,6.58,9.36,13.71,13.78,21.07,5.15,8.6,13.89,18.13,16.44,27.82,.03,.1,.19,.08,.16-.02h0Z"
          fill="currentColor" />
        <path
          d="M330.28,219.31c-14.76-12.97-31.93-24.7-48.39-35.36-1.62-1.05-3.43,1.4-1.8,2.37,8.2,4.91,16.08,10.68,24.23,15.87,8.39,5.34,18.44,10.67,25.85,17.27,.09,.08,.21-.07,.12-.15h0Z"
          fill="currentColor" />
        <path
          d="M358.96,275.25c3.13,9.69,7.55,24.36,17.81,29.31,.86,.41,1.46-1.04,.55-1.38-10.21-3.88-15.85-18.53-18.18-27.98-.03-.13-.23-.08-.18,.05h0Z"
          fill="currentColor" />
        <path
          d="M363.94,283.41c3.35,6.88,7.33,16.29,14.67,19.99,.85,.43,1.47-1.05,.55-1.38-7.32-2.63-12.5-12-15.05-18.69-.04-.12-.23-.04-.18,.08h0Z"
          fill="currentColor" />
        <path
          d="M325.45,84.7c13.41-11.4,26.33-25.38,43.42-31.21,.79-.27,.42-1.63-.4-1.42-17.61,4.34-29.7,21.66-43.14,32.48-.1,.08,.02,.23,.12,.15h0Z"
          fill="currentColor" />
        <path
          d="M331.56,71.21c8.41-9.1,20.71-18.45,33.28-18.75,.53-.01,.51-.77,.11-.95-5.25-2.44-12.48,2.39-16.63,5.26-6.09,4.2-10.84,10.22-16.9,14.31-.11,.07,.04,.24,.14,.13h0Z"
          fill="currentColor" />
        <path
          d="M343.23,74.01c4.49-4.44,9.59-8.39,14.94-11.74,5.49-3.44,11.41-5.31,17.15-8.12,.48-.24,.31-1.07-.27-.95-12.46,2.61-22.81,12.53-31.94,20.66-.09,.08,.03,.24,.12,.15h0Z"
          fill="currentColor" />
        <path
          d="M362.05,94.17c9.68-6.43,26.2-11.88,30.36-23.87,.18-.52-.51-.95-.86-.49-7.65,10.32-17.99,18.47-29.6,24.19-.12,.06-.02,.24,.1,.16h0Z"
          fill="currentColor" />
        <path
          d="M371.43,92.19c8.07-5.29,20-10.64,24.1-20.01,.24-.54-.5-.89-.86-.49-6.93,7.85-13.85,15.39-23.34,20.33-.12,.06-.02,.24,.1,.16h0Z"
          fill="currentColor" />
        <path
          d="M370.07,85.54c7.03-4.46,16.58-8.04,19.07-16.93,.14-.49-.54-1-.86-.49-2.38,3.86-4.26,7.38-7.82,10.36-3.16,2.65-6.83,4.99-10.49,6.89-.12,.06-.02,.24,.1,.16h0Z"
          fill="currentColor" />
        <path
          d="M380.64,91.58c6.53-4.25,13.71-8.93,16.89-16.44,.22-.53-.51-.91-.86-.49-2.34,2.83-3.98,6.16-6.44,8.94-2.73,3.08-6.06,5.87-9.69,7.82-.12,.07-.02,.24,.1,.16h0Z"
          fill="currentColor" />
        <path
          d="M385.09,91.79c5.91-3.81,13.2-6.36,16.03-13.5,.21-.54-.5-.9-.86-.49-2.39,2.72-3.89,5.88-6.73,8.27-2.54,2.14-5.59,4.05-8.54,5.55-.12,.06-.02,.24,.1,.16h0Z"
          fill="currentColor" />
        <path
          d="M337.99,62.05c3.01-2.97,6.48-5.44,10.09-7.6,2.56-1.53,7.73-3.71,10.79-2.94,.61,.15,.74-.86,.11-.99-1.55-.32-2.8-.02-4.29,.43-1.61,.49-3.83,.94-5.33,1.8-4.22,2.44-7.7,6.13-11.5,9.14-.1,.08,.03,.24,.12,.15h0Z"
          fill="currentColor" />
        <path
          d="M335.51,59.62c.64-1.4,2.32-1.93,3.5-2.75,1.38-.95,2.67-2.02,4.1-2.91,1.73-1.08,3.49-1.96,5.41-2.62,1.8-.61,3.63-1.68,5.56-1.68,.83,0,.82-1.19-.02-1.15-1.92,.1-3.16,.98-4.86,1.71-1.71,.74-3.41,1.32-5.02,2.32-1.91,1.19-3.55,2.77-5.32,4.13-1.23,.95-2.51,1.64-3.52,2.84-.09,.1,.11,.23,.17,.09h0Z"
          fill="currentColor" />
        <path
          d="M246.98,42.79c-1.4-7.79-3.03-15.33-5.88-22.76-2.42-6.31-6.98-18.45-14.64-19.91-.53-.1-.77,.55-.52,.93,2.32,3.58,5.98,6.2,8.41,9.83,2.53,3.78,4.56,7.89,6.32,12.07,2.72,6.47,4.5,13.06,6.14,19.86,.02,.1,.18,.08,.16-.02h0Z"
          fill="currentColor" />
        <path
          d="M201.19,43.01c-3.45-4.93-5.53-11.42-6.95-17.19-.78-3.19-1.37-6.47-1.32-9.76,.03-2.07,.97-4.22,.4-6.2-.09-.3-.5-.42-.76-.3-4.6,2.03-1.37,12.16-.36,15.44,1.91,6.21,4.65,13.05,8.85,18.12,.07,.08,.19-.01,.13-.1h0Z"
          fill="currentColor" />
        <path
          d="M197.11,43.6c-3.46-4.92-5.53-11.42-6.95-17.19-.78-3.19-1.37-6.47-1.33-9.76,.03-2.07,.97-4.22,.4-6.19-.09-.3-.5-.42-.76-.3-4.6,2.02-1.37,12.16-.35,15.44,1.91,6.21,4.65,13.06,8.86,18.12,.07,.08,.19-.01,.13-.1h0Z"
          fill="currentColor" />
        <path
          d="M189.55,40.57c-2.84-4.08-4.56-9.24-5.55-14.06-.56-2.72-.89-5.47-.67-8.24,.16-1.97,1.09-3.96,.71-5.9-.07-.34-.46-.63-.8-.45-4.25,2.3-2.08,10.67-1.05,14.22,1.48,5.1,3.77,10.44,7.23,14.53,.07,.08,.19-.01,.13-.1h0Z"
          fill="currentColor" />
        <path
          d="M160.37,70c-4.69-3.7-7.67-10.39-9.93-15.76-1.36-3.22-2.53-6.58-3.07-10.04-.34-2.19,.28-4.97-.87-6.88-.17-.28-.58-.26-.81-.1-4.38,3.07,1.58,14.45,3.24,17.67,2.74,5.29,6.26,11.84,11.34,15.24,.09,.06,.18-.07,.1-.13h0Z"
          fill="currentColor" />
        <path
          d="M157.78,75.35c-4.23-3.3-7.35-8.76-9.64-13.49-1.34-2.76-2.52-5.69-3.1-8.72-.43-2.25,.16-5.06-.89-7.06-.17-.32-.58-.48-.89-.23-4.11,3.29,1.24,12.88,3.09,16.1,2.81,4.89,6.5,10.39,11.32,13.53,.09,.06,.18-.07,.1-.13h0Z"
          fill="currentColor" />
        <path
          d="M250.15,33.2c.23,1.36,.31,3.11,.82,4.55,.09,.27,.51,.14,.47-.13-.98-6.02-2.99-12.1-5.26-17.74-2.31-5.76-6.91-17.46-14.06-18.48-.54-.08-.76,.53-.52,.93,2.46,4.13,6.79,7.16,9.43,11.39,2.79,4.47,4.96,9.34,6.82,14.26,.96,2.55,1.43,6.85,2.96,9.07,.98,1.42,.01-1.75-.15-2.25-.22-.65-.3-1.35-.56-1.98-.04-.1-.2-.06-.18,.05,.03,.12,.06,.24,.08,.36,.02,.1,.18,.08,.16-.02h0Z"
          fill="currentColor" />
        <path
          d="M256.49,35.49c.2,1.19,.28,2.65,.66,3.91,.08,.25,.48,.13,.44-.12-1-6.04-2.99-12.11-5.26-17.77-2.31-5.75-6.91-17.46-14.05-18.48-.54-.08-.76,.53-.52,.93,2.32,3.9,6.46,6.78,9.01,10.71,2.88,4.46,5.11,9.35,7.01,14.3,1.07,2.79,1.57,6.76,3.09,9.3,1.05,1.76-.14-2.37-.44-3.2-.04-.1-.21-.05-.18,.05,.03,.13,.06,.26,.09,.39,.02,.1,.18,.08,.16-.02h0Z"
          fill="currentColor" />
        <path
          d="M225.16,298.35c-5.7,9.3-10.13,19.18-12.71,29.82-1.16,4.79-4.3,15.48,.51,19.28,.35,.27,.85-.05,.79-.47-2.28-16.72,1.97-34.33,11.55-48.51,.07-.1-.09-.22-.15-.12h0Z"
          fill="currentColor" />
        <path
          d="M218.19,296.41c-5.7,9.3-10.13,19.18-12.7,29.82-1.16,4.79-4.3,15.48,.51,19.28,.35,.27,.85-.05,.79-.47-2.28-16.72,1.97-34.33,11.55-48.51,.07-.1-.09-.22-.15-.12h0Z"
          fill="currentColor" />
        <path
          d="M264.85,301.21c5.48,14.9,6.53,31.63,.46,46.46-.62,1.52,2.16,1.86,1.9,.22-.01-.09-.03-.18-.04-.27-.1-.61-.83-.91-1.32-.53-.07,.06-.15,.11-.22,.17,.51,.38,1.02,.77,1.53,1.15,5.86-16.19,2.86-31.31-2.12-47.27-.04-.12-.22-.04-.18,.08h0Z"
          fill="currentColor" />
        <path
          d="M270.82,303.57c.92,7.68,2.43,14.25,2.3,22.14-.12,7.49-1.95,14.18-4.78,21.1-.57,1.4,1.74,2.09,2.05,.52,.13-.63,.12-.78,.07-1.4-.04-.48-.7-.75-1.06-.43-.47,.42-.57,.52-.92,1.06,.61,.35,1.23,.7,1.84,1.04,2.15-5.99,4.1-12.31,4.19-18.74,.12-8.8-2.12-16.77-3.53-25.31-.02-.11-.18-.08-.16,.02h0Z"
          fill="currentColor" />
        <path
          d="M275.1,300c.91,7.68,2.43,14.25,2.3,22.14-.12,7.49-1.96,14.18-4.78,21.09-.57,1.4,1.73,2.09,2.05,.52,.13-.64,.13-.78,.07-1.41-.04-.48-.7-.75-1.06-.43-.48,.42-.58,.52-.92,1.07,.61,.35,1.23,.7,1.84,1.04,2.15-5.99,4.11-12.31,4.2-18.74,.12-8.8-2.13-16.77-3.53-25.32-.02-.11-.18-.08-.16,.02h0Z"
          fill="currentColor" />
        <path
          d="M141.16,124.87c-15.69-6.03-34.62-14.31-51.57-8.08-.5,.19-.17,.93,.33,.76,16.08-5.46,36.32,1.58,51.17,7.49,.12,.05,.19-.13,.07-.18h0Z"
          fill="currentColor" />
        <path
          d="M137.12,120.14c-14-5.43-29.58-14.04-44.2-6.21-.46,.25-.16,1,.33,.76,13.77-6.87,30.65,.32,43.8,5.63,.11,.05,.19-.13,.07-.18h0Z"
          fill="currentColor" />
        <path
          d="M136.39,115.03c-7.91-3.06-16.75-7.98-25.52-7.85-3.46,.05-6.49,1.55-9.87,2.02-.53,.07-.41,.87,.12,.82,3.28-.34,6.28-1.68,9.61-1.65,8.59,.09,17.76,3.68,25.58,6.85,.11,.05,.19-.13,.07-.18h0Z"
          fill="currentColor" />
        <path
          d="M124.85,123.87c-11.91-3.58-28.41-9.46-40-1.62-.45,.3,.06,.93,.51,.65,10.75-6.77,28.53-2.35,39.42,1.14,.12,.04,.19-.14,.07-.18h0Z"
          fill="currentColor" />
        <path
          d="M114.01,206.39c-6.19,2-12.61,2.7-19.08,2.52-3.39-.09-7.43-.17-10.24-2.3-.43-.32-.91,.32-.5,.66,7.76,6.44,21.66,1.76,29.9-.71,.12-.04,.04-.22-.08-.18h0Z"
          fill="currentColor" />
        <path
          d="M116.39,204.11c-6.57,1.07-13.24,1.55-19.88,2.01-3.39,.24-8.24,1.13-11.18-1.13-.42-.33-.91,.32-.5,.66,2.36,1.98,5.91,1.9,8.8,1.88,7.66-.05,15.23-2.18,22.78-3.23,.12-.02,.09-.21-.03-.19h0Z"
          fill="currentColor" />
        <path
          d="M133.66,230.08c-6.53,2.42-13.86,2.64-20.73,2.43-4.11-.12-10.17,.3-13.71-2.19-.43-.31-.93,.34-.5,.66,3.56,2.71,9.87,2.78,14.07,2.78,7.21,0,14.1-1.4,20.95-3.5,.12-.04,.04-.22-.08-.18h0Z"
          fill="currentColor" />
        <path
          d="M129.97,233.14c-7.15,2.56-19.44,3.64-25.97-1.44-.42-.33-.9,.31-.5,.66,7.21,6.2,18.53,3.54,26.55,.95,.12-.04,.04-.22-.08-.18h0Z"
          fill="currentColor" />
        <path
          d="M107.67,202.1c-5.5,.71-11.18,.84-16.72,.56-2.74-.14-5.43-.38-7.63-2.18-.42-.34-.89,.31-.5,.66,6.22,5.65,17.78,1.88,24.88,1.15,.12-.01,.1-.21-.03-.19h0Z"
          fill="currentColor" />
        <path
          d="M102.97,200.22c-6.33,.98-14.59,1.7-19.81-2.74-.41-.35-.87,.3-.5,.66,5.76,5.57,13.16,3.16,20.34,2.27,.12-.02,.09-.21-.03-.19h0Z"
          fill="currentColor" />
        <path
          d="M133.68,109.42c-4.38-1.89-8.67-4.42-13.46-5.13-3.61-.54-7.19,.46-10.65,1.43-.5,.14-.41,.94,.12,.82,8.56-1.9,15.94-.68,23.91,3.07,.11,.05,.19-.13,.07-.18h0Z"
          fill="currentColor" />
        <path
          d="M371.6,204.24c7.98,.32,14.76,2.08,22.22,4.95,5.4,2.08,17.96,6.22,19.01,13.5,.08,.54,.97,.56,.99-.02,.11-4.59-7.27-8.83-10.81-10.56-10.07-4.92-20.39-7.22-31.39-8.07-.12,0-.15,.19-.02,.19h0Z"
          fill="currentColor" />
        <path
          d="M313.52,279.88c3.08,7.32,8.02,14.46,12.49,21.07,4.31,6.38,9.93,13.9,17.66,16.12,.64,.18,1.34-.24,1.23-.97-.03-.18-.05-.36-.08-.55-.06-.43-.58-.64-.93-.37-3.39,2.63-15.91-13.09-17.89-15.82-4.04-5.58-9.9-13.09-12.3-19.56-.04-.12-.23-.04-.18,.08h0Z"
          fill="currentColor" />
        <path
          d="M321.64,301.1c2.14,5.11,5.34,9.9,9.88,13.14,2.02,1.44,5.95,4.71,8.64,3.99,.46-.12,.7-.38,.81-.84,.08-.35,.02-.54-.09-.87-.11-.34-.51-.34-.76-.2-1.64,.97-6.47-2.36-7.79-3.15-4.66-2.8-8.11-7.33-10.54-12.13-.05-.09-.19-.03-.15,.07h0Z"
          fill="currentColor" />
        <path
          d="M328.78,297.06c3.27,6.74,7.06,11.05,12.8,15.72,1.27,1.03,6.89,6.39,8.25,3.11,.12-.28-.14-.62-.45-.56-3.02,.59-6.92-3.45-9.18-5.04-5.04-3.55-8.86-7.53-11.25-13.31-.05-.12-.23-.04-.18,.08h0Z"
          fill="currentColor" />
        <path
          d="M338.82,303.16c2.03,3.09,5.05,5.44,7.53,8.15,1.8,1.97,4.13,3.38,6.51,4.57,1.23,.61,2.11-1.51,.8-2-2.56-.95-5.12-2.34-7.1-4.2-2.47-2.31-5.44-3.99-7.6-6.62-.07-.08-.19,.01-.13,.1h0Z"
          fill="currentColor" />
        <path
          d="M395.94,124.67c4.97-5.79,9.88-11.2,12.3-18.62,.13-.41-.5-.65-.61-.25-2.02,6.91-6.67,13.78-11.82,18.74-.1,.1,.04,.24,.14,.13h0Z"
          fill="currentColor" />
        <path
          d="M397.14,128.56c1.67-1.76,3.57-3.16,5.12-5.06,2.17-2.67,3.95-5.61,5.63-8.6,.31-.55-.64-.95-.92-.37-2.19,4.47-5.31,11.28-9.95,13.89-.14,.08,0,.26,.11,.15h0Z"
          fill="currentColor" />
        <path
          d="M396.49,118.81c4.81-4.8,9.07-8.92,11.5-15.51,.22-.6-.73-.98-.92-.37-1.74,5.6-5.46,12.56-10.69,15.73-.11,.06,.03,.24,.12,.15h0Z"
          fill="currentColor" />
        <path
          d="M395.56,115.02c5.02-5.08,9.52-9.8,12.05-16.67,.22-.6-.73-.98-.92-.37-1.82,5.81-5.83,13.55-11.26,16.91-.11,.07,.03,.24,.14,.13h0Z"
          fill="currentColor" />
        <path
          d="M358.96,275.25c2.84,8.78,5.89,17.36,12.04,24.41,1.37,1.57,4.08,4.98,6.4,5.15,.62,.05,1.03-.65,.65-1.16-.17-.23-.49-.35-.74-.47-.86-.41-1.46,1.05-.55,1.38,.29,.11,.41,.27,.15-.02,.22-.39,.44-.78,.65-1.16-2.01,.02-5.68-3.87-6.95-5.22-5.81-6.17-9.47-14.84-11.47-22.96-.03-.13-.23-.08-.18,.05h0Z"
          fill="currentColor" />
        <path
          d="M377.77,209.98c11.23,3.23,29.31,6.01,35.96,16.76,.5,.8,1.75-.13,1.18-.91-7.75-10.69-25.53-12.08-37.06-16.02-.12-.04-.19,.14-.07,.18h0Z"
          fill="currentColor" />
        <path
          d="M378.29,214.64c11.23,3.24,29.31,6.01,35.96,16.76,.5,.8,1.75-.13,1.18-.91-7.75-10.69-25.53-12.08-37.06-16.03-.12-.04-.19,.14-.07,.18h0Z"
          fill="currentColor" />
      </g>
      <g>
        <g>
          <path
            d="M198.22,432.01c.35,8.89-.55,16.95,2.26,25.62,1.94,5.98,4.74,11.85,7.98,17.23,.19,.31,.74,0,.56-.33-2.82-5.06-5.22-10.54-7.27-15.95-3.34-8.79-3.28-17.31-3.37-26.57,0-.11-.15-.11-.15,0h0Z"
            fill="currentColor" />
          <path
            d="M195.79,443.93c.24,4.8,2.02,9.85,3.52,14.37,1.8,5.41,4.22,11.57,8.64,15.42,.25,.22,.56-.19,.31-.41-4.53-4.09-6.72-10.72-8.74-16.31-1.49-4.13-3.24-8.66-3.61-13.08,0-.08-.13-.06-.13,.02h0Z"
            fill="currentColor" />
          <g>
            <path
              d="M222.3,358.59c-7.54,12.42-6.11,20.58-6.92,35.01-.7,12.52-3.54,24.39-6.85,36.52-4.45,16.29-3.15,31.21,1.39,47.65,.15,.56,1.06,.43,.9-.13-5.2-19-4.29-35.21,.5-53.97,5.08-19.9,1.38-47.63,11.11-65.01,.04-.07-.09-.15-.13-.07h0Z"
              fill="currentColor" />
            <path
              d="M222.44,358.34c-33.48,21.89-44.12,90.54-12.83,117.97,.44,.39,.98-.34,.55-.73-31.59-28.25-18.19-92.85,12.37-117.13,.08-.06-.01-.17-.09-.12h0Z"
              fill="currentColor" />
            <path
              d="M207.23,401.96c-3.8,22.7-9.63,53.37,2.07,74.64,.2,.36,.78,.13,.6-.26-10.21-21.66-6.82-51.43-2.52-74.37,.02-.1-.13-.11-.15-.02h0Z"
              fill="currentColor" />
            <path
              d="M222.67,358.1c-8.84,10.89-13.6,22.98-14.39,37.16,0,.08,.12,.1,.13,.01,1.05-13.41,5.66-26.75,14.38-37.09,.06-.07-.06-.17-.12-.09h0Z"
              fill="currentColor" />
            <path
              d="M221.68,359.42c-.18,1.47-5.02,5.37-5.91,6.53-4.51,5.9-7.38,12.84-9.81,19.81-.03,.08,.09,.13,.12,.05,2.7-7.04,6-13.88,10.36-20.06,1.1-1.56,3.38-5.53,5.35-6.25,.15-.06-.08-.25-.1-.08h0Z"
              fill="currentColor" />
            <path
              d="M221.7,359.39c-7.29,9.58-11.73,20.58-10.05,32.76,.03,.25,.41,.19,.39-.06-1.09-11.96,3.45-22.73,9.76-32.62,.04-.07-.05-.15-.1-.08h0Z"
              fill="currentColor" />
          </g>
        </g>
        <g>
          <path
            d="M137.35,313.31c2.23,9.68,6.78,18.12,11.61,26.7,11.2,19.91,15.29,37.51-4.08,53.3-.87,.71,.2,2.09,1.07,1.38,10.5-8.56,16.68-18.86,14.74-32.57-2.46-17.42-17.49-32.25-23.19-48.85-.03-.08-.17-.05-.15,.04h0Z"
            fill="currentColor" />
          <path
            d="M137.35,313.29c-1.5,14.61,.6,28.5,3.78,42.77,2.63,11.79,7.35,24.64,3.35,36.58-.23,.69,.71,1.04,1.03,.41,4.23-8.24,1.19-18.62-.69-27.07-3.92-17.61-7.38-34.49-7.31-52.67,0-.1-.15-.12-.16-.02h0Z"
            fill="currentColor" />
          <path
            d="M127.24,315.88c9.37,12.52,1.63,30.47,1.53,44.62-.1,13.36,5.32,25.02,15.96,33.24,.34,.27,.88-.23,.55-.56-14.62-14.72-16.22-28.97-13.49-48.68,1.46-10.57,2.4-19.85-4.41-28.74-.07-.09-.22,.02-.15,.11h0Z"
            fill="currentColor" />
          <path
            d="M127.23,315.86c3.7,7.09-3.81,19.82-6.24,26.58-2.8,7.79-5.37,16.02-5.21,24.4,.35,17.93,13.07,25.28,29.54,27.96,1,.16,1.2-1.47,.18-1.58-28.15-3.02-31.36-26.2-23.61-48.95,2.72-7.98,10.36-20.07,5.51-28.48-.06-.1-.23-.03-.17,.07h0Z"
            fill="currentColor" />
          <path
            d="M131.69,312.82c.27,2.66-.29,5.61-.38,8.29-.11,3.25-.06,6.37,.52,9.57,.11,.61,.99,.47,.94-.14-.24-3.3-.62-6.6-.77-9.91-.12-2.5-.57-5.37-.12-7.82,.02-.13-.2-.14-.18,0h0Z"
            fill="currentColor" />
          <path
            d="M131.7,312.84c.81,1.81,1.67,3.29,2.75,4.99,2.21,3.47,2.61,7.28,2.56,11.32,0,.6,.87,.73,.95,.11,.41-3.53-.08-6.91-1.93-9.99-1.04-1.72-4.29-4.3-4.16-6.45,.01-.16-.24-.11-.18,.03h0Z"
            fill="currentColor" />
          <path
            d="M154.98,371.85c1.64,5.03-1.62,10.74-4.43,14.72-.95,1.35-1.97,2.66-3.08,3.88-.6,.66-2.16,1.83-1.62,1.9-1.01-.13-1.2,1.51-.18,1.58,2.19,.14,5.11-5.7,5.98-7.16,2.8-4.69,4.55-9.53,3.5-14.98-.03-.13-.22-.08-.18,.05h0Z"
            fill="currentColor" />
          <path
            d="M149.95,369.06c1.71,5.05-.25,11.26-1.99,16.04-.64,1.77-1.36,3.52-2.17,5.22-.37,.77-1.53,2.38-.93,2.31-1.01,.1-.78,1.74,.23,1.57,1.91-.32,3.26-6.83,3.67-8.21,1.71-5.64,2.54-11.18,1.36-16.99-.03-.13-.22-.08-.18,.05h0Z"
            fill="currentColor" />
          <path
            d="M137.6,363.53c3.76,5.73,5.39,12.85,5.98,19.6,.2,2.22,.28,4.45,.2,6.68-.02,.56-.08,1.11-.09,1.67-.03,1.12-.39,.61,.34,.37-.97,.31-.34,1.77,.62,1.46,0,0,0,0,.01,0,.27-.09,.44-.38,.48-.64,1.54-9.83-2.74-20.91-7.38-29.23-.06-.12-.23-.02-.16,.09h0Z"
            fill="currentColor" />
          <path
            d="M133.61,354.1c-.7,10.41,.41,20.27,4.73,29.85,.69,1.53,3.71,9.45,6.1,9.4,1.02-.02,.78-1.59-.23-1.57,.78-.02-1.02-1.9-1.5-2.62-1.71-2.53-3.14-5.24-4.38-8.02-3.73-8.38-5.65-17.87-4.53-27.03,.01-.12-.18-.14-.18-.02h0Z"
            fill="currentColor" />
          <path
            d="M123.42,373.57c.71,5.63,2.65,9.3,6.75,13.11,3.94,3.66,9.23,7.93,14.92,7.52,.89-.06,.87-1.53-.03-1.57-9.39-.5-20.75-9.37-21.46-19.08,0-.12-.2-.09-.18,.03h0Z"
            fill="currentColor" />
          <path
            d="M128.75,335.48c1.08-3.79,2.02-7.38,1.71-11.37-.15-1.97-.32-5.52-2.16-6.82-.25-.18-.53,.19-.29,.38,2,1.51,1.75,5.99,1.77,8.18,.03,3.13,.1,6.65-1.2,9.55-.05,.11,.14,.18,.17,.07h0Z"
            fill="currentColor" />
          <path
            d="M145.52,340.4c-2.5-3.82-3.3-9.02-4.54-13.33-1.09-3.8-2.27-7.71-2.73-11.65-.04-.31-.5-.23-.47,.07,.83,8.84,4.26,16.91,7.58,25,.05,.12,.23,.02,.16-.09h0Z"
            fill="currentColor" />
        </g>
        <g>
          <path
            d="M248.42,533.52c-15.64-37.19-51.39-60.29-89.37-69.14-39.99-9.31-74.92-4.85-100.02,28.86-.49,.65,.5,1.4,1.01,.77,29.78-37.51,73.92-37.19,116.84-22.62,31.21,10.59,54.93,34.01,71.36,62.22,.07,.11,.25,.05,.19-.08h0Z"
            fill="currentColor" />
          <path
            d="M250.45,536.92c-19.29-8.13-38.89-15.83-57.3-26.1-15.68-8.75-31.1-19.8-48.15-25.91-19.33-6.92-73.8-18.88-84.17,6.72-.22,.53,.61,1.04,.91,.52,11.17-19.49,47.44-12.01,64.44-9,16.17,2.86,29.47,9.88,43.69,17.42,26.72,14.16,52.27,25.97,80.48,36.59,.15,.06,.24-.17,.09-.23h0Z"
            fill="currentColor" />
          <path
            d="M239.13,531.16c-35.95-28.73-81.44-61.21-130.04-55.2-.27,.03-.2,.43,.06,.42,49.38-1.96,91.08,28.03,129.82,54.98,.13,.09,.27-.1,.15-.2h0Z"
            fill="currentColor" />
          <path
            d="M204.25,490.48c10.78,5.15,19.29,15.9,26.81,24.85,5.51,6.55,11.26,13.19,15.85,20.44,.58,.92,1.89-.12,1.33-1.04-10.53-17.09-26.5-34.31-43.87-44.47-.15-.09-.28,.13-.12,.21h0Z"
            fill="currentColor" />
          <path
            d="M200.21,496.16c8.56,5.24,16.08,12.88,23.4,19.67,5.79,5.38,12.9,10.86,17.57,17.28,.64,.88,1.95-.15,1.33-1.04-10.16-14.62-28.21-25.52-42.16-36.11-.13-.1-.28,.11-.15,.2h0Z"
            fill="currentColor" />
          <path
            d="M186.16,484.56c21.97,7.94,42.75,30.3,55.6,49.54,.61,.91,1.91-.13,1.33-1.04-13.02-20.2-34.74-39.53-56.84-48.73-.15-.06-.24,.17-.09,.23h0Z"
            fill="currentColor" />
        </g>
        <path
          d="M100.06,402.89c3.65,1.17,7.17,2.25,10.61,3.29,29.57,9.01,52.92,16.12,99.75,69.69l-1.85,1.62c-46.36-53.04-69.42-60.07-98.62-68.96-3.44-1.05-6.97-2.12-10.64-3.3l.75-2.34Z"
          fill="currentColor" />
        <path
          d="M143.57,393.16l1.53-1.16c9.79,12.9,19.21,25.16,28.19,36.84,71.8,93.41,115.03,149.82,90.35,203.53l-1.75-.81c.57-1.23,1.1-2.46,1.59-3.69,20.68-51.62-22.03-107.19-91.72-197.86-8.98-11.69-18.41-23.95-28.19-36.85Z"
          fill="currentColor" />
        <g>
          <path
            d="M37.15,375.65c-6.64-.54-13.03-.69-19.64,.34-5.43,.84-11.57,2.95-17.07,1.79-.47-.1-.54,.63-.08,.74,4.39,1.05,9.18-.12,13.55-.78,7.61-1.15,15.51-2.99,23.22-1.81,.18,.03,.22-.27,.03-.29h0Z"
            fill="currentColor" />
          <path
            d="M71.41,395.37c-8.86-3.45-17.39-6.57-26.95-7.19-5.27-.34-10.96,.52-16.13-.72-.41-.1-.59,.61-.18,.72,4.36,1.15,9.08,.65,13.54,.91,10.09,.58,20.32,2.53,29.61,6.55,.17,.07,.28-.2,.11-.27h0Z"
            fill="currentColor" />
          <path
            d="M62.97,385.02c-7.63-.57-14.82-1.39-22.32,.48-3.75,.94-7.75,3.03-11.66,2.08-.41-.1-.59,.61-.18,.72,3.28,.89,6.41-.32,9.59-1.13,7.92-2.03,16.43-2.93,24.54-1.86,.19,.02,.22-.27,.03-.29h0Z"
            fill="currentColor" />
          <path
            d="M59.67,382.39c-5.99-.05-11.84-.47-17.64,1.34-4.23,1.31-8.2,3.42-12.67,3.74-.49,.03-.36,.76,.11,.74,3.57-.14,6.75-1.41,10.11-2.5,6.43-2.1,13.27-3.54,20.07-3.02,.19,.01,.22-.29,.03-.29h0Z"
            fill="currentColor" />
          <path
            d="M79.42,382.54c7.1,1.17,12.59,6.63,15.93,12.73,.93,1.7,1.73,3.48,2.37,5.32,.25,.72,.36,1.64,.71,2.31,.68,1.3-.63,.62,.84,.19-1.31,.39-.46,2.34,.84,1.95,0,0,.02,0,.03,0,.47-.14,.66-.7,.63-1.13-.21-3.49-2.88-7.5-4.78-10.29-4.14-6.06-9.48-9.43-16.5-11.3-.17-.05-.24,.21-.06,.24h0Z"
            fill="currentColor" />
          <path
            d="M71.31,385.4c8.8-.33,16.5,4.12,22.08,10.65,1.43,1.67,2.72,3.48,3.82,5.39,.61,1.06,1.14,2.94,1.49,2.22-.6,1.23,1.38,2.02,1.97,.79,1.12-2.31-5.38-8.64-6.58-9.86-6.35-6.45-13.82-9.27-22.78-9.44-.18,0-.18,.25,0,.25h0Z"
            fill="currentColor" />
          <path
            d="M62.34,410.47c9.1,3.76,17.91,4.74,27.26,1.11,2.24-.87,10.97-4.17,11.13-7.39,.07-1.38-2.12-1.59-2.11-.24,0,2.12-9.26,6.17-10.73,6.77-8.14,3.35-17.52,3.59-25.46-.48-.14-.07-.24,.17-.09,.23h0Z"
            fill="currentColor" />
          <path
            d="M76.63,406.93c6.72,.38,13.89,1.9,20.52-.09,1.04-.31,4.43-1.43,3.5-3.2-.71-1.35-2.65-.23-1.82,1.07-.76-1.18,.15-.45-1.16-.07-1.34,.38-2.57,1.02-3.97,1.33-5.44,1.22-11.56,1.4-17.05,.71-.16-.02-.19,.24-.03,.25h0Z"
            fill="currentColor" />
          <path
            d="M31.07,369.41c4.33,7.45,15.54,11.43,23.74,10.82,1.17-.09,.9-1.9-.27-1.8-7.29,.62-18.71-3.14-23.33-9.1-.06-.07-.19,0-.14,.08h0Z"
            fill="currentColor" />
          <path
            d="M27.04,387.89c13.86,3.66,20.74,20.96,33.43,27.49,14.73,7.58,28.71,.09,40.51-9.34,.92-.73-.2-2.17-1.12-1.44-18.79,15.11-34.82,15.18-52.03-1.01-6.19-5.83-12.03-13.93-20.76-15.86-.09-.02-.13,.14-.04,.16h0Z"
            fill="currentColor" />
          <path
            d="M23.22,403.32c15.82,1.28,27.88,13.56,42.9,17.54,15.37,4.08,26.57-3.12,35.58-15.31,.7-.94-.76-2.05-1.45-1.1-25.05,34.14-47.43-.11-77.01-1.29-.11,0-.13,.16-.02,.16h0Z"
            fill="currentColor" />
          <path
            d="M27.09,387.9c10.89-1.98,21.07-6.53,31.85-8.95,21.24-4.78,34.16,5.02,41.24,25.14,.39,1.11,2.07,.39,1.67-.72-5.09-14.34-13.13-27.16-29.68-27.71-15.74-.53-30.13,8.73-45.11,12.07-.1,.02-.08,.18,.02,.16h0Z"
            fill="currentColor" />
          <path
            d="M31.09,369.45c7.9,4.92,16.67,4.06,25.61,3.43,7.25-.52,14.77-1.52,21.89,.43,14.78,4.04,18.94,18.28,21.48,31.84,.22,1.15,2.02,.89,1.8-.27-2.7-14.16-7.42-29.2-22.83-33.33-15.76-4.23-32.97,6.26-47.85-2.22-.09-.05-.19,.07-.1,.13h0Z"
            fill="currentColor" />
          <path
            d="M23.38,403.07c-.02,.07-.05,.15-.07,.22-.03,.09,.07,.19,.15,.12,4.73-4.29,13.58-4.71,19.31-3.17,1.04,.28,1.42-1.17,.36-1.43-4.57-1.12-9.51-1.05-13.94,.69-1.29,.51-5.42,2.37-5.65,3.61,.02-.09-.13-.13-.16-.04h0Z"
            fill="currentColor" />
          <path
            d="M.37,378.23c7.31,2.99,14.57,4.61,22.44,3.22,7.25-1.28,13.25-3.24,20.79-2.71,.85,.06,.99-1.17,.15-1.32-6.02-1.08-11.31,.16-17.13,1.69-9.05,2.38-17.17,1.32-26.19-1.04-.1-.03-.16,.11-.06,.15H.37Z"
            fill="currentColor" />
          <path
            d="M.11,378.3c10.93-3.6,21.85-6.74,33.41-4.77,.73,.12,1.04-1.05,.32-1.27-10.74-3.38-24.31,.87-33.8,5.89-.09,.05-.04,.19,.07,.15H.11Z"
            fill="currentColor" />
          <path
            d="M.03,378.29c9.78,8.66,14.55,20.51,29.1,22.01,.87,.09,.96-1.13,.15-1.32-8.09-1.89-13.87-5.05-19.34-11.33-3.11-3.57-5.77-6.92-9.81-9.49-.09-.06-.18,.06-.1,.13H.03Z"
            fill="currentColor" />
        </g>
      </g>
    </g>
  </g>
</svg>
